  0
SECTION
  2
HEADER
  9
$ACADVER
  1
AC1015
  9
$ACADMAINTVER
 70
     6
  9
$DWGCODEPAGE
  3
ANSI_1252
  9
$INSBASE
 10
0.0
 20
0.0
 30
0.0
  9
$EXTMIN
 10
-0.7351
 20
4.0528
 30
0.0
  9
$EXTMAX
 10
5.3869
 20
8.4042
 30
0.0
  9
$LIMMIN
 10
-12.695893
 20
-8.793293
  9
$LIMMAX
 10
17.347693
 20
21.250293
  9
$ORTHOMODE
 70
     0
  9
$REGENMODE
 70
     1
  9
$FILLMODE
 70
     1
  9
$QTEXTMODE
 70
     0
  9
$MIRRTEXT
 70
     1
  9
$LTSCALE
 40
1.0
  9
$ATTMODE
 70
     1
  9
$TEXTSIZE
 40
0.00002
  9
$TRACEWID
 40
0.05
  9
$TEXTSTYLE
  7
Standard
  9
$CLAYER
  8
0
  9
$CELTYPE
  6
ByLayer
  9
$CECOLOR
 62
     7
  9
$CELTSCALE
 40
1.0
  9
$DISPSILH
 70
     0
  9
$DIMSCALE
 40
1.0
  9
$DIMASZ
 40
0.25
  9
$DIMEXO
 40
0.125
  9
$DIMDLI
 40
0.0
  9
$DIMRND
 40
0.0
  9
$DIMDLE
 40
0.0
  9
$DIMEXE
 40
0.125
  9
$DIMTP
 40
0.0
  9
$DIMTM
 40
0.0
  9
$DIMTXT
 40
0.25
  9
$DIMCEN
 40
0.0
  9
$DIMTSZ
 40
0.0
  9
$DIMTOL
 70
     0
  9
$DIMLIM
 70
     0
  9
$DIMTIH
 70
     0
  9
$DIMTOH
 70
     0
  9
$DIMSE1
 70
     0
  9
$DIMSE2
 70
     0
  9
$DIMTAD
 70
     1
  9
$DIMZIN
 70
     2
  9
$DIMBLK
  1
TerminatorOpen
  9
$DIMASO
 70
     1
  9
$DIMSHO
 70
     1
  9
$DIMPOST
  1

  9
$DIMAPOST
  1

  9
$DIMALT
 70
     0
  9
$DIMALTD
 70
     4
  9
$DIMALTF
 40
1.0
  9
$DIMLFAC
 40
1.0
  9
$DIMTOFL
 70
     0
  9
$DIMTVP
 40
0.125
  9
$DIMTIX
 70
     0
  9
$DIMSOXD
 70
     0
  9
$DIMSAH
 70
     0
  9
$DIMBLK1
  1

  9
$DIMBLK2
  1

  9
$DIMSTYLE
  2
Standard
  9
$DIMCLRD
 70
     0
  9
$DIMCLRE
 70
     0
  9
$DIMCLRT
 70
     0
  9
$DIMTFAC
 40
1.0
  9
$DIMGAP
 40
0.125
  9
$DIMJUST
 70
     0
  9
$DIMSD1
 70
     0
  9
$DIMSD2
 70
     0
  9
$DIMTOLJ
 70
     1
  9
$DIMTZIN
 70
     2
  9
$DIMALTZ
 70
    12
  9
$DIMALTTZ
 70
    12
  9
$DIMUPT
 70
     0
  9
$DIMDEC
 70
     4
  9
$DIMTDEC
 70
     4
  9
$DIMALTU
 70
     2
  9
$DIMALTTD
 70
     4
  9
$DIMTXSTY
  7
Standard
  9
$DIMAUNIT
 70
     0
  9
$DIMADEC
 70
     4
  9
$DIMALTRND
 40
0.0
  9
$DIMAZIN
 70
     3
  9
$DIMDSEP
 70
     0
  9
$DIMATFIT
 70
     3
  9
$DIMFRAC
 70
     0
  9
$DIMLDRBLK
  1

  9
$DIMLUNIT
 70
     2
  9
$DIMLWD
 70
    -2
  9
$DIMLWE
 70
    -2
  9
$DIMTMOVE
 70
     0
  9
$LUNITS
 70
     2
  9
$LUPREC
 70
     4
  9
$SKETCHINC
 40
0.1
  9
$FILLETRAD
 40
0.5
  9
$AUNITS
 70
     0
  9
$AUPREC
 70
     4
  9
$MENU
  1
.
  9
$ELEVATION
 40
0.0
  9
$PELEVATION
 40
0.0
  9
$THICKNESS
 40
0.0
  9
$LIMCHECK
 70
     0
  9
$CHAMFERA
 40
0.5
  9
$CHAMFERB
 40
0.5
  9
$CHAMFERC
 40
1.0
  9
$CHAMFERD
 40
0.0
  9
$SKPOLY
 70
     0
  9
$TDCREATE
 40
2451789.537468704
  9
$TDUCREATE
 40
0.000000000
  9
$TDUPDATE
 40
2451789.537561297
  9
$TDUUPDATE
 40
0.000000000
  9
$TDINDWG
 40
0.0000927662
  9
$TDUSRTIMER
 40
0.0000925926
  9
$USRTIMER
 70
     1
  9
$ANGBASE
 50
0.0
  9
$ANGDIR
 70
     0
  9
$PDMODE
 70
     0
  9
$PDSIZE
 40
0.0
  9
$PLINEWID
 40
0.0
  9
$SPLFRAME
 70
     0
  9
$SPLINETYPE
 70
     6
  9
$SPLINESEGS
 70
     8
  9
$HANDSEED
  5
56A
  9
$SURFTAB1
 70
     6
  9
$SURFTAB2
 70
     6
  9
$SURFTYPE
 70
     6
  9
$SURFU
 70
     6
  9
$SURFV
 70
     6
  9
$UCSBASE
  2

  9
$UCSNAME
  2

  9
$UCSORG
 10
0.0
 20
0.0
 30
0.0
  9
$UCSXDIR
 10
1.0
 20
0.0
 30
0.0
  9
$UCSYDIR
 10
0.0
 20
1.0
 30
0.0
  9
$UCSORTHOREF
  2

  9
$UCSORTHOVIEW
 70
     0
  9
$UCSORGTOP
 10
0.0
 20
0.0
 30
0.0
  9
$UCSORGBOTTOM
 10
0.0
 20
0.0
 30
0.0
  9
$UCSORGLEFT
 10
0.0
 20
0.0
 30
0.0
  9
$UCSORGRIGHT
 10
0.0
 20
0.0
 30
0.0
  9
$UCSORGFRONT
 10
0.0
 20
0.0
 30
0.0
  9
$UCSORGBACK
 10
0.0
 20
0.0
 30
0.0
  9
$PUCSBASE
  2

  9
$PUCSNAME
  2

  9
$PUCSORG
 10
0.0
 20
0.0
 30
0.0
  9
$PUCSXDIR
 10
1.0
 20
0.0
 30
0.0
  9
$PUCSYDIR
 10
0.0
 20
1.0
 30
0.0
  9
$PUCSORTHOREF
  2

  9
$PUCSORTHOVIEW
 70
     0
  9
$PUCSORGTOP
 10
0.0
 20
0.0
 30
0.0
  9
$PUCSORGBOTTOM
 10
0.0
 20
0.0
 30
0.0
  9
$PUCSORGLEFT
 10
0.0
 20
0.0
 30
0.0
  9
$PUCSORGRIGHT
 10
0.0
 20
0.0
 30
0.0
  9
$PUCSORGFRONT
 10
0.0
 20
0.0
 30
0.0
  9
$PUCSORGBACK
 10
0.0
 20
0.0
 30
0.0
  9
$USERI1
 70
     0
  9
$USERI2
 70
     0
  9
$USERI3
 70
     0
  9
$USERI4
 70
     0
  9
$USERI5
 70
     0
  9
$USERR1
 40
0.0
  9
$USERR2
 40
0.0
  9
$USERR3
 40
0.0
  9
$USERR4
 40
0.0
  9
$USERR5
 40
0.0
  9
$WORLDVIEW
 70
     1
  9
$SHADEDGE
 70
     3
  9
$SHADEDIF
 70
    70
  9
$TILEMODE
 70
     1
  9
$MAXACTVP
 70
    64
  9
$PINSBASE
 10
0.0
 20
0.0
 30
0.0
  9
$PLIMCHECK
 70
     0
  9
$PEXTMIN
 10
1.000000E+20
 20
1.000000E+20
 30
1.000000E+20
  9
$PEXTMAX
 10
-1.000000E+20
 20
-1.000000E+20
 30
-1.000000E+20
  9
$PLIMMIN
 10
0.0
 20
0.0
  9
$PLIMMAX
 10
12.0
 20
9.0
  9
$UNITMODE
 70
     0
  9
$VISRETAIN
 70
     1
  9
$PLINEGEN
 70
     0
  9
$PSLTSCALE
 70
     1
  9
$TREEDEPTH
 70
  3020
  9
$CMLSTYLE
  2
STANDARD
  9
$CMLJUST
 70
     0
  9
$CMLSCALE
 40
1.0
  9
$PROXYGRAPHICS
 70
     1
  9
$MEASUREMENT
 70
     0
  9
$CELWEIGHT
370
    -3
  9
$ENDCAPS
280
     0
  9
$JOINSTYLE
280
     0
  9
$LWDISPLAY
290
     1
  9
$INSUNITS
 70
     6
  9
$HYPERLINKBASE
  1

  9
$XEDIT
290
     1
  9
$CEPSNTYPE
380
     0
  9
$PSTYLEMODE
290
     1
  9
$FINGERPRINTGUID
  2
{FDEAD576-A652-11D2-9A35-0060089B3A3F}
  9
$VERSIONGUID
  2
{A257D680-BC79-11D2-9A46-0060089B3A3F}
  9
$EXTNAMES
290
     1
  9
$PSVPSCALE
 40
0.0
  0
ENDSEC
  0
SECTION
  2
CLASSES
  0
CLASS
  1
ACDBDICTIONARYWDFLT
  2
AcDbDictionaryWithDefault
  3
AutoCAD 2000
 90
        0
280
     0
281
     0
  0
CLASS
  1
ACDBPLACEHOLDER
  2
AcDbPlaceHolder
  3
AutoCAD 2000
 90
        0
280
     0
281
     0
  0
CLASS
  1
LAYOUT
  2
AcDbLayout
  3
AutoCAD 2000
 90
        0
280
     0
281
     0
  0
CLASS
  1
LWPOLYLINE
  2
AcDbPolyline
  3
AutoCAD 2000
 90
        0
280
     0
281
     1
  0
CLASS
  1
IMAGE
  2
AcDbRasterImage
  3
ISM
 90
    32895
280
     0
281
     1
  0
CLASS
  1
OLE2FRAME
  2
AcDbOle2Frame
  3
AutoCAD 2000
 90
    32768
280
     0
281
     1
  0
CLASS
  1
HATCH
  2
AcDbHatch
  3
AutoCAD 2000
 90
    32768
280
     0
281
     1
  0
CLASS
  1
DICTIONARYVAR
  2
AcDbDictionaryVar
  3
AutoCAD 2000
 90
    32768
280
     0
281
     0
  0
CLASS
  1
RASTERVARIABLES
  2
AcDbRasterVariables
  3
ISM
 90
    32768
280
     0
281
     0
  0
CLASS
  1
IMAGEDEF
  2
AcDbRasterImageDef
  3
ISM
 90
    32768
280
     0
281
     0
  0
CLASS
  1
IMAGEDEF_REACTOR
  2
AcDbRasterImageDefReactor
  3
ISM
 90
    32769
280
     0
281
     0
  0
CLASS
  1
IDBUFFER
  2
AcDbIdBuffer
  3
AutoCAD 2000
 90
    32768
280
     0
281
     0
  0
CLASS
  1
SPATIAL_FILTER
  2
AcDbSpatialFilter
  3
AutoCAD 2000
 90
    32768
280
     0
281
     0
  0
CLASS
  1
XRECORD
  2
AcDbXrecord
  3
AutoCAD 2000
 90
    32768
280
     0
281
     0
  0
CLASS
  1
SORTENTSTABLE
  2
AcDbSortentsTable
  3
AutoCAD 2000
 90
    32768
280
     0
281
     0
  0
CLASS
  1
LAYER_INDEX
  2
AcDbLayerIndex
  3
AutoCAD 2000
 90
    32768
280
     0
281
     0
  0
CLASS
  1
SPATIAL_INDEX
  2
AcDbSpatialIndex
  3
AutoCAD 2000
 90
    32768
280
     0
281
     0
  0
CLASS
  1
OBJECT_PTR
  2
CAseDLPNTableRecord
  3
"ASE-LPNTableRecord"
 90
    32769
280
     0
281
     0
  0
CLASS
  1
PLOTSETTINGS
  2
AcDbPlotSettings
  3
AutoCAD 2000
 90
    32768
280
     0
281
     0
  0
CLASS
  1
VBA_PROJECT
  2
AcDbVbaProject
  3
acadvba
 90
    32768
280
     0
281
     0
  0
CLASS
  1
WIPEOUT
  2
AcDbWipeout
  3
WipeOut|AutoCAD Express Tool|expresstools@autodesk.com
 90
    32895
280
     0
281
     1
  0
CLASS
  1
WIPEOUTVARIABLES
  2
AcDbWipeoutVariables
  3
WipeOut|AutoCAD Express Tool|expresstools@autodesk.com
 90
        0
280
     0
281
     0
  0
CLASS
  1
RTEXT
  2
RText
  3
RText|AutoCAD Express Tool|expresstools@autodesk.com
 90
    32768
280
     0
281
     1
  0
CLASS
  1
ARCALIGNEDTEXT
  2
AcDbArcAlignedText
  3
ATEXT|AutoCAD Express Tool|expresstools@autodesk.com
 90
    32768
280
     0
281
     1
  0
ENDSEC
  0
SECTION
  2
TABLES
  0
TABLE
  2
VPORT
  5
520
100
AcDbSymbolTable
 70
     1
  0
VPORT
  5
4B
100
AcDbSymbolTableRecord
100
AcDbViewportTableRecord
  2
*ACTIVE
 70
    64
 10
0.0
 20
0.0
 11
1.0
 21
1.0
 12
5.569513
 22
3.633658
 13
0.0
 23
0.0
 14
0.1
 24
0.1
 15
0.1
 25
0.1
 16
0.0
 26
0.0
 36
1.0
 17
0.0
 27
0.0
 37
0.0
 40
7.574916
 41
1.542463
 42
50.0
 43
0.0
 44
0.0
 50
0.0
 51
0.0
 71
     0
 72
   100
 73
     1
 74
     2
 75
     0
 76
     1
 77
     0
 78
     1
281
     0
 65
     1
110
0.0
120
0.0
130
0.0
111
1.0
121
0.0
131
0.0
112
0.0
122
1.0
132
0.0
345
0
346
0
 79
     0
146
0.0
  0
ENDTAB
  0
TABLE
  2
LTYPE
  5
51D
100
AcDbSymbolTable
 70
     3
  0
LTYPE
  5
52C
100
AcDbSymbolTableRecord
100
AcDbLinetypeTableRecord
  2
ByBlock
 70
    64
  3

 72
    65
 73
     0
 40
0.0
  0
LTYPE
  5
52D
100
AcDbSymbolTableRecord
100
AcDbLinetypeTableRecord
  2
ByLayer
 70
    64
  3

 72
    65
 73
     0
 40
0.0
  0
LTYPE
  5
52E
100
AcDbSymbolTableRecord
100
AcDbLinetypeTableRecord
  2
Continuous
 70
    64
  3
Solid line
 72
    65
 73
     0
 40
0.0
  0
ENDTAB
  0
TABLE
  2
LAYER
  5
51A
100
AcDbSymbolTable
 70
     2
  0
LAYER
  5
6
100
AcDbSymbolTableRecord
100
AcDbLayerTableRecord
  2
0
 70
    64
 62
     2
  6
Continuous
290
     1
370
     0
390
527
  0
LAYER
  5
293
100
AcDbSymbolTableRecord
100
AcDbLayerTableRecord
  2
Image
 70
    64
 62
     7
  6
Continuous
290
     1
370
     0
390
527
  0
ENDTAB
  0
TABLE
  2
STYLE
  5
51B
100
AcDbSymbolTable
 70
     1
  0
STYLE
  5
529
100
AcDbSymbolTableRecord
100
AcDbTextStyleTableRecord
  2
Standard
 70
    64
 40
0.0
 41
1.0
 50
0.0
 71
     0
 42
0.2
  3
txt
  4

  0
ENDTAB
  0
TABLE
  2
VIEW
  5
51E
100
AcDbSymbolTable
 70
     0
  0
ENDTAB
  0
TABLE
  2
UCS
  5
51F
100
AcDbSymbolTable
 70
     0
  0
ENDTAB
  0
TABLE
  2
APPID
  5
521
100
AcDbSymbolTable
 70
     1
  0
APPID
  5
52A
100
AcDbSymbolTableRecord
100
AcDbRegAppTableRecord
  2
ACAD
 70
    64
  0
ENDTAB
  0
TABLE
  2
DIMSTYLE
  5
522
100
AcDbSymbolTable
 70
     1
100
AcDbDimStyleTable
 71
     0
  0
DIMSTYLE
105
2
100
AcDbSymbolTableRecord
100
AcDbDimStyleTableRecord
  2
Standard
 70
     0
  3

  4

 40
1.0
 41
0.25
 42
0.125
 43
0.0
 44
0.125
 45
0.0
 46
0.0
 47
0.0
 48
0.0
 71
     0
 72
     0
 73
     0
 74
     0
 75
     0
 76
     0
 77
     1
 78
     2
 79
     3
140
0.25
141
0.0
142
0.0
143
1.0
144
1.0
145
0.125
146
1.0
147
0.125
148
0.0
170
     0
171
     4
172
     0
173
     0
174
     0
175
     0
176
     0
177
     0
178
     0
179
     4
271
     4
272
     4
273
     2
274
     4
275
     0
276
     0
277
     2
278
     0
279
     0
280
     0
281
     0
282
     0
283
     1
284
     2
285
    12
286
    12
288
     0
340
529
341
0
342
562
343
0
344
0
371
    -2
372
    -2
  0
ENDTAB
  0
TABLE
  2
BLOCK_RECORD
  5
519
100
AcDbSymbolTable
 70
     1
  0
BLOCK_RECORD
  5
518
100
AcDbSymbolTableRecord
100
AcDbBlockTableRecord
  2
*MODEL_SPACE
340
4A
  0
BLOCK_RECORD
  5
568
100
AcDbSymbolTableRecord
100
AcDbBlockTableRecord
  2
*PAPER_SPACE
340
0
  0
BLOCK_RECORD
  5
562
100
AcDbSymbolTableRecord
100
AcDbBlockTableRecord
  2
TerminatorOpen
340
0
  0
ENDTAB
  0
ENDSEC
  0
SECTION
  2
BLOCKS
  0
BLOCK
  5
538
100
AcDbEntity
  8
0
100
AcDbBlockBegin
  2
*MODEL_SPACE
 70
    64
 10
0.0
 20
0.0
 30
0.0
  3
*MODEL_SPACE
  1

  0
ENDBLK
  5
539
100
AcDbEntity
  8
0
100
AcDbBlockEnd
  0
BLOCK
  5
534
100
AcDbEntity
 67
     1
  8
0
100
AcDbBlockBegin
  2
*PAPER_SPACE
 70
    64
 10
0.0
 20
0.0
 30
0.0
  3
*PAPER_SPACE
  1

  0
ENDBLK
  5
535
100
AcDbEntity
 67
     1
  8
0
100
AcDbBlockEnd
  0
BLOCK
  5
563
100
AcDbEntity
  8
0
370
    -2
  6
Continuous
 62
     0
100
AcDbBlockBegin
  2
TerminatorOpen
 70
    64
 10
0.0
 20
0.0
 30
0.0
  3
TerminatorOpen
  1

  0
LINE
  5
564
100
AcDbEntity
  8
0
370
    -2
  6
Continuous
 62
     0
100
AcDbLine
 10
0.0
 20
0.0
 30
0.0
 11
-1.0
 21
0.0
 31
0.0
  0
LINE
  5
565
100
AcDbEntity
  8
0
370
    -2
  6
Continuous
 62
     0
100
AcDbLine
 10
0.0
 20
0.0
 30
0.0
 11
-1.0
 21
0.25
 31
0.0
  0
LINE
  5
566
100
AcDbEntity
  8
0
370
    -2
  6
Continuous
 62
     0
100
AcDbLine
 10
0.0
 20
0.0
 30
0.0
 11
-1.0
 21
-0.25
 31
0.0
  0
ENDBLK
  5
567
100
AcDbEntity
  8
0
370
    -2
  6
Continuous
 62
     0
100
AcDbBlockEnd
  0
ENDSEC
  0
SECTION
  2
ENTITIES
  0
LINE
  5
250
100
AcDbEntity
  8
0
370
    -3
  6
Continuous
100
AcDbLine
 10
0.897346
 20
5.496596
 30
0.0
 11
0.897346
 21
5.096047
 31
0.0
  0
LINE
  5
259
100
AcDbEntity
  8
0
370
    -3
  6
Continuous
100
AcDbLine
 10
1.393771
 20
5.096047
 30
0.0
 11
1.393771
 21
4.919209
 31
0.0
  0
LINE
  5
25A
100
AcDbEntity
  8
0
370
    -3
  6
Continuous
100
AcDbLine
 10
1.393771
 20
4.919209
 30
0.0
 11
1.568479
 21
4.919209
 31
0.0
  0
LINE
  5
25C
100
AcDbEntity
  8
0
370
    -3
  6
Continuous
100
AcDbLine
 10
1.568479
 20
5.264363
 30
0.0
 11
1.472603
 21
5.264363
 31
0.0
  0
LINE
  5
260
100
AcDbEntity
  8
0
370
    -3
  6
Continuous
100
AcDbLine
 10
1.472603
 20
5.102438
 30
0.0
 11
1.527998
 21
5.102438
 31
0.0
  0
LINE
  5
261
100
AcDbEntity
  8
0
370
    -3
  6
Continuous
100
AcDbLine
 10
1.527998
 20
5.102438
 30
0.0
 11
1.527998
 21
5.079002
 31
0.0
  0
LINE
  5
262
100
AcDbEntity
  8
0
370
    -3
  6
Continuous
100
AcDbLine
 10
1.527998
 20
5.079002
 30
0.0
 11
1.453427
 21
5.079002
 31
0.0
  0
LINE
  5
251
100
AcDbEntity
  8
0
370
    -3
  6
Continuous
100
AcDbLine
 10
0.897346
 20
5.096047
 30
0.0
 11
1.393771
 21
5.096047
 31
0.0
  0
LINE
  5
263
100
AcDbEntity
  8
0
370
    -3
  6
Continuous
100
AcDbLine
 10
1.472603
 20
5.235733
 30
0.0
 11
1.453427
 21
5.235733
 31
0.0
  0
LINE
  5
264
100
AcDbEntity
  8
0
370
    -3
  6
Continuous
100
AcDbLine
 10
1.472603
 20
5.177675
 30
0.0
 11
1.453427
 21
5.177675
 31
0.0
  0
LINE
  5
252
100
AcDbEntity
  8
0
370
    -3
  6
Continuous
100
AcDbLine
 10
1.453427
 20
5.079002
 30
0.0
 11
1.453427
 21
5.177675
 31
0.0
  0
LINE
  5
265
100
AcDbEntity
  8
0
370
    -3
  6
Continuous
100
AcDbLine
 10
1.453427
 20
5.235733
 30
0.0
 11
1.453427
 21
5.496596
 31
0.0
  0
LINE
  5
25D
100
AcDbEntity
  8
0
370
    -3
  6
Continuous
100
AcDbLine
 10
1.472603
 20
5.264363
 30
0.0
 11
1.472603
 21
5.235733
 31
0.0
  0
LWPOLYLINE
  5
26B
100
AcDbEntity
  8
0
370
    -3
  6
Continuous
100
AcDbPolyline
 90
        4
 70
     1
 10
2.210849
 20
4.973272
 10
2.210849
 20
4.973272
 10
2.210849
 20
4.973272
 10
2.210849
 20
4.973272
  0
LINE
  5
266
100
AcDbEntity
  8
0
370
    -3
  6
Continuous
100
AcDbLine
 10
1.472603
 20
5.177675
 30
0.0
 11
1.472603
 21
5.102438
 31
0.0
  0
LINE
  5
25B
100
AcDbEntity
  8
0
370
    -3
  6
Continuous
100
AcDbLine
 10
1.568479
 20
4.919209
 30
0.0
 11
1.568479
 21
5.177675
 31
0.0
  0
LINE
  5
26F
100
AcDbEntity
  8
0
370
    -3
  6
Continuous
100
AcDbLine
 10
1.568479
 20
5.235733
 30
0.0
 11
1.568479
 21
5.264363
 31
0.0
  0
LINE
  5
270
100
AcDbEntity
  8
0
370
    -3
  6
Continuous
100
AcDbLine
 10
1.587118
 20
5.235733
 30
0.0
 11
1.587903
 21
5.235733
 31
0.0
  0
LINE
  5
26C
100
AcDbEntity
  8
0
370
    -3
  6
Continuous
100
AcDbLine
 10
1.568479
 20
5.235733
 30
0.0
 11
1.587654
 21
5.235733
 31
0.0
  0
LINE
  5
26D
100
AcDbEntity
  8
0
370
    -3
  6
Continuous
100
AcDbLine
 10
1.568479
 20
5.177675
 30
0.0
 11
1.587654
 21
5.177675
 31
0.0
  0
LINE
  5
26E
100
AcDbEntity
  8
0
370
    -3
  6
Continuous
100
AcDbLine
 10
1.914698
 20
5.235733
 30
0.0
 11
1.947722
 21
5.235733
 31
0.0
  0
LINE
  5
272
100
AcDbEntity
  8
0
370
    -3
  6
Continuous
100
AcDbLine
 10
1.914698
 20
5.177675
 30
0.0
 11
1.947722
 21
5.177675
 31
0.0
  0
LWPOLYLINE
  5
275
100
AcDbEntity
  8
0
370
    -3
  6
Continuous
100
AcDbPolyline
 90
        4
 70
     0
 10
2.210849
 20
5.177675
 10
2.210849
 20
4.973272
 10
1.947722
 20
4.973272
 10
1.947722
 20
5.177675
  0
LWPOLYLINE
  5
271
100
AcDbEntity
  8
0
370
    -3
  6
Continuous
100
AcDbPolyline
 90
        4
 70
     0
 10
1.587654
 20
5.235733
 10
1.587654
 20
5.44413
 10
1.914698
 20
5.44413
 10
1.914698
 20
5.235733
  0
LWPOLYLINE
  5
277
100
AcDbEntity
  8
0
370
    -3
  6
Continuous
100
AcDbPolyline
 90
        4
 70
     0
 10
1.914698
 20
5.177675
 10
1.914698
 20
4.973272
 10
1.587654
 20
4.973272
 10
1.587654
 20
5.177675
  0
LINE
  5
274
100
AcDbEntity
  8
0
370
    -3
  6
Continuous
100
AcDbLine
 10
2.210849
 20
5.177675
 30
0.0
 11
2.248134
 21
5.177675
 31
0.0
  0
LINE
  5
273
100
AcDbEntity
  8
0
370
    -3
  6
Continuous
100
AcDbLine
 10
2.210849
 20
5.235733
 30
0.0
 11
2.248134
 21
5.235733
 31
0.0
  0
LINE
  5
282
100
AcDbEntity
  8
0
370
    -3
  6
Continuous
100
AcDbLine
 10
2.581479
 20
5.133571
 30
0.0
 11
2.581479
 21
4.909674
 31
0.0
  0
LINE
  5
2AA
100
AcDbEntity
  8
0
370
    -3
  6
Continuous
100
AcDbLine
 10
4.613072
 20
5.09256
 30
0.0
 11
4.613072
 21
5.116278
 31
0.0
  0
LINE
  5
2B4
100
AcDbEntity
  8
0
370
    -3
  6
Continuous
100
AcDbLine
 10
2.180503
 20
7.035306
 30
0.0
 11
2.180503
 21
7.259111
 31
0.0
  0
LINE
  5
2BA
100
AcDbEntity
  8
0
370
    -3
  6
Continuous
100
AcDbLine
 10
2.178199
 20
7.01353
 30
0.0
 11
2.178199
 21
6.869946
 31
0.0
  0
LINE
  5
2EF
100
AcDbEntity
  8
0
370
    -3
  6
Continuous
100
AcDbLine
 10
2.907387
 20
5.133571
 30
0.0
 11
2.907387
 21
4.909674
 31
0.0
  0
LINE
  5
2F0
100
AcDbEntity
  8
0
370
    -3
  6
Continuous
100
AcDbLine
 10
3.195668
 20
5.133571
 30
0.0
 11
3.195668
 21
4.909674
 31
0.0
  0
LINE
  5
2F8
100
AcDbEntity
  8
0
370
    -3
  6
Continuous
100
AcDbLine
 10
2.313601
 20
6.49248
 30
0.0
 11
2.313601
 21
6.147993
 31
0.0
  0
LINE
  5
2F9
100
AcDbEntity
  8
0
370
    -3
  6
Continuous
100
AcDbLine
 10
2.313601
 20
6.49248
 30
0.0
 11
2.636331
 21
6.49248
 31
0.0
  0
LINE
  5
2FA
100
AcDbEntity
  8
0
370
    -3
  6
Continuous
100
AcDbLine
 10
2.636331
 20
6.49248
 30
0.0
 11
2.636331
 21
6.438087
 31
0.0
  0
LINE
  5
2FF
100
AcDbEntity
  8
0
370
    -3
  6
Continuous
100
AcDbLine
 10
3.434089
 20
6.465206
 30
0.0
 11
3.434089
 21
6.336554
 31
0.0
  0
LINE
  5
30A
100
AcDbEntity
  8
0
370
    -3
  6
Continuous
100
AcDbLine
 10
0.954269
 20
6.683992
 30
0.0
 11
0.954269
 21
6.663596
 31
0.0
  0
LINE
  5
30B
100
AcDbEntity
  8
0
370
    -3
  6
Continuous
100
AcDbLine
 10
1.003459
 20
6.683992
 30
0.0
 11
1.003459
 21
6.663596
 31
0.0
  0
LINE
  5
30E
100
AcDbEntity
  8
0
370
    -3
  6
Continuous
100
AcDbLine
 10
1.350191
 20
6.564016
 30
0.0
 11
1.432172
 21
6.645998
 31
0.0
  0
LINE
  5
313
100
AcDbEntity
  8
0
370
    -3
  6
Continuous
100
AcDbLine
 10
1.335907
 20
6.803855
 30
0.0
 11
1.42334
 21
6.716422
 31
0.0
  0
LINE
  5
315
100
AcDbEntity
  8
0
370
    -3
  6
Continuous
100
AcDbLine
 10
1.106639
 20
6.733183
 30
0.0
 11
1.159428
 21
6.733183
 31
0.0
  0
LINE
  5
316
100
AcDbEntity
  8
0
370
    -3
  6
Continuous
100
AcDbLine
 10
1.106639
 20
6.821965
 30
0.0
 11
1.229015
 21
6.821965
 31
0.0
  0
LINE
  5
318
100
AcDbEntity
  8
0
370
    -3
  6
Continuous
100
AcDbLine
 10
1.229015
 20
6.821965
 30
0.0
 11
1.229015
 21
6.802769
 31
0.0
  0
LINE
  5
319
100
AcDbEntity
  8
0
370
    -3
  6
Continuous
100
AcDbLine
 10
1.071846
 20
6.761977
 30
0.0
 11
1.106639
 21
6.761977
 31
0.0
  0
LINE
  5
31A
100
AcDbEntity
  8
0
370
    -3
  6
Continuous
100
AcDbLine
 10
1.106639
 20
6.807568
 30
0.0
 11
1.071846
 21
6.807568
 31
0.0
  0
LINE
  5
31D
100
AcDbEntity
  8
0
370
    -3
  6
Continuous
100
AcDbLine
 10
1.071846
 20
6.529223
 30
0.0
 11
1.146231
 21
6.529223
 31
0.0
  0
LINE
  5
31F
100
AcDbEntity
  8
0
370
    -3
  6
Continuous
100
AcDbLine
 10
1.113837
 20
6.615606
 30
0.0
 11
1.159428
 21
6.615606
 31
0.0
  0
LINE
  5
320
100
AcDbEntity
  8
0
370
    -3
  6
Continuous
100
AcDbLine
 10
1.350191
 20
6.564016
 30
0.0
 11
1.232614
 21
6.564016
 31
0.0
  0
LINE
  5
2DB
100
AcDbEntity
  8
0
370
    -3
  6
Continuous
100
AcDbLine
 10
4.26805
 20
6.114967
 30
0.0
 11
4.26805
 21
6.054211
 31
0.0
  0
LINE
  5
2DA
100
AcDbEntity
  8
0
370
    -3
  6
Continuous
100
AcDbLine
 10
4.231457
 20
6.114967
 30
0.0
 11
4.231457
 21
6.054211
 31
0.0
  0
LINE
  5
32C
100
AcDbEntity
  8
0
370
    -3
  6
Continuous
100
AcDbLine
 10
4.26805
 20
5.902956
 30
0.0
 11
4.26805
 21
5.841483
 31
0.0
  0
LINE
  5
32B
100
AcDbEntity
  8
0
370
    -3
  6
Continuous
100
AcDbLine
 10
4.231457
 20
5.902956
 30
0.0
 11
4.231457
 21
5.841483
 31
0.0
  0
LINE
  5
329
100
AcDbEntity
  8
0
370
    -3
  6
Continuous
100
AcDbLine
 10
4.231457
 20
6.054211
 30
0.0
 11
4.26805
 21
6.054211
 31
0.0
  0
LINE
  5
2D7
100
AcDbEntity
  8
0
370
    -3
  6
Continuous
100
AcDbLine
 10
3.809408
 20
6.054211
 30
0.0
 11
3.836244
 21
6.054211
 31
0.0
  0
LINE
  5
2D6
100
AcDbEntity
  8
0
370
    -3
  6
Continuous
100
AcDbLine
 10
4.26805
 20
5.902956
 30
0.0
 11
4.231457
 21
5.902956
 31
0.0
  0
LINE
  5
330
100
AcDbEntity
  8
0
370
    -3
  6
Continuous
100
AcDbLine
 10
3.836244
 20
5.902956
 30
0.0
 11
3.809408
 21
5.902956
 31
0.0
  0
LINE
  5
32F
100
AcDbEntity
  8
0
370
    -3
  6
Continuous
100
AcDbLine
 10
3.809408
 20
6.054211
 30
0.0
 11
3.809408
 21
6.114967
 31
0.0
  0
LINE
  5
333
100
AcDbEntity
  8
0
370
    -3
  6
Continuous
100
AcDbLine
 10
3.836244
 20
6.054211
 30
0.0
 11
3.836244
 21
6.114967
 31
0.0
  0
LINE
  5
2DF
100
AcDbEntity
  8
0
370
    -3
  6
Continuous
100
AcDbLine
 10
3.836244
 20
5.841483
 30
0.0
 11
3.836244
 21
5.902956
 31
0.0
  0
LINE
  5
2E0
100
AcDbEntity
  8
0
370
    -3
  6
Continuous
100
AcDbLine
 10
3.809408
 20
5.841483
 30
0.0
 11
3.809408
 21
5.902956
 31
0.0
  0
LINE
  5
2D8
100
AcDbEntity
  8
0
370
    -3
  6
Continuous
100
AcDbLine
 10
3.970421
 20
6.200586
 30
0.0
 11
3.970421
 21
6.17375
 31
0.0
  0
LINE
  5
2D9
100
AcDbEntity
  8
0
370
    -3
  6
Continuous
100
AcDbLine
 10
4.107038
 20
6.200586
 30
0.0
 11
4.107038
 21
6.17375
 31
0.0
  0
LINE
  5
2E2
100
AcDbEntity
  8
0
370
    -3
  6
Continuous
100
AcDbLine
 10
4.17795
 20
6.17375
 30
0.0
 11
4.107038
 21
6.17375
 31
0.0
  0
LINE
  5
33A
100
AcDbEntity
  8
0
370
    -3
  6
Continuous
100
AcDbLine
 10
3.970421
 20
6.17375
 30
0.0
 11
3.89056
 21
6.17375
 31
0.0
  0
LINE
  5
2E1
100
AcDbEntity
  8
0
370
    -3
  6
Continuous
100
AcDbLine
 10
3.89056
 20
6.200586
 30
0.0
 11
3.970421
 21
6.200586
 31
0.0
  0
LINE
  5
33B
100
AcDbEntity
  8
0
370
    -3
  6
Continuous
100
AcDbLine
 10
4.107038
 20
6.200586
 30
0.0
 11
4.17795
 21
6.200586
 31
0.0
  0
LINE
  5
33D
100
AcDbEntity
  8
0
370
    -3
  6
Continuous
100
AcDbLine
 10
4.17795
 20
6.17375
 30
0.0
 11
4.231457
 21
6.114967
 31
0.0
  0
LINE
  5
33E
100
AcDbEntity
  8
0
370
    -3
  6
Continuous
100
AcDbLine
 10
3.89056
 20
6.17375
 30
0.0
 11
3.836244
 21
6.114967
 31
0.0
  0
LINE
  5
2DD
100
AcDbEntity
  8
0
370
    -3
  6
Continuous
100
AcDbLine
 10
3.89056
 20
5.771219
 30
0.0
 11
3.970421
 21
5.771219
 31
0.0
  0
LINE
  5
341
100
AcDbEntity
  8
0
370
    -3
  6
Continuous
100
AcDbLine
 10
4.107038
 20
5.771219
 30
0.0
 11
4.17795
 21
5.771219
 31
0.0
  0
LINE
  5
2DE
100
AcDbEntity
  8
0
370
    -3
  6
Continuous
100
AcDbLine
 10
4.173844
 20
5.739504
 30
0.0
 11
4.107038
 21
5.739504
 31
0.0
  0
LINE
  5
342
100
AcDbEntity
  8
0
370
    -3
  6
Continuous
100
AcDbLine
 10
3.970421
 20
5.739504
 30
0.0
 11
3.886454
 21
5.739504
 31
0.0
  0
LINE
  5
343
100
AcDbEntity
  8
0
370
    -3
  6
Continuous
100
AcDbLine
 10
3.970421
 20
5.771219
 30
0.0
 11
3.970421
 21
5.739504
 31
0.0
  0
LINE
  5
345
100
AcDbEntity
  8
0
370
    -3
  6
Continuous
100
AcDbLine
 10
4.107038
 20
5.771219
 30
0.0
 11
4.107038
 21
5.739504
 31
0.0
  0
LINE
  5
347
100
AcDbEntity
  8
0
370
    -3
  6
Continuous
100
AcDbLine
 10
3.836244
 20
5.841483
 30
0.0
 11
3.89056
 21
5.771219
 31
0.0
  0
LINE
  5
348
100
AcDbEntity
  8
0
370
    -3
  6
Continuous
100
AcDbLine
 10
4.231457
 20
5.841483
 30
0.0
 11
4.17795
 21
5.771219
 31
0.0
  0
LINE
  5
34F
100
AcDbEntity
  8
0
370
    -3
  6
Continuous
100
AcDbLine
 10
3.541392
 20
5.107413
 30
0.0
 11
3.5218
 21
5.107413
 31
0.0
  0
LINE
  5
326
100
AcDbEntity
  8
0
370
    -3
  6
Continuous
100
AcDbLine
 10
4.68334
 20
6.86589
 30
0.0
 11
4.637979
 21
6.820529
 31
0.0
  0
LINE
  5
322
100
AcDbEntity
  8
0
370
    -3
  6
Continuous
100
AcDbLine
 10
4.958679
 20
6.86589
 30
0.0
 11
5.012308
 21
6.812261
 31
0.0
  0
LINE
  5
327
100
AcDbEntity
  8
0
370
    -3
  6
Continuous
100
AcDbLine
 10
5.012308
 20
6.547321
 30
0.0
 11
4.964686
 21
6.499699
 31
0.0
  0
LINE
  5
324
100
AcDbEntity
  8
0
370
    -3
  6
Continuous
100
AcDbLine
 10
4.637979
 20
6.537699
 30
0.0
 11
4.675979
 21
6.499699
 31
0.0
  0
LWPOLYLINE
  5
359
100
AcDbEntity
  8
0
370
    -3
  6
Continuous
100
AcDbPolyline
 90
        2
 70
     0
 10
4.68334
 20
6.86589
 10
4.958679
 20
6.86589
  0
LWPOLYLINE
  5
35A
100
AcDbEntity
  8
0
370
    -3
  6
Continuous
100
AcDbPolyline
 90
        2
 70
     0
 10
5.012308
 20
6.812261
 10
5.012308
 20
6.547321
  0
LINE
  5
35E
100
AcDbEntity
  8
0
370
    -3
  6
Continuous
100
AcDbLine
 10
4.637979
 20
6.645998
 30
0.0
 11
4.637979
 21
6.537699
 31
0.0
  0
LINE
  5
35C
100
AcDbEntity
  8
0
370
    -3
  6
Continuous
100
AcDbLine
 10
4.610913
 20
6.645998
 30
0.0
 11
4.637979
 21
6.645998
 31
0.0
  0
LINE
  5
35D
100
AcDbEntity
  8
0
370
    -3
  6
Continuous
100
AcDbLine
 10
4.610913
 20
6.716422
 30
0.0
 11
4.637979
 21
6.716422
 31
0.0
  0
LINE
  5
303
100
AcDbEntity
  8
0
370
    -3
  6
Continuous
100
AcDbLine
 10
4.637979
 20
6.820529
 30
0.0
 11
4.637979
 21
6.716422
 31
0.0
  0
LINE
  5
304
100
AcDbEntity
  8
0
370
    -3
  6
Continuous
100
AcDbLine
 10
4.610913
 20
6.86589
 30
0.0
 11
4.610913
 21
6.716422
 31
0.0
  0
LINE
  5
361
100
AcDbEntity
  8
0
370
    -3
  6
Continuous
100
AcDbLine
 10
4.610913
 20
6.645998
 30
0.0
 11
4.610913
 21
6.499699
 31
0.0
  0
LWPOLYLINE
  5
35B
100
AcDbEntity
  8
0
370
    -3
  6
Continuous
100
AcDbPolyline
 90
        2
 70
     0
 10
4.964686
 20
6.499699
 10
4.863309
 20
6.499699
  0
LWPOLYLINE
  5
362
100
AcDbEntity
  8
0
370
    -3
  6
Continuous
100
AcDbPolyline
 90
        2
 70
     0
 10
4.785242
 20
6.499699
 10
4.675979
 20
6.499699
  0
LINE
  5
2D1
100
AcDbEntity
  8
0
370
    -3
  6
Continuous
100
AcDbLine
 10
4.785242
 20
6.499699
 30
0.0
 11
4.785242
 21
6.416263
 31
0.0
  0
LINE
  5
365
100
AcDbEntity
  8
0
370
    -3
  6
Continuous
100
AcDbLine
 10
4.863309
 20
6.416263
 30
0.0
 11
4.863309
 21
6.499699
 31
0.0
  0
LINE
  5
367
100
AcDbEntity
  8
0
370
    -3
  6
Continuous
100
AcDbLine
 10
4.609035
 20
6.002979
 30
0.0
 11
4.627576
 21
6.002979
 31
0.0
  0
LINE
  5
2D4
100
AcDbEntity
  8
0
370
    -3
  6
Continuous
100
AcDbLine
 10
4.627576
 20
5.93955
 30
0.0
 11
4.609035
 21
5.93955
 31
0.0
  0
LWPOLYLINE
  5
331
100
AcDbEntity
  8
0
370
    -3
  6
Continuous
100
AcDbPolyline
 90
        3
 70
     0
 10
4.26805
 20
6.114967
 10
4.609035
 20
6.114967
 10
4.609035
 20
6.002979
  0
LWPOLYLINE
  5
368
100
AcDbEntity
  8
0
370
    -3
  6
Continuous
100
AcDbPolyline
 90
        3
 70
     0
 10
4.609035
 20
5.93955
 10
4.609035
 20
5.841483
 10
4.26805
 20
5.841483
  0
LWPOLYLINE
  5
369
100
AcDbEntity
  8
0
370
    -3
  6
Continuous
100
AcDbPolyline
 90
        3
 70
     0
 10
4.627576
 20
6.002979
 10
4.627576
 20
6.416263
 10
4.785242
 20
6.416263
  0
LINE
  5
2D2
100
AcDbEntity
  8
0
370
    -3
  6
Continuous
100
AcDbLine
 10
4.863309
 20
5.49826
 30
0.0
 11
4.863309
 21
5.526281
 31
0.0
  0
LINE
  5
36B
100
AcDbEntity
  8
0
370
    -3
  6
Continuous
100
AcDbLine
 10
4.785242
 20
5.526281
 30
0.0
 11
4.785242
 21
5.49826
 31
0.0
  0
LWPOLYLINE
  5
363
100
AcDbEntity
  8
0
370
    -3
  6
Continuous
100
AcDbPolyline
 90
        4
 70
     0
 10
4.863309
 20
6.416263
 10
5.007673
 20
6.416263
 10
5.007673
 20
5.526281
 10
4.863309
 20
5.526281
  0
LWPOLYLINE
  5
36C
100
AcDbEntity
  8
0
370
    -3
  6
Continuous
100
AcDbPolyline
 90
        3
 70
     0
 10
4.785242
 20
5.526281
 10
4.627576
 20
5.526281
 10
4.627576
 20
5.93955
  0
LINE
  5
370
100
AcDbEntity
  8
0
370
    -3
  6
Continuous
100
AcDbLine
 10
4.563755
 20
5.44413
 30
0.0
 11
4.649889
 21
5.44413
 31
0.0
  0
LINE
  5
371
100
AcDbEntity
  8
0
370
    -3
  6
Continuous
100
AcDbLine
 10
4.543783
 20
5.399455
 30
0.0
 11
4.543783
 21
5.44413
 31
0.0
  0
LINE
  5
372
100
AcDbEntity
  8
0
370
    -3
  6
Continuous
100
AcDbLine
 10
4.543783
 20
5.246368
 30
0.0
 11
4.543783
 21
5.399455
 31
0.0
  0
LWPOLYLINE
  5
373
100
AcDbEntity
  8
0
370
    -3
  6
Continuous
100
AcDbPolyline
 90
        2
 70
     0
 10
4.563755
 20
5.246368
 10
4.563755
 20
5.44413
  0
LINE
  5
2A1
100
AcDbEntity
  8
0
370
    -3
  6
Continuous
100
AcDbLine
 10
4.543783
 20
4.971474
 30
0.0
 11
4.543783
 21
5.174495
 31
0.0
  0
LWPOLYLINE
  5
378
100
AcDbEntity
  8
0
370
    -3
  6
Continuous
100
AcDbPolyline
 90
        3
 70
     0
 10
4.676103
 20
5.246368
 10
4.676103
 20
5.49826
 10
4.785242
 20
5.49826
  0
LWPOLYLINE
  5
36F
100
AcDbEntity
  8
0
370
    -3
  6
Continuous
100
AcDbPolyline
 90
        2
 70
     0
 10
4.649889
 20
5.44413
 10
4.649889
 20
5.246368
  0
LINE
  5
34D
100
AcDbEntity
  8
0
370
    -3
  6
Continuous
100
AcDbLine
 10
4.676103
 20
5.246368
 30
0.0
 11
4.649889
 21
5.246368
 31
0.0
  0
LINE
  5
37A
100
AcDbEntity
  8
0
370
    -3
  6
Continuous
100
AcDbLine
 10
4.563755
 20
5.246368
 30
0.0
 11
4.543783
 21
5.246368
 31
0.0
  0
LINE
  5
37D
100
AcDbEntity
  8
0
370
    -3
  6
Continuous
100
AcDbLine
 10
4.563755
 20
5.174495
 30
0.0
 11
4.543783
 21
5.174495
 31
0.0
  0
LINE
  5
380
100
AcDbEntity
  8
0
370
    -3
  6
Continuous
100
AcDbLine
 10
4.676103
 20
5.174495
 30
0.0
 11
4.649889
 21
5.174495
 31
0.0
  0
LWPOLYLINE
  5
382
100
AcDbEntity
  8
0
370
    -3
  6
Continuous
100
AcDbPolyline
 90
        2
 70
     0
 10
4.563755
 20
5.116278
 10
4.563755
 20
5.174495
  0
LWPOLYLINE
  5
383
100
AcDbEntity
  8
0
370
    -3
  6
Continuous
100
AcDbPolyline
 90
        4
 70
     0
 10
4.741015
 20
5.09256
 10
4.741015
 20
4.936522
 10
4.563755
 20
4.936522
 10
4.563755
 20
5.116278
  0
LWPOLYLINE
  5
36D
100
AcDbEntity
  8
0
370
    -3
  6
Continuous
100
AcDbPolyline
 90
        4
 70
     0
 10
4.863309
 20
5.49826
 10
5.200392
 20
5.49826
 10
5.200392
 20
5.09256
 10
4.741015
 20
5.09256
  0
LINE
  5
2A9
100
AcDbEntity
  8
0
370
    -3
  6
Continuous
100
AcDbLine
 10
4.676103
 20
5.09256
 30
0.0
 11
4.613072
 21
5.09256
 31
0.0
  0
LWPOLYLINE
  5
384
100
AcDbEntity
  8
0
370
    -3
  6
Continuous
100
AcDbPolyline
 90
        2
 70
     0
 10
4.676103
 20
5.09256
 10
4.676103
 20
5.174495
  0
LWPOLYLINE
  5
385
100
AcDbEntity
  8
0
370
    -3
  6
Continuous
100
AcDbPolyline
 90
        2
 70
     0
 10
4.649889
 20
5.116278
 10
4.613072
 20
5.116278
  0
LWPOLYLINE
  5
376
100
AcDbEntity
  8
0
370
    -3
  6
Continuous
100
AcDbPolyline
 90
        2
 70
     0
 10
4.649889
 20
5.174495
 10
4.649889
 20
5.116278
  0
LWPOLYLINE
  5
381
100
AcDbEntity
  8
0
370
    -3
  6
Continuous
100
AcDbPolyline
 90
        2
 70
     0
 10
4.619931
 20
5.116278
 10
4.640336
 20
5.116278
  0
LINE
  5
387
100
AcDbEntity
  8
0
370
    -3
  6
Continuous
100
AcDbLine
 10
4.214229
 20
5.44413
 30
0.0
 11
4.543783
 21
5.44413
 31
0.0
  0
LINE
  5
27B
100
AcDbEntity
  8
0
370
    -3
  6
Continuous
100
AcDbLine
 10
3.541392
 20
5.44413
 30
0.0
 11
3.869697
 21
5.44413
 31
0.0
  0
LINE
  5
38B
100
AcDbEntity
  8
0
370
    -3
  6
Continuous
100
AcDbLine
 10
3.985653
 20
5.472864
 30
0.0
 11
3.985653
 21
5.454235
 31
0.0
  0
LINE
  5
38D
100
AcDbEntity
  8
0
370
    -3
  6
Continuous
100
AcDbLine
 10
4.081485
 20
5.454235
 30
0.0
 11
4.081485
 21
5.472864
 31
0.0
  0
LWPOLYLINE
  5
340
100
AcDbEntity
  8
0
370
    -3
  6
Continuous
100
AcDbPolyline
 90
        2
 70
     0
 10
4.173844
 20
5.739504
 10
4.173844
 20
5.472864
  0
LWPOLYLINE
  5
38E
100
AcDbEntity
  8
0
370
    -3
  6
Continuous
100
AcDbPolyline
 90
        2
 70
     0
 10
4.186767
 20
5.454235
 10
4.081485
 20
5.454235
  0
LINE
  5
388
100
AcDbEntity
  8
0
370
    -3
  6
Continuous
100
AcDbLine
 10
4.081485
 20
5.472864
 30
0.0
 11
4.173844
 21
5.472864
 31
0.0
  0
LINE
  5
352
100
AcDbEntity
  8
0
370
    -3
  6
Continuous
100
AcDbLine
 10
3.886454
 20
5.472864
 30
0.0
 11
3.985653
 21
5.472864
 31
0.0
  0
LWPOLYLINE
  5
38F
100
AcDbEntity
  8
0
370
    -3
  6
Continuous
100
AcDbPolyline
 90
        2
 70
     0
 10
3.886454
 20
5.472864
 10
3.886454
 20
5.739504
  0
LWPOLYLINE
  5
389
100
AcDbEntity
  8
0
370
    -3
  6
Continuous
100
AcDbPolyline
 90
        2
 70
     0
 10
3.985653
 20
5.454235
 10
3.885925
 20
5.454235
  0
LWPOLYLINE
  5
390
100
AcDbEntity
  8
0
370
    -3
  6
Continuous
100
AcDbPolyline
 90
        2
 70
     0
 10
4.17795
 20
6.465206
 10
4.17795
 20
6.200586
  0
LWPOLYLINE
  5
336
100
AcDbEntity
  8
0
370
    -3
  6
Continuous
100
AcDbPolyline
 90
        2
 70
     0
 10
3.89056
 20
6.200586
 10
3.89056
 20
6.465206
  0
LINE
  5
349
100
AcDbEntity
  8
0
370
    -3
  6
Continuous
100
AcDbLine
 10
3.985653
 20
6.499699
 30
0.0
 11
3.985653
 21
6.465206
 31
0.0
  0
LINE
  5
392
100
AcDbEntity
  8
0
370
    -3
  6
Continuous
100
AcDbLine
 10
4.081485
 20
6.465206
 30
0.0
 11
4.081485
 21
6.499699
 31
0.0
  0
LWPOLYLINE
  5
358
100
AcDbEntity
  8
0
370
    -3
  6
Continuous
100
AcDbPolyline
 90
        2
 70
     0
 10
4.610913
 20
6.499699
 10
4.081485
 20
6.499699
  0
LINE
  5
395
100
AcDbEntity
  8
0
370
    -3
  6
Continuous
100
AcDbLine
 10
3.89056
 20
6.465206
 30
0.0
 11
3.985653
 21
6.465206
 31
0.0
  0
LINE
  5
393
100
AcDbEntity
  8
0
370
    -3
  6
Continuous
100
AcDbLine
 10
4.081485
 20
6.465206
 30
0.0
 11
4.17795
 21
6.465206
 31
0.0
  0
LINE
  5
397
100
AcDbEntity
  8
0
370
    -3
  6
Continuous
100
AcDbLine
 10
3.885925
 20
5.246368
 30
0.0
 11
3.869697
 21
5.246368
 31
0.0
  0
LINE
  5
2A4
100
AcDbEntity
  8
0
370
    -3
  6
Continuous
100
AcDbLine
 10
3.885925
 20
5.454235
 30
0.0
 11
3.885925
 21
5.246368
 31
0.0
  0
LINE
  5
399
100
AcDbEntity
  8
0
370
    -3
  6
Continuous
100
AcDbLine
 10
3.869697
 20
5.246368
 30
0.0
 11
3.869697
 21
5.44413
 31
0.0
  0
LINE
  5
39C
100
AcDbEntity
  8
0
370
    -3
  6
Continuous
100
AcDbLine
 10
3.885925
 20
5.174495
 30
0.0
 11
3.869697
 21
5.174495
 31
0.0
  0
LINE
  5
37B
100
AcDbEntity
  8
0
370
    -3
  6
Continuous
100
AcDbLine
 10
4.214229
 20
5.246368
 30
0.0
 11
4.186767
 21
5.246368
 31
0.0
  0
LINE
  5
39D
100
AcDbEntity
  8
0
370
    -3
  6
Continuous
100
AcDbLine
 10
4.214229
 20
5.174495
 30
0.0
 11
4.186767
 21
5.174495
 31
0.0
  0
LINE
  5
39F
100
AcDbEntity
  8
0
370
    -3
  6
Continuous
100
AcDbLine
 10
4.186767
 20
5.246368
 30
0.0
 11
4.186767
 21
5.454235
 31
0.0
  0
LINE
  5
2A2
100
AcDbEntity
  8
0
370
    -3
  6
Continuous
100
AcDbLine
 10
4.214229
 20
5.44413
 30
0.0
 11
4.214229
 21
5.246368
 31
0.0
  0
LINE
  5
2A3
100
AcDbEntity
  8
0
370
    -3
  6
Continuous
100
AcDbLine
 10
4.186767
 20
4.971474
 30
0.0
 11
4.186767
 21
5.174495
 31
0.0
  0
LINE
  5
3A0
100
AcDbEntity
  8
0
370
    -3
  6
Continuous
100
AcDbLine
 10
4.214229
 20
4.971474
 30
0.0
 11
4.543783
 21
4.971474
 31
0.0
  0
LINE
  5
39E
100
AcDbEntity
  8
0
370
    -3
  6
Continuous
100
AcDbLine
 10
4.214229
 20
5.174495
 30
0.0
 11
4.214229
 21
4.971474
 31
0.0
  0
LINE
  5
2A0
100
AcDbEntity
  8
0
370
    -3
  6
Continuous
100
AcDbLine
 10
3.541392
 20
4.971474
 30
0.0
 11
3.869697
 21
4.971474
 31
0.0
  0
LINE
  5
3A1
100
AcDbEntity
  8
0
370
    -3
  6
Continuous
100
AcDbLine
 10
3.885925
 20
4.971474
 30
0.0
 11
4.186767
 21
4.971474
 31
0.0
  0
LINE
  5
39B
100
AcDbEntity
  8
0
370
    -3
  6
Continuous
100
AcDbLine
 10
3.885925
 20
5.174495
 30
0.0
 11
3.885925
 21
4.971474
 31
0.0
  0
LINE
  5
2A5
100
AcDbEntity
  8
0
370
    -3
  6
Continuous
100
AcDbLine
 10
3.869697
 20
4.971474
 30
0.0
 11
3.869697
 21
5.174495
 31
0.0
  0
LINE
  5
350
100
AcDbEntity
  8
0
370
    -3
  6
Continuous
100
AcDbLine
 10
3.541392
 20
5.054706
 30
0.0
 11
3.5218
 21
5.054706
 31
0.0
  0
LINE
  5
3A2
100
AcDbEntity
  8
0
370
    -3
  6
Continuous
100
AcDbLine
 10
3.541392
 20
5.054706
 30
0.0
 11
3.541392
 21
4.971474
 31
0.0
  0
LINE
  5
3A3
100
AcDbEntity
  8
0
370
    -3
  6
Continuous
100
AcDbLine
 10
3.5218
 20
5.054706
 30
0.0
 11
3.5218
 21
4.909674
 31
0.0
  0
LINE
  5
2A8
100
AcDbEntity
  8
0
370
    -3
  6
Continuous
100
AcDbLine
 10
3.5218
 20
5.133571
 30
0.0
 11
3.5218
 21
5.107413
 31
0.0
  0
LINE
  5
29F
100
AcDbEntity
  8
0
370
    -3
  6
Continuous
100
AcDbLine
 10
3.541392
 20
5.44413
 30
0.0
 11
3.541392
 21
5.340263
 31
0.0
  0
LINE
  5
3A6
100
AcDbEntity
  8
0
370
    -3
  6
Continuous
100
AcDbLine
 10
3.541392
 20
5.273178
 30
0.0
 11
3.541392
 21
5.107413
 31
0.0
  0
LINE
  5
3A7
100
AcDbEntity
  8
0
370
    -3
  6
Continuous
100
AcDbLine
 10
3.404885
 20
5.273178
 30
0.0
 11
3.404885
 21
5.155383
 31
0.0
  0
LINE
  5
287
100
AcDbEntity
  8
0
370
    -3
  6
Continuous
100
AcDbLine
 10
3.404885
 20
5.44413
 30
0.0
 11
3.404885
 21
5.340263
 31
0.0
  0
LINE
  5
2EC
100
AcDbEntity
  8
0
370
    -3
  6
Continuous
100
AcDbLine
 10
2.552807
 20
5.340263
 30
0.0
 11
2.699644
 21
5.340263
 31
0.0
  0
LINE
  5
3A9
100
AcDbEntity
  8
0
370
    -3
  6
Continuous
100
AcDbLine
 10
3.404885
 20
5.340263
 30
0.0
 11
3.541392
 21
5.340263
 31
0.0
  0
LINE
  5
2ED
100
AcDbEntity
  8
0
370
    -3
  6
Continuous
100
AcDbLine
 10
3.541392
 20
5.273178
 30
0.0
 11
3.404885
 21
5.273178
 31
0.0
  0
LINE
  5
3AA
100
AcDbEntity
  8
0
370
    -3
  6
Continuous
100
AcDbLine
 10
2.699644
 20
5.273178
 30
0.0
 11
2.552807
 21
5.273178
 31
0.0
  0
LWPOLYLINE
  5
3AB
100
AcDbEntity
  8
0
370
    -3
  6
Continuous
100
AcDbPolyline
 90
        2
 70
     0
 10
3.478845
 20
6.114967
 10
3.809408
 20
6.114967
  0
LWPOLYLINE
  5
3AC
100
AcDbEntity
  8
0
370
    -3
  6
Continuous
100
AcDbPolyline
 90
        2
 70
     0
 10
3.264524
 20
6.114967
 10
3.449501
 20
6.114967
  0
LWPOLYLINE
  5
335
100
AcDbEntity
  8
0
370
    -3
  6
Continuous
100
AcDbPolyline
 90
        2
 70
     0
 10
3.809408
 20
5.841483
 10
3.478845
 20
5.841483
  0
LWPOLYLINE
  5
3AF
100
AcDbEntity
  8
0
370
    -3
  6
Continuous
100
AcDbPolyline
 90
        2
 70
     0
 10
3.449501
 20
5.841483
 10
3.264524
 20
5.841483
  0
LINE
  5
2E3
100
AcDbEntity
  8
0
370
    -3
  6
Continuous
100
AcDbLine
 10
3.478845
 20
6.114967
 30
0.0
 11
3.478845
 21
6.002979
 31
0.0
  0
LINE
  5
3B0
100
AcDbEntity
  8
0
370
    -3
  6
Continuous
100
AcDbLine
 10
3.478845
 20
5.93955
 30
0.0
 11
3.478845
 21
5.841483
 31
0.0
  0
LINE
  5
2E4
100
AcDbEntity
  8
0
370
    -3
  6
Continuous
100
AcDbLine
 10
3.449501
 20
6.114967
 30
0.0
 11
3.449501
 21
6.002979
 31
0.0
  0
LINE
  5
3AE
100
AcDbEntity
  8
0
370
    -3
  6
Continuous
100
AcDbLine
 10
3.449501
 20
5.93955
 30
0.0
 11
3.449501
 21
5.841483
 31
0.0
  0
LINE
  5
3B2
100
AcDbEntity
  8
0
370
    -3
  6
Continuous
100
AcDbLine
 10
3.449501
 20
6.002979
 30
0.0
 11
3.478845
 21
6.002979
 31
0.0
  0
LINE
  5
3B3
100
AcDbEntity
  8
0
370
    -3
  6
Continuous
100
AcDbLine
 10
3.478845
 20
5.93955
 30
0.0
 11
3.449501
 21
5.93955
 31
0.0
  0
LINE
  5
34C
100
AcDbEntity
  8
0
370
    -3
  6
Continuous
100
AcDbLine
 10
3.264524
 20
6.114967
 30
0.0
 11
3.264524
 21
6.002979
 31
0.0
  0
LINE
  5
3B4
100
AcDbEntity
  8
0
370
    -3
  6
Continuous
100
AcDbLine
 10
3.264524
 20
5.93955
 30
0.0
 11
3.264524
 21
5.841483
 31
0.0
  0
LINE
  5
3B1
100
AcDbEntity
  8
0
370
    -3
  6
Continuous
100
AcDbLine
 10
3.264524
 20
5.93955
 30
0.0
 11
3.242329
 21
5.93955
 31
0.0
  0
LINE
  5
3B7
100
AcDbEntity
  8
0
370
    -3
  6
Continuous
100
AcDbLine
 10
3.242329
 20
6.002979
 30
0.0
 11
3.264524
 21
6.002979
 31
0.0
  0
LINE
  5
3B8
100
AcDbEntity
  8
0
370
    -3
  6
Continuous
100
AcDbLine
 10
3.449501
 20
6.499699
 30
0.0
 11
3.449501
 21
6.645998
 31
0.0
  0
LINE
  5
3BA
100
AcDbEntity
  8
0
370
    -3
  6
Continuous
100
AcDbLine
 10
3.449501
 20
6.716422
 30
0.0
 11
3.449501
 21
6.86589
 31
0.0
  0
LINE
  5
3B9
100
AcDbEntity
  8
0
370
    -3
  6
Continuous
100
AcDbLine
 10
3.478845
 20
6.499699
 30
0.0
 11
3.478845
 21
6.645998
 31
0.0
  0
LINE
  5
3BB
100
AcDbEntity
  8
0
370
    -3
  6
Continuous
100
AcDbLine
 10
3.478845
 20
6.716422
 30
0.0
 11
3.478845
 21
6.86589
 31
0.0
  0
LINE
  5
3BD
100
AcDbEntity
  8
0
370
    -3
  6
Continuous
100
AcDbLine
 10
3.449501
 20
6.716422
 30
0.0
 11
3.478845
 21
6.716422
 31
0.0
  0
LINE
  5
3BC
100
AcDbEntity
  8
0
370
    -3
  6
Continuous
100
AcDbLine
 10
3.449501
 20
6.645998
 30
0.0
 11
3.478845
 21
6.645998
 31
0.0
  0
LWPOLYLINE
  5
394
100
AcDbEntity
  8
0
370
    -3
  6
Continuous
100
AcDbPolyline
 90
        2
 70
     0
 10
3.985653
 20
6.499699
 10
3.478845
 20
6.499699
  0
LWPOLYLINE
  5
3C1
100
AcDbEntity
  8
0
370
    -3
  6
Continuous
100
AcDbPolyline
 90
        2
 70
     0
 10
3.478845
 20
6.86589
 10
4.610913
 20
6.86589
  0
LWPOLYLINE
  5
3C2
100
AcDbEntity
  8
0
370
    -3
  6
Continuous
100
AcDbPolyline
 90
        6
 70
     0
 10
3.024554
 20
6.899961
 10
2.809112
 20
6.899961
 10
2.809112
 20
7.169408
 10
3.306195
 20
7.169408
 10
3.306195
 20
6.899961
 10
3.090943
 20
6.899961
  0
LWPOLYLINE
  5
3C3
100
AcDbEntity
  8
0
370
    -3
  6
Continuous
100
AcDbPolyline
 90
        2
 70
     0
 10
3.090943
 20
6.86589
 10
3.449501
 20
6.86589
  0
LINE
  5
2AC
100
AcDbEntity
  8
0
370
    -3
  6
Continuous
100
AcDbLine
 10
3.024554
 20
6.899961
 30
0.0
 11
3.024554
 21
6.86589
 31
0.0
  0
LINE
  5
2AE
100
AcDbEntity
  8
0
370
    -3
  6
Continuous
100
AcDbLine
 10
3.090943
 20
6.899961
 30
0.0
 11
3.090943
 21
6.86589
 31
0.0
  0
LWPOLYLINE
  5
3C0
100
AcDbEntity
  8
0
370
    -3
  6
Continuous
100
AcDbPolyline
 90
        2
 70
     0
 10
3.449501
 20
6.499699
 10
3.090943
 20
6.499699
  0
LINE
  5
3C9
100
AcDbEntity
  8
0
370
    -3
  6
Continuous
100
AcDbLine
 10
3.024554
 20
6.499699
 30
0.0
 11
3.024554
 21
6.465206
 31
0.0
  0
LINE
  5
3CA
100
AcDbEntity
  8
0
370
    -3
  6
Continuous
100
AcDbLine
 10
3.090943
 20
6.499699
 30
0.0
 11
3.090943
 21
6.465206
 31
0.0
  0
LWPOLYLINE
  5
3C7
100
AcDbEntity
  8
0
370
    -3
  6
Continuous
100
AcDbPolyline
 90
        2
 70
     0
 10
3.090943
 20
6.465206
 10
3.242329
 20
6.465206
  0
LWPOLYLINE
  5
3CD
100
AcDbEntity
  8
0
370
    -3
  6
Continuous
100
AcDbPolyline
 90
        2
 70
     0
 10
3.242329
 20
6.465206
 10
3.242329
 20
6.409078
  0
LINE
  5
300
100
AcDbEntity
  8
0
370
    -3
  6
Continuous
100
AcDbLine
 10
3.434089
 20
6.336554
 30
0.0
 11
3.242329
 21
6.336554
 31
0.0
  0
LINE
  5
3CF
100
AcDbEntity
  8
0
370
    -3
  6
Continuous
100
AcDbLine
 10
3.303547
 20
6.409078
 30
0.0
 11
3.303547
 21
6.465206
 31
0.0
  0
LINE
  5
301
100
AcDbEntity
  8
0
370
    -3
  6
Continuous
100
AcDbLine
 10
3.242329
 20
6.409078
 30
0.0
 11
3.303547
 21
6.409078
 31
0.0
  0
LINE
  5
3CC
100
AcDbEntity
  8
0
370
    -3
  6
Continuous
100
AcDbLine
 10
3.303547
 20
6.465206
 30
0.0
 11
3.434089
 21
6.465206
 31
0.0
  0
LWPOLYLINE
  5
3C6
100
AcDbEntity
  8
0
370
    -3
  6
Continuous
100
AcDbPolyline
 90
        3
 70
     0
 10
3.024554
 20
6.499699
 10
2.67147
 20
6.499699
 10
2.67147
 20
6.645998
  0
LWPOLYLINE
  5
3D1
100
AcDbEntity
  8
0
370
    -3
  6
Continuous
100
AcDbPolyline
 90
        3
 70
     0
 10
2.67147
 20
6.716422
 10
2.67147
 20
6.86589
 10
3.024554
 20
6.86589
  0
LINE
  5
2B0
100
AcDbEntity
  8
0
370
    -3
  6
Continuous
100
AcDbLine
 10
1.432172
 20
6.645998
 30
0.0
 11
1.506941
 21
6.645998
 31
0.0
  0
LINE
  5
3D4
100
AcDbEntity
  8
0
370
    -3
  6
Continuous
100
AcDbLine
 10
2.642733
 20
6.645998
 30
0.0
 11
2.67147
 21
6.645998
 31
0.0
  0
LINE
  5
3D5
100
AcDbEntity
  8
0
370
    -3
  6
Continuous
100
AcDbLine
 10
2.642733
 20
6.716422
 30
0.0
 11
2.67147
 21
6.716422
 31
0.0
  0
LWPOLYLINE
  5
3D6
100
AcDbEntity
  8
0
370
    -3
  6
Continuous
100
AcDbPolyline
 90
        3
 70
     0
 10
2.859699
 20
6.438087
 10
2.859699
 20
6.465206
 10
3.024554
 20
6.465206
  0
LINE
  5
2FE
100
AcDbEntity
  8
0
370
    -3
  6
Continuous
100
AcDbLine
 10
2.737864
 20
6.332928
 30
0.0
 11
2.859699
 21
6.332928
 31
0.0
  0
LINE
  5
2FB
100
AcDbEntity
  8
0
370
    -3
  6
Continuous
100
AcDbLine
 10
2.636331
 20
6.438087
 30
0.0
 11
2.859699
 21
6.438087
 31
0.0
  0
LINE
  5
2F7
100
AcDbEntity
  8
0
370
    -3
  6
Continuous
100
AcDbLine
 10
2.737864
 20
6.332928
 30
0.0
 11
2.737864
 21
6.147993
 31
0.0
  0
LWPOLYLINE
  5
3D9
100
AcDbEntity
  8
0
370
    -3
  6
Continuous
100
AcDbPolyline
 90
        2
 70
     0
 10
2.859699
 20
6.308451
 10
2.859699
 20
6.332928
  0
LINE
  5
2E6
100
AcDbEntity
  8
0
370
    -3
  6
Continuous
100
AcDbLine
 10
3.242329
 20
6.308451
 30
0.0
 11
3.090943
 21
6.308451
 31
0.0
  0
LINE
  5
3DA
100
AcDbEntity
  8
0
370
    -3
  6
Continuous
100
AcDbLine
 10
3.024554
 20
6.308451
 30
0.0
 11
2.859699
 21
6.308451
 31
0.0
  0
LINE
  5
2E5
100
AcDbEntity
  8
0
370
    -3
  6
Continuous
100
AcDbLine
 10
2.859699
 20
6.283068
 30
0.0
 11
3.024554
 21
6.283068
 31
0.0
  0
LINE
  5
3DB
100
AcDbEntity
  8
0
370
    -3
  6
Continuous
100
AcDbLine
 10
3.090943
 20
6.283068
 30
0.0
 11
3.242329
 21
6.283068
 31
0.0
  0
LINE
  5
3C8
100
AcDbEntity
  8
0
370
    -3
  6
Continuous
100
AcDbLine
 10
3.024554
 20
6.308451
 30
0.0
 11
3.024554
 21
6.283068
 31
0.0
  0
LINE
  5
3CB
100
AcDbEntity
  8
0
370
    -3
  6
Continuous
100
AcDbLine
 10
3.090943
 20
6.308451
 30
0.0
 11
3.090943
 21
6.283068
 31
0.0
  0
LINE
  5
3E3
100
AcDbEntity
  8
0
370
    -3
  6
Continuous
100
AcDbLine
 10
2.631798
 20
5.93955
 30
0.0
 11
2.631798
 21
5.841483
 31
0.0
  0
LINE
  5
2E7
100
AcDbEntity
  8
0
370
    -3
  6
Continuous
100
AcDbLine
 10
2.631798
 20
6.114967
 30
0.0
 11
2.631798
 21
6.002979
 31
0.0
  0
LINE
  5
3E8
100
AcDbEntity
  8
0
370
    -3
  6
Continuous
100
AcDbLine
 10
2.313601
 20
6.147993
 30
0.0
 11
2.737864
 21
6.147993
 31
0.0
  0
LINE
  5
3E9
100
AcDbEntity
  8
0
370
    -3
  6
Continuous
100
AcDbLine
 10
2.237594
 20
6.114967
 30
0.0
 11
2.237594
 21
6.002979
 31
0.0
  0
LINE
  5
3EC
100
AcDbEntity
  8
0
370
    -3
  6
Continuous
100
AcDbLine
 10
2.237594
 20
5.93955
 30
0.0
 11
2.237594
 21
5.841483
 31
0.0
  0
LINE
  5
3EF
100
AcDbEntity
  8
0
370
    -3
  6
Continuous
100
AcDbLine
 10
2.210849
 20
6.002979
 30
0.0
 11
2.237594
 21
6.002979
 31
0.0
  0
LINE
  5
3F1
100
AcDbEntity
  8
0
370
    -3
  6
Continuous
100
AcDbLine
 10
2.237594
 20
5.93955
 30
0.0
 11
2.210849
 21
5.93955
 31
0.0
  0
LINE
  5
3EE
100
AcDbEntity
  8
0
370
    -3
  6
Continuous
100
AcDbLine
 10
2.631798
 20
6.002979
 30
0.0
 11
2.859699
 21
6.002979
 31
0.0
  0
LWPOLYLINE
  5
3EA
100
AcDbEntity
  8
0
370
    -3
  6
Continuous
100
AcDbPolyline
 90
        2
 70
     0
 10
2.237594
 20
6.114967
 10
2.631798
 20
6.114967
  0
LWPOLYLINE
  5
3F3
100
AcDbEntity
  8
0
370
    -3
  6
Continuous
100
AcDbPolyline
 90
        2
 70
     0
 10
2.859699
 20
6.002979
 10
2.859699
 20
6.283068
  0
LINE
  5
3F6
100
AcDbEntity
  8
0
370
    -3
  6
Continuous
100
AcDbLine
 10
2.720639
 20
5.93955
 30
0.0
 11
2.631798
 21
5.93955
 31
0.0
  0
LINE
  5
3B6
100
AcDbEntity
  8
0
370
    -3
  6
Continuous
100
AcDbLine
 10
2.859699
 20
5.93955
 30
0.0
 11
2.789537
 21
5.93955
 31
0.0
  0
LINE
  5
3F8
100
AcDbEntity
  8
0
370
    -3
  6
Continuous
100
AcDbLine
 10
2.789537
 20
5.807481
 30
0.0
 11
2.789537
 21
5.93955
 31
0.0
  0
LINE
  5
2E9
100
AcDbEntity
  8
0
370
    -3
  6
Continuous
100
AcDbLine
 10
2.720639
 20
5.93955
 30
0.0
 11
2.720639
 21
5.807481
 31
0.0
  0
LWPOLYLINE
  5
3F7
100
AcDbEntity
  8
0
370
    -3
  6
Continuous
100
AcDbPolyline
 90
        4
 70
     0
 10
2.789537
 20
5.807481
 10
2.829689
 20
5.807481
 10
2.829689
 20
5.472367
 10
2.789537
 20
5.472367
  0
LWPOLYLINE
  5
3FC
100
AcDbEntity
  8
0
370
    -3
  6
Continuous
100
AcDbPolyline
 90
        4
 70
     0
 10
2.720639
 20
5.472367
 10
2.367031
 20
5.472367
 10
2.367031
 20
5.807481
 10
2.720639
 20
5.807481
  0
LWPOLYLINE
  5
3CE
100
AcDbEntity
  8
0
370
    -3
  6
Continuous
100
AcDbPolyline
 90
        2
 70
     0
 10
3.242329
 20
6.336554
 10
3.242329
 20
6.308451
  0
LWPOLYLINE
  5
3FE
100
AcDbEntity
  8
0
370
    -3
  6
Continuous
100
AcDbPolyline
 90
        2
 70
     0
 10
3.242329
 20
6.283068
 10
3.242329
 20
6.002979
  0
LINE
  5
401
100
AcDbEntity
  8
0
370
    -3
  6
Continuous
100
AcDbLine
 10
1.925183
 20
6.027503
 30
0.0
 11
2.012647
 21
6.114967
 31
0.0
  0
LINE
  5
402
100
AcDbEntity
  8
0
370
    -3
  6
Continuous
100
AcDbLine
 10
2.15243
 20
5.841483
 30
0.0
 11
2.210849
 21
5.899902
 31
0.0
  0
LINE
  5
403
100
AcDbEntity
  8
0
370
    -3
  6
Continuous
100
AcDbLine
 10
1.925183
 20
5.918418
 30
0.0
 11
2.002117
 21
5.841483
 31
0.0
  0
LINE
  5
404
100
AcDbEntity
  8
0
370
    -3
  6
Continuous
100
AcDbLine
 10
2.131068
 20
6.114967
 30
0.0
 11
2.210849
 21
6.035187
 31
0.0
  0
LINE
  5
407
100
AcDbEntity
  8
0
370
    -3
  6
Continuous
100
AcDbLine
 10
1.165755
 20
6.719113
 30
0.0
 11
1.165755
 21
6.630875
 31
0.0
  0
LWPOLYLINE
  5
411
100
AcDbEntity
  8
0
370
    -3
  6
Continuous
100
AcDbPolyline
 90
        2
 70
     0
 10
1.868974
 20
6.761185
 10
1.922299
 20
6.761185
  0
LWPOLYLINE
  5
415
100
AcDbEntity
  8
0
370
    -3
  6
Continuous
100
AcDbPolyline
 90
        2
 70
     0
 10
1.922299
 20
6.597127
 10
1.868974
 20
6.597127
  0
LINE
  5
416
100
AcDbEntity
  8
0
370
    -3
  6
Continuous
100
AcDbLine
 10
1.83398
 20
6.841111
 30
0.0
 11
1.868974
 21
6.761185
 31
0.0
  0
LINE
  5
417
100
AcDbEntity
  8
0
370
    -3
  6
Continuous
100
AcDbLine
 10
1.868974
 20
6.761185
 30
0.0
 11
1.922299
 21
6.761185
 31
0.0
  0
LINE
  5
418
100
AcDbEntity
  8
0
370
    -3
  6
Continuous
100
AcDbLine
 10
1.922299
 20
6.761185
 30
0.0
 11
1.957293
 21
6.841111
 31
0.0
  0
LINE
  5
419
100
AcDbEntity
  8
0
370
    -3
  6
Continuous
100
AcDbLine
 10
1.957293
 20
6.521407
 30
0.0
 11
1.922299
 21
6.597127
 31
0.0
  0
LINE
  5
41A
100
AcDbEntity
  8
0
370
    -3
  6
Continuous
100
AcDbLine
 10
1.868974
 20
6.597127
 30
0.0
 11
1.83398
 21
6.521407
 31
0.0
  0
LWPOLYLINE
  5
41B
100
AcDbEntity
  8
0
370
    -3
  6
Continuous
100
AcDbPolyline
 90
        2
 70
     0
 10
2.235616
 20
6.761185
 10
2.28894
 20
6.761185
  0
LWPOLYLINE
  5
41C
100
AcDbEntity
  8
0
370
    -3
  6
Continuous
100
AcDbPolyline
 90
        2
 70
     0
 10
2.28894
 20
6.597127
 10
2.235616
 20
6.597127
  0
LINE
  5
41D
100
AcDbEntity
  8
0
370
    -3
  6
Continuous
100
AcDbLine
 10
2.200621
 20
6.841111
 30
0.0
 11
2.235616
 21
6.761185
 31
0.0
  0
LINE
  5
41E
100
AcDbEntity
  8
0
370
    -3
  6
Continuous
100
AcDbLine
 10
2.235616
 20
6.761185
 30
0.0
 11
2.28894
 21
6.761185
 31
0.0
  0
LINE
  5
41F
100
AcDbEntity
  8
0
370
    -3
  6
Continuous
100
AcDbLine
 10
2.28894
 20
6.761185
 30
0.0
 11
2.323935
 21
6.841111
 31
0.0
  0
LINE
  5
420
100
AcDbEntity
  8
0
370
    -3
  6
Continuous
100
AcDbLine
 10
2.323935
 20
6.521407
 30
0.0
 11
2.28894
 21
6.597127
 31
0.0
  0
LINE
  5
421
100
AcDbEntity
  8
0
370
    -3
  6
Continuous
100
AcDbLine
 10
2.235616
 20
6.597127
 30
0.0
 11
2.200621
 21
6.521407
 31
0.0
  0
LINE
  5
426
100
AcDbEntity
  8
0
370
    -3
  6
Continuous
100
AcDbLine
 10
1.546933
 20
6.761185
 30
0.0
 11
1.581927
 21
6.841111
 31
0.0
  0
LINE
  5
427
100
AcDbEntity
  8
0
370
    -3
  6
Continuous
100
AcDbLine
 10
1.581927
 20
6.521407
 30
0.0
 11
1.546933
 21
6.597127
 31
0.0
  0
LINE
  5
42B
100
AcDbEntity
  8
0
370
    -3
  6
Continuous
100
AcDbLine
 10
2.569262
 20
6.841111
 30
0.0
 11
2.604256
 21
6.761185
 31
0.0
  0
LINE
  5
42F
100
AcDbEntity
  8
0
370
    -3
  6
Continuous
100
AcDbLine
 10
2.604256
 20
6.597127
 30
0.0
 11
2.569262
 21
6.521407
 31
0.0
  0
LWPOLYLINE
  5
431
100
AcDbEntity
  8
0
370
    -3
  6
Continuous
100
AcDbPolyline
 90
        3
 70
     0
 10
2.604256
 20
6.761185
 10
2.642733
 20
6.761185
 10
2.642733
 20
6.716422
  0
LWPOLYLINE
  5
3D3
100
AcDbEntity
  8
0
370
    -3
  6
Continuous
100
AcDbPolyline
 90
        3
 70
     0
 10
2.642733
 20
6.645998
 10
2.642733
 20
6.597127
 10
2.604256
 20
6.597127
  0
LWPOLYLINE
  5
412
100
AcDbEntity
  8
0
370
    -3
  6
Continuous
100
AcDbPolyline
 90
        2
 70
     0
 10
1.83398
 20
6.521407
 10
1.581927
 20
6.521407
  0
LWPOLYLINE
  5
433
100
AcDbEntity
  8
0
370
    -3
  6
Continuous
100
AcDbPolyline
 90
        2
 70
     0
 10
1.581927
 20
6.841111
 10
1.83398
 20
6.841111
  0
LWPOLYLINE
  5
434
100
AcDbEntity
  8
0
370
    -3
  6
Continuous
100
AcDbPolyline
 90
        2
 70
     0
 10
2.050578
 20
6.521407
 10
1.957293
 20
6.521407
  0
LWPOLYLINE
  5
438
100
AcDbEntity
  8
0
370
    -3
  6
Continuous
100
AcDbPolyline
 90
        2
 70
     0
 10
2.323935
 20
6.841111
 10
2.569262
 20
6.841111
  0
LWPOLYLINE
  5
430
100
AcDbEntity
  8
0
370
    -3
  6
Continuous
100
AcDbPolyline
 90
        2
 70
     0
 10
2.569262
 20
6.521407
 10
2.323935
 20
6.521407
  0
LWPOLYLINE
  5
439
100
AcDbEntity
  8
0
370
    -3
  6
Continuous
100
AcDbPolyline
 90
        2
 70
     0
 10
2.200621
 20
6.521407
 10
2.108792
 20
6.521407
  0
LINE
  5
2D5
100
AcDbEntity
  8
0
370
    -3
  6
Continuous
100
AcDbLine
 10
1.356291
 20
6.002979
 30
0.0
 11
1.470921
 21
6.002979
 31
0.0
  0
LINE
  5
43C
100
AcDbEntity
  8
0
370
    -3
  6
Continuous
100
AcDbLine
 10
1.905635
 20
6.002979
 30
0.0
 11
1.925183
 21
6.002979
 31
0.0
  0
LINE
  5
3F0
100
AcDbEntity
  8
0
370
    -3
  6
Continuous
100
AcDbLine
 10
1.925183
 20
5.93955
 30
0.0
 11
1.905635
 21
5.93955
 31
0.0
  0
LINE
  5
43D
100
AcDbEntity
  8
0
370
    -3
  6
Continuous
100
AcDbLine
 10
1.470921
 20
5.93955
 30
0.0
 11
1.356291
 21
5.93955
 31
0.0
  0
LINE
  5
406
100
AcDbEntity
  8
0
370
    -3
  6
Continuous
100
AcDbLine
 10
1.905635
 20
6.114967
 30
0.0
 11
1.905635
 21
6.002979
 31
0.0
  0
LINE
  5
43E
100
AcDbEntity
  8
0
370
    -3
  6
Continuous
100
AcDbLine
 10
1.905635
 20
5.93955
 30
0.0
 11
1.905635
 21
5.841483
 31
0.0
  0
LINE
  5
2F6
100
AcDbEntity
  8
0
370
    -3
  6
Continuous
100
AcDbLine
 10
1.925183
 20
6.147993
 30
0.0
 11
2.050578
 21
6.147993
 31
0.0
  0
LINE
  5
440
100
AcDbEntity
  8
0
370
    -3
  6
Continuous
100
AcDbLine
 10
2.108792
 20
6.147993
 30
0.0
 11
2.210849
 21
6.147993
 31
0.0
  0
LWPOLYLINE
  5
441
100
AcDbEntity
  8
0
370
    -3
  6
Continuous
100
AcDbPolyline
 90
        3
 70
     0
 10
1.925183
 20
6.147993
 10
1.925183
 20
6.485793
 10
2.050578
 20
6.485793
  0
LWPOLYLINE
  5
3EB
100
AcDbEntity
  8
0
370
    -3
  6
Continuous
100
AcDbPolyline
 90
        2
 70
     0
 10
2.210849
 20
5.93955
 10
2.210849
 20
5.899902
  0
LWPOLYLINE
  5
435
100
AcDbEntity
  8
0
370
    -3
  6
Continuous
100
AcDbPolyline
 90
        3
 70
     0
 10
2.108792
 20
6.485793
 10
2.210849
 20
6.485793
 10
2.210849
 20
6.147993
  0
LWPOLYLINE
  5
444
100
AcDbEntity
  8
0
370
    -3
  6
Continuous
100
AcDbPolyline
 90
        2
 70
     0
 10
2.210849
 20
6.035187
 10
2.210849
 20
6.002979
  0
LWPOLYLINE
  5
445
100
AcDbEntity
  8
0
370
    -3
  6
Continuous
100
AcDbPolyline
 90
        2
 70
     0
 10
2.108792
 20
6.114967
 10
2.131068
 20
6.114967
  0
LWPOLYLINE
  5
43B
100
AcDbEntity
  8
0
370
    -3
  6
Continuous
100
AcDbPolyline
 90
        3
 70
     0
 10
1.470921
 20
6.002979
 10
1.470921
 20
6.114967
 10
1.905635
 20
6.114967
  0
LWPOLYLINE
  5
446
100
AcDbEntity
  8
0
370
    -3
  6
Continuous
100
AcDbPolyline
 90
        2
 70
     0
 10
2.012647
 20
6.114967
 10
2.050578
 20
6.114967
  0
LWPOLYLINE
  5
447
100
AcDbEntity
  8
0
370
    -3
  6
Continuous
100
AcDbPolyline
 90
        3
 70
     0
 10
1.905635
 20
5.841483
 10
1.470921
 20
5.841483
 10
1.470921
 20
5.93955
  0
LWPOLYLINE
  5
448
100
AcDbEntity
  8
0
370
    -3
  6
Continuous
100
AcDbPolyline
 90
        2
 70
     0
 10
2.050578
 20
5.841483
 10
2.002117
 20
5.841483
  0
LWPOLYLINE
  5
3F4
100
AcDbEntity
  8
0
370
    -3
  6
Continuous
100
AcDbPolyline
 90
        2
 70
     0
 10
2.631798
 20
5.841483
 10
2.237594
 20
5.841483
  0
LWPOLYLINE
  5
449
100
AcDbEntity
  8
0
370
    -3
  6
Continuous
100
AcDbPolyline
 90
        2
 70
     0
 10
2.15243
 20
5.841483
 10
2.108792
 20
5.841483
  0
LWPOLYLINE
  5
442
100
AcDbEntity
  8
0
370
    -3
  6
Continuous
100
AcDbPolyline
 90
        2
 70
     0
 10
1.925183
 20
5.918418
 10
1.925183
 20
5.93955
  0
LWPOLYLINE
  5
44A
100
AcDbEntity
  8
0
370
    -3
  6
Continuous
100
AcDbPolyline
 90
        2
 70
     0
 10
1.925183
 20
6.002979
 10
1.925183
 20
6.027503
  0
LINE
  5
2F4
100
AcDbEntity
  8
0
370
    -3
  6
Continuous
100
AcDbLine
 10
2.210849
 20
5.807481
 30
0.0
 11
2.108792
 21
5.807481
 31
0.0
  0
LINE
  5
44B
100
AcDbEntity
  8
0
370
    -3
  6
Continuous
100
AcDbLine
 10
2.050578
 20
5.807481
 30
0.0
 11
1.925183
 21
5.807481
 31
0.0
  0
LINE
  5
436
100
AcDbEntity
  8
0
370
    -3
  6
Continuous
100
AcDbLine
 10
2.050578
 20
6.147993
 30
0.0
 11
2.050578
 21
6.114967
 31
0.0
  0
LINE
  5
437
100
AcDbEntity
  8
0
370
    -3
  6
Continuous
100
AcDbLine
 10
2.108792
 20
6.147993
 30
0.0
 11
2.108792
 21
6.114967
 31
0.0
  0
LINE
  5
44C
100
AcDbEntity
  8
0
370
    -3
  6
Continuous
100
AcDbLine
 10
2.050578
 20
5.841483
 30
0.0
 11
2.050578
 21
5.807481
 31
0.0
  0
LINE
  5
44E
100
AcDbEntity
  8
0
370
    -3
  6
Continuous
100
AcDbLine
 10
2.050578
 20
5.472367
 30
0.0
 11
2.050578
 21
5.456914
 31
0.0
  0
LINE
  5
44D
100
AcDbEntity
  8
0
370
    -3
  6
Continuous
100
AcDbLine
 10
2.108792
 20
5.841483
 30
0.0
 11
2.108792
 21
5.807481
 31
0.0
  0
LINE
  5
44F
100
AcDbEntity
  8
0
370
    -3
  6
Continuous
100
AcDbLine
 10
2.108792
 20
5.472367
 30
0.0
 11
2.108792
 21
5.456914
 31
0.0
  0
LWPOLYLINE
  5
43A
100
AcDbEntity
  8
0
370
    -3
  6
Continuous
100
AcDbPolyline
 90
        3
 70
     0
 10
1.356291
 20
5.93955
 10
1.356291
 20
5.524291
 10
1.214617
 20
5.524291
  0
LINE
  5
253
100
AcDbEntity
  8
0
370
    -3
  6
Continuous
100
AcDbLine
 10
1.453427
 20
5.496596
 30
0.0
 11
1.214617
 21
5.496596
 31
0.0
  0
LINE
  5
451
100
AcDbEntity
  8
0
370
    -3
  6
Continuous
100
AcDbLine
 10
1.146231
 20
5.496596
 30
0.0
 11
0.897346
 21
5.496596
 31
0.0
  0
LINE
  5
30D
100
AcDbEntity
  8
0
370
    -3
  6
Continuous
100
AcDbLine
 10
1.214617
 20
5.496596
 30
0.0
 11
1.214617
 21
5.524291
 31
0.0
  0
LINE
  5
452
100
AcDbEntity
  8
0
370
    -3
  6
Continuous
100
AcDbLine
 10
1.214617
 20
6.41633
 30
0.0
 11
1.214617
 21
6.560417
 31
0.0
  0
LINE
  5
30C
100
AcDbEntity
  8
0
370
    -3
  6
Continuous
100
AcDbLine
 10
1.146231
 20
6.529223
 30
0.0
 11
1.146231
 21
6.41633
 31
0.0
  0
LINE
  5
453
100
AcDbEntity
  8
0
370
    -3
  6
Continuous
100
AcDbLine
 10
1.146231
 20
5.524291
 30
0.0
 11
1.146231
 21
5.496596
 31
0.0
  0
LINE
  5
454
100
AcDbEntity
  8
0
370
    -3
  6
Continuous
100
AcDbLine
 10
2.050578
 20
5.472367
 30
0.0
 11
1.925183
 21
5.472367
 31
0.0
  0
LWPOLYLINE
  5
276
100
AcDbEntity
  8
0
370
    -3
  6
Continuous
100
AcDbPolyline
 90
        3
 70
     0
 10
1.947722
 20
5.235733
 10
1.947722
 20
5.456914
 10
2.050578
 20
5.456914
  0
LWPOLYLINE
  5
443
100
AcDbEntity
  8
0
370
    -3
  6
Continuous
100
AcDbPolyline
 90
        2
 70
     0
 10
2.210849
 20
5.807481
 10
2.210849
 20
5.472367
  0
LWPOLYLINE
  5
458
100
AcDbEntity
  8
0
370
    -3
  6
Continuous
100
AcDbPolyline
 90
        2
 70
     0
 10
2.210849
 20
5.456914
 10
2.210849
 20
5.235733
  0
LWPOLYLINE
  5
457
100
AcDbEntity
  8
0
370
    -3
  6
Continuous
100
AcDbPolyline
 90
        2
 70
     0
 10
2.210849
 20
5.456914
 10
2.108792
 20
5.456914
  0
LINE
  5
2F5
100
AcDbEntity
  8
0
370
    -3
  6
Continuous
100
AcDbLine
 10
2.210849
 20
5.472367
 30
0.0
 11
2.108792
 21
5.472367
 31
0.0
  0
LWPOLYLINE
  5
456
100
AcDbEntity
  8
0
370
    -3
  6
Continuous
100
AcDbPolyline
 90
        2
 70
     0
 10
1.925183
 20
5.472367
 10
1.925183
 20
5.807481
  0
LINE
  5
2B2
100
AcDbEntity
  8
0
370
    -3
  6
Continuous
100
AcDbLine
 10
0.65117
 20
7.52656
 30
0.0
 11
0.65117
 21
7.303872
 31
0.0
  0
LINE
  5
45F
100
AcDbEntity
  8
0
370
    -3
  6
Continuous
100
AcDbLine
 10
0.65117
 20
7.259111
 30
0.0
 11
0.65117
 21
7.035306
 31
0.0
  0
LINE
  5
460
100
AcDbEntity
  8
0
370
    -3
  6
Continuous
100
AcDbLine
 10
1.93462
 20
7.572438
 30
0.0
 11
1.93462
 21
7.781322
 31
0.0
  0
LWPOLYLINE
  5
45E
100
AcDbEntity
  8
0
370
    -3
  6
Continuous
100
AcDbPolyline
 90
        3
 70
     0
 10
0.65117
 20
7.572438
 10
0.65117
 20
7.781322
 10
1.139783
 20
7.781322
  0
LWPOLYLINE
  5
461
100
AcDbEntity
  8
0
370
    -3
  6
Continuous
100
AcDbPolyline
 90
        2
 70
     0
 10
1.175679
 20
7.781322
 10
1.415837
 20
7.781322
  0
LWPOLYLINE
  5
462
100
AcDbEntity
  8
0
370
    -3
  6
Continuous
100
AcDbPolyline
 90
        2
 70
     0
 10
1.450026
 20
7.781322
 10
1.93462
 20
7.781322
  0
LINE
  5
2CC
100
AcDbEntity
  8
0
370
    -3
  6
Continuous
100
AcDbLine
 10
1.139783
 20
7.781322
 30
0.0
 11
1.139783
 21
7.705807
 31
0.0
  0
LINE
  5
465
100
AcDbEntity
  8
0
370
    -3
  6
Continuous
100
AcDbLine
 10
1.175679
 20
7.705807
 30
0.0
 11
1.175679
 21
7.781322
 31
0.0
  0
LINE
  5
466
100
AcDbEntity
  8
0
370
    -3
  6
Continuous
100
AcDbLine
 10
1.415837
 20
7.705807
 30
0.0
 11
1.415837
 21
7.781322
 31
0.0
  0
LINE
  5
467
100
AcDbEntity
  8
0
370
    -3
  6
Continuous
100
AcDbLine
 10
1.450026
 20
7.705807
 30
0.0
 11
1.450026
 21
7.781322
 31
0.0
  0
LINE
  5
2CB
100
AcDbEntity
  8
0
370
    -3
  6
Continuous
100
AcDbLine
 10
1.139783
 20
7.641708
 30
0.0
 11
1.175679
 21
7.641708
 31
0.0
  0
LINE
  5
468
100
AcDbEntity
  8
0
370
    -3
  6
Continuous
100
AcDbLine
 10
1.415837
 20
7.641708
 30
0.0
 11
1.450026
 21
7.641708
 31
0.0
  0
LINE
  5
2CA
100
AcDbEntity
  8
0
370
    -3
  6
Continuous
100
AcDbLine
 10
1.450026
 20
7.705807
 30
0.0
 11
1.415837
 21
7.705807
 31
0.0
  0
LINE
  5
469
100
AcDbEntity
  8
0
370
    -3
  6
Continuous
100
AcDbLine
 10
1.175679
 20
7.705807
 30
0.0
 11
1.139783
 21
7.705807
 31
0.0
  0
LINE
  5
464
100
AcDbEntity
  8
0
370
    -3
  6
Continuous
100
AcDbLine
 10
1.139783
 20
7.641708
 30
0.0
 11
1.139783
 21
7.572438
 31
0.0
  0
LINE
  5
470
100
AcDbEntity
  8
0
370
    -3
  6
Continuous
100
AcDbLine
 10
1.450026
 20
7.572438
 30
0.0
 11
1.450026
 21
7.641708
 31
0.0
  0
LWPOLYLINE
  5
45D
100
AcDbEntity
  8
0
370
    -3
  6
Continuous
100
AcDbPolyline
 90
        2
 70
     0
 10
1.93462
 20
7.572438
 10
1.852572
 20
7.572438
  0
LWPOLYLINE
  5
472
100
AcDbEntity
  8
0
370
    -3
  6
Continuous
100
AcDbPolyline
 90
        2
 70
     0
 10
1.798728
 20
7.572438
 10
1.450026
 20
7.572438
  0
LINE
  5
471
100
AcDbEntity
  8
0
370
    -3
  6
Continuous
100
AcDbLine
 10
1.450026
 20
7.52656
 30
0.0
 11
1.798728
 21
7.52656
 31
0.0
  0
LINE
  5
473
100
AcDbEntity
  8
0
370
    -3
  6
Continuous
100
AcDbLine
 10
1.852572
 20
7.52656
 30
0.0
 11
1.93462
 21
7.52656
 31
0.0
  0
LINE
  5
2CF
100
AcDbEntity
  8
0
370
    -3
  6
Continuous
100
AcDbLine
 10
1.798728
 20
7.572438
 30
0.0
 11
1.798728
 21
7.52656
 31
0.0
  0
LINE
  5
474
100
AcDbEntity
  8
0
370
    -3
  6
Continuous
100
AcDbLine
 10
1.798728
 20
7.303872
 30
0.0
 11
1.798728
 21
7.259111
 31
0.0
  0
LINE
  5
2D0
100
AcDbEntity
  8
0
370
    -3
  6
Continuous
100
AcDbLine
 10
1.852572
 20
7.259111
 30
0.0
 11
1.852572
 21
7.303872
 31
0.0
  0
LINE
  5
475
100
AcDbEntity
  8
0
370
    -3
  6
Continuous
100
AcDbLine
 10
1.852572
 20
7.52656
 30
0.0
 11
1.852572
 21
7.572438
 31
0.0
  0
LINE
  5
476
100
AcDbEntity
  8
0
370
    -3
  6
Continuous
100
AcDbLine
 10
1.450026
 20
7.303872
 30
0.0
 11
1.450026
 21
7.52656
 31
0.0
  0
LINE
  5
2C6
100
AcDbEntity
  8
0
370
    -3
  6
Continuous
100
AcDbLine
 10
1.415837
 20
7.035306
 30
0.0
 11
1.415837
 21
7.118654
 31
0.0
  0
LINE
  5
477
100
AcDbEntity
  8
0
370
    -3
  6
Continuous
100
AcDbLine
 10
1.415837
 20
7.169933
 30
0.0
 11
1.415837
 21
7.641708
 31
0.0
  0
LINE
  5
2C4
100
AcDbEntity
  8
0
370
    -3
  6
Continuous
100
AcDbLine
 10
1.175679
 20
7.035306
 30
0.0
 11
1.175679
 21
7.118654
 31
0.0
  0
LINE
  5
47C
100
AcDbEntity
  8
0
370
    -3
  6
Continuous
100
AcDbLine
 10
1.175679
 20
7.169933
 30
0.0
 11
1.175679
 21
7.641708
 31
0.0
  0
LINE
  5
46C
100
AcDbEntity
  8
0
370
    -3
  6
Continuous
100
AcDbLine
 10
1.139783
 20
7.52656
 30
0.0
 11
1.139783
 21
7.303872
 31
0.0
  0
LINE
  5
2B3
100
AcDbEntity
  8
0
370
    -3
  6
Continuous
100
AcDbLine
 10
0.65117
 20
7.035306
 30
0.0
 11
1.139783
 21
7.035306
 31
0.0
  0
LWPOLYLINE
  5
46A
100
AcDbEntity
  8
0
370
    -3
  6
Continuous
100
AcDbPolyline
 90
        2
 70
     0
 10
1.139783
 20
7.572438
 10
0.788516
 20
7.572438
  0
LWPOLYLINE
  5
47F
100
AcDbEntity
  8
0
370
    -3
  6
Continuous
100
AcDbPolyline
 90
        2
 70
     0
 10
0.729544
 20
7.572438
 10
0.65117
 20
7.572438
  0
LINE
  5
459
100
AcDbEntity
  8
0
370
    -3
  6
Continuous
100
AcDbLine
 10
0.65117
 20
7.52656
 30
0.0
 11
0.729544
 21
7.52656
 31
0.0
  0
LINE
  5
480
100
AcDbEntity
  8
0
370
    -3
  6
Continuous
100
AcDbLine
 10
0.788516
 20
7.52656
 30
0.0
 11
1.139783
 21
7.52656
 31
0.0
  0
LINE
  5
2B6
100
AcDbEntity
  8
0
370
    -3
  6
Continuous
100
AcDbLine
 10
0.65117
 20
7.303872
 30
0.0
 11
0.729544
 21
7.303872
 31
0.0
  0
LINE
  5
481
100
AcDbEntity
  8
0
370
    -3
  6
Continuous
100
AcDbLine
 10
0.788516
 20
7.303872
 30
0.0
 11
1.139783
 21
7.303872
 31
0.0
  0
LINE
  5
47B
100
AcDbEntity
  8
0
370
    -3
  6
Continuous
100
AcDbLine
 10
1.139783
 20
7.259111
 30
0.0
 11
0.788516
 21
7.259111
 31
0.0
  0
LINE
  5
482
100
AcDbEntity
  8
0
370
    -3
  6
Continuous
100
AcDbLine
 10
0.729544
 20
7.259111
 30
0.0
 11
0.65117
 21
7.259111
 31
0.0
  0
LINE
  5
2C8
100
AcDbEntity
  8
0
370
    -3
  6
Continuous
100
AcDbLine
 10
0.729544
 20
7.572438
 30
0.0
 11
0.729544
 21
7.52656
 31
0.0
  0
LINE
  5
483
100
AcDbEntity
  8
0
370
    -3
  6
Continuous
100
AcDbLine
 10
0.729544
 20
7.303872
 30
0.0
 11
0.729544
 21
7.259111
 31
0.0
  0
LINE
  5
2C9
100
AcDbEntity
  8
0
370
    -3
  6
Continuous
100
AcDbLine
 10
0.788516
 20
7.259111
 30
0.0
 11
0.788516
 21
7.303872
 31
0.0
  0
LINE
  5
484
100
AcDbEntity
  8
0
370
    -3
  6
Continuous
100
AcDbLine
 10
0.788516
 20
7.52656
 30
0.0
 11
0.788516
 21
7.572438
 31
0.0
  0
LINE
  5
2CD
100
AcDbEntity
  8
0
370
    -3
  6
Continuous
100
AcDbLine
 10
1.139783
 20
7.169933
 30
0.0
 11
1.175679
 21
7.169933
 31
0.0
  0
LINE
  5
486
100
AcDbEntity
  8
0
370
    -3
  6
Continuous
100
AcDbLine
 10
1.175679
 20
7.118654
 30
0.0
 11
1.139783
 21
7.118654
 31
0.0
  0
LINE
  5
47D
100
AcDbEntity
  8
0
370
    -3
  6
Continuous
100
AcDbLine
 10
1.139783
 20
7.259111
 30
0.0
 11
1.139783
 21
7.169933
 31
0.0
  0
LINE
  5
487
100
AcDbEntity
  8
0
370
    -3
  6
Continuous
100
AcDbLine
 10
1.139783
 20
7.118654
 30
0.0
 11
1.139783
 21
7.035306
 31
0.0
  0
LINE
  5
479
100
AcDbEntity
  8
0
370
    -3
  6
Continuous
100
AcDbLine
 10
1.450026
 20
7.303872
 30
0.0
 11
1.798728
 21
7.303872
 31
0.0
  0
LINE
  5
488
100
AcDbEntity
  8
0
370
    -3
  6
Continuous
100
AcDbLine
 10
1.852572
 20
7.303872
 30
0.0
 11
1.93462
 21
7.303872
 31
0.0
  0
LINE
  5
489
100
AcDbEntity
  8
0
370
    -3
  6
Continuous
100
AcDbLine
 10
1.798728
 20
7.259111
 30
0.0
 11
1.450026
 21
7.259111
 31
0.0
  0
LINE
  5
2B5
100
AcDbEntity
  8
0
370
    -3
  6
Continuous
100
AcDbLine
 10
2.180503
 20
7.259111
 30
0.0
 11
1.978208
 21
7.259111
 31
0.0
  0
LINE
  5
48A
100
AcDbEntity
  8
0
370
    -3
  6
Continuous
100
AcDbLine
 10
1.93462
 20
7.259111
 30
0.0
 11
1.852572
 21
7.259111
 31
0.0
  0
LINE
  5
2B8
100
AcDbEntity
  8
0
370
    -3
  6
Continuous
100
AcDbLine
 10
1.978208
 20
7.259111
 30
0.0
 11
1.978208
 21
7.169933
 31
0.0
  0
LINE
  5
48B
100
AcDbEntity
  8
0
370
    -3
  6
Continuous
100
AcDbLine
 10
1.978208
 20
7.118654
 30
0.0
 11
1.978208
 21
7.035306
 31
0.0
  0
LINE
  5
2B7
100
AcDbEntity
  8
0
370
    -3
  6
Continuous
100
AcDbLine
 10
1.93462
 20
7.035306
 30
0.0
 11
1.93462
 21
7.118654
 31
0.0
  0
LINE
  5
485
100
AcDbEntity
  8
0
370
    -3
  6
Continuous
100
AcDbLine
 10
1.415837
 20
7.169933
 30
0.0
 11
1.450026
 21
7.169933
 31
0.0
  0
LINE
  5
48D
100
AcDbEntity
  8
0
370
    -3
  6
Continuous
100
AcDbLine
 10
1.93462
 20
7.169933
 30
0.0
 11
1.978208
 21
7.169933
 31
0.0
  0
LINE
  5
2CE
100
AcDbEntity
  8
0
370
    -3
  6
Continuous
100
AcDbLine
 10
1.978208
 20
7.118654
 30
0.0
 11
1.93462
 21
7.118654
 31
0.0
  0
LINE
  5
48E
100
AcDbEntity
  8
0
370
    -3
  6
Continuous
100
AcDbLine
 10
1.450026
 20
7.118654
 30
0.0
 11
1.415837
 21
7.118654
 31
0.0
  0
LINE
  5
2C7
100
AcDbEntity
  8
0
370
    -3
  6
Continuous
100
AcDbLine
 10
1.450026
 20
7.035306
 30
0.0
 11
1.450026
 21
7.118654
 31
0.0
  0
LINE
  5
48F
100
AcDbEntity
  8
0
370
    -3
  6
Continuous
100
AcDbLine
 10
1.450026
 20
7.169933
 30
0.0
 11
1.450026
 21
7.259111
 31
0.0
  0
LINE
  5
48C
100
AcDbEntity
  8
0
370
    -3
  6
Continuous
100
AcDbLine
 10
1.93462
 20
7.169933
 30
0.0
 11
1.93462
 21
7.259111
 31
0.0
  0
LINE
  5
490
100
AcDbEntity
  8
0
370
    -3
  6
Continuous
100
AcDbLine
 10
1.93462
 20
7.303872
 30
0.0
 11
1.93462
 21
7.52656
 31
0.0
  0
LINE
  5
491
100
AcDbEntity
  8
0
370
    -3
  6
Continuous
100
AcDbLine
 10
1.450026
 20
7.035306
 30
0.0
 11
1.93462
 21
7.035306
 31
0.0
  0
LINE
  5
2B9
100
AcDbEntity
  8
0
370
    -3
  6
Continuous
100
AcDbLine
 10
1.447462
 20
7.01353
 30
0.0
 11
1.685913
 21
7.01353
 31
0.0
  0
LINE
  5
494
100
AcDbEntity
  8
0
370
    -3
  6
Continuous
100
AcDbLine
 10
1.708989
 20
7.01353
 30
0.0
 11
1.950004
 21
7.01353
 31
0.0
  0
LINE
  5
2C0
100
AcDbEntity
  8
0
370
    -3
  6
Continuous
100
AcDbLine
 10
1.685913
 20
6.869946
 30
0.0
 11
1.685913
 21
6.921226
 31
0.0
  0
LINE
  5
496
100
AcDbEntity
  8
0
370
    -3
  6
Continuous
100
AcDbLine
 10
1.685913
 20
6.967378
 30
0.0
 11
1.685913
 21
7.01353
 31
0.0
  0
LINE
  5
2C1
100
AcDbEntity
  8
0
370
    -3
  6
Continuous
100
AcDbLine
 10
1.708989
 20
6.869946
 30
0.0
 11
1.708989
 21
6.921226
 31
0.0
  0
LINE
  5
497
100
AcDbEntity
  8
0
370
    -3
  6
Continuous
100
AcDbLine
 10
1.708989
 20
6.967378
 30
0.0
 11
1.708989
 21
7.01353
 31
0.0
  0
LINE
  5
2C2
100
AcDbEntity
  8
0
370
    -3
  6
Continuous
100
AcDbLine
 10
1.950004
 20
6.869946
 30
0.0
 11
1.950004
 21
6.921226
 31
0.0
  0
LINE
  5
498
100
AcDbEntity
  8
0
370
    -3
  6
Continuous
100
AcDbLine
 10
1.950004
 20
6.967378
 30
0.0
 11
1.950004
 21
7.01353
 31
0.0
  0
LINE
  5
2C3
100
AcDbEntity
  8
0
370
    -3
  6
Continuous
100
AcDbLine
 10
1.978208
 20
6.869946
 30
0.0
 11
1.978208
 21
6.921226
 31
0.0
  0
LINE
  5
499
100
AcDbEntity
  8
0
370
    -3
  6
Continuous
100
AcDbLine
 10
1.978208
 20
6.967378
 30
0.0
 11
1.978208
 21
7.01353
 31
0.0
  0
LINE
  5
49A
100
AcDbEntity
  8
0
370
    -3
  6
Continuous
100
AcDbLine
 10
1.950004
 20
6.869946
 30
0.0
 11
1.708989
 21
6.869946
 31
0.0
  0
LINE
  5
49B
100
AcDbEntity
  8
0
370
    -3
  6
Continuous
100
AcDbLine
 10
1.685913
 20
6.869946
 30
0.0
 11
1.447462
 21
6.869946
 31
0.0
  0
LINE
  5
2BF
100
AcDbEntity
  8
0
370
    -3
  6
Continuous
100
AcDbLine
 10
1.978208
 20
6.921226
 30
0.0
 11
1.950004
 21
6.921226
 31
0.0
  0
LINE
  5
2BE
100
AcDbEntity
  8
0
370
    -3
  6
Continuous
100
AcDbLine
 10
1.978208
 20
6.967378
 30
0.0
 11
1.950004
 21
6.967378
 31
0.0
  0
LINE
  5
49D
100
AcDbEntity
  8
0
370
    -3
  6
Continuous
100
AcDbLine
 10
1.708989
 20
6.967378
 30
0.0
 11
1.685913
 21
6.967378
 31
0.0
  0
LINE
  5
49E
100
AcDbEntity
  8
0
370
    -3
  6
Continuous
100
AcDbLine
 10
1.447462
 20
6.967378
 30
0.0
 11
1.3591
 21
6.967378
 31
0.0
  0
LINE
  5
49C
100
AcDbEntity
  8
0
370
    -3
  6
Continuous
100
AcDbLine
 10
1.708989
 20
6.921226
 30
0.0
 11
1.685913
 21
6.921226
 31
0.0
  0
LINE
  5
49F
100
AcDbEntity
  8
0
370
    -3
  6
Continuous
100
AcDbLine
 10
1.447462
 20
6.921226
 30
0.0
 11
1.3591
 21
6.921226
 31
0.0
  0
LINE
  5
492
100
AcDbEntity
  8
0
370
    -3
  6
Continuous
100
AcDbLine
 10
1.978208
 20
7.035306
 30
0.0
 11
2.050578
 21
7.035306
 31
0.0
  0
LINE
  5
4A0
100
AcDbEntity
  8
0
370
    -3
  6
Continuous
100
AcDbLine
 10
2.108792
 20
7.035306
 30
0.0
 11
2.180503
 21
7.035306
 31
0.0
  0
LINE
  5
493
100
AcDbEntity
  8
0
370
    -3
  6
Continuous
100
AcDbLine
 10
1.978208
 20
7.01353
 30
0.0
 11
2.050578
 21
7.01353
 31
0.0
  0
LINE
  5
4A1
100
AcDbEntity
  8
0
370
    -3
  6
Continuous
100
AcDbLine
 10
2.108792
 20
7.01353
 30
0.0
 11
2.178199
 21
7.01353
 31
0.0
  0
LINE
  5
3FF
100
AcDbEntity
  8
0
370
    -3
  6
Continuous
100
AcDbLine
 10
2.050578
 20
7.035306
 30
0.0
 11
2.050578
 21
7.01353
 31
0.0
  0
LINE
  5
400
100
AcDbEntity
  8
0
370
    -3
  6
Continuous
100
AcDbLine
 10
2.108792
 20
7.035306
 30
0.0
 11
2.108792
 21
7.01353
 31
0.0
  0
LINE
  5
2BB
100
AcDbEntity
  8
0
370
    -3
  6
Continuous
100
AcDbLine
 10
2.178199
 20
6.869946
 30
0.0
 11
2.108792
 21
6.869946
 31
0.0
  0
LINE
  5
4A4
100
AcDbEntity
  8
0
370
    -3
  6
Continuous
100
AcDbLine
 10
2.050578
 20
6.869946
 30
0.0
 11
1.978208
 21
6.869946
 31
0.0
  0
LWPOLYLINE
  5
410
100
AcDbEntity
  8
0
370
    -3
  6
Continuous
100
AcDbPolyline
 90
        2
 70
     0
 10
1.957293
 20
6.841111
 10
2.050578
 20
6.841111
  0
LWPOLYLINE
  5
4A5
100
AcDbEntity
  8
0
370
    -3
  6
Continuous
100
AcDbPolyline
 90
        2
 70
     0
 10
2.108792
 20
6.841111
 10
2.200621
 20
6.841111
  0
LINE
  5
2AF
100
AcDbEntity
  8
0
370
    -3
  6
Continuous
100
AcDbLine
 10
1.42334
 20
6.716422
 30
0.0
 11
1.506941
 21
6.716422
 31
0.0
  0
LINE
  5
4A2
100
AcDbEntity
  8
0
370
    -3
  6
Continuous
100
AcDbLine
 10
2.050578
 20
6.869946
 30
0.0
 11
2.050578
 21
6.841111
 31
0.0
  0
LINE
  5
4A7
100
AcDbEntity
  8
0
370
    -3
  6
Continuous
100
AcDbLine
 10
2.050578
 20
6.521407
 30
0.0
 11
2.050578
 21
6.485793
 31
0.0
  0
LINE
  5
4A3
100
AcDbEntity
  8
0
370
    -3
  6
Continuous
100
AcDbLine
 10
2.108792
 20
6.869946
 30
0.0
 11
2.108792
 21
6.841111
 31
0.0
  0
LINE
  5
4A8
100
AcDbEntity
  8
0
370
    -3
  6
Continuous
100
AcDbLine
 10
2.108792
 20
6.521407
 30
0.0
 11
2.108792
 21
6.485793
 31
0.0
  0
LINE
  5
2BD
100
AcDbEntity
  8
0
370
    -3
  6
Continuous
100
AcDbLine
 10
1.447462
 20
6.869946
 30
0.0
 11
1.447462
 21
6.921226
 31
0.0
  0
LINE
  5
4B1
100
AcDbEntity
  8
0
370
    -3
  6
Continuous
100
AcDbLine
 10
1.447462
 20
6.967378
 30
0.0
 11
1.447462
 21
7.01353
 31
0.0
  0
LWPOLYLINE
  5
4B2
100
AcDbEntity
  8
0
370
    -3
  6
Continuous
100
AcDbPolyline
 90
        3
 70
     0
 10
1.335907
 20
7.00008
 10
1.3591
 20
7.00008
 10
1.3591
 20
6.967378
  0
LINE
  5
47E
100
AcDbEntity
  8
0
370
    -3
  6
Continuous
100
AcDbLine
 10
1.175679
 20
7.035306
 30
0.0
 11
1.266328
 21
7.035306
 31
0.0
  0
LINE
  5
4B3
100
AcDbEntity
  8
0
370
    -3
  6
Continuous
100
AcDbLine
 10
1.335907
 20
7.035306
 30
0.0
 11
1.415837
 21
7.035306
 31
0.0
  0
LWPOLYLINE
  5
4B0
100
AcDbEntity
  8
0
370
    -3
  6
Continuous
100
AcDbPolyline
 90
        3
 70
     0
 10
1.3591
 20
6.921226
 10
1.3591
 20
6.884115
 10
1.335907
 20
6.884115
  0
LWPOLYLINE
  5
4B4
100
AcDbEntity
  8
0
370
    -3
  6
Continuous
100
AcDbPolyline
 90
        4
 70
     0
 10
1.266328
 20
6.884115
 10
1.229219
 20
6.884115
 10
1.229219
 20
7.00008
 10
1.266328
 20
7.00008
  0
LINE
  5
45A
100
AcDbEntity
  8
0
370
    -3
  6
Continuous
100
AcDbLine
 10
1.266328
 20
7.035306
 30
0.0
 11
1.266328
 21
7.00008
 31
0.0
  0
LINE
  5
4B5
100
AcDbEntity
  8
0
370
    -3
  6
Continuous
100
AcDbLine
 10
1.266328
 20
6.884115
 30
0.0
 11
1.266328
 21
6.819686
 31
0.0
  0
LINE
  5
45B
100
AcDbEntity
  8
0
370
    -3
  6
Continuous
100
AcDbLine
 10
1.335907
 20
7.035306
 30
0.0
 11
1.335907
 21
7.00008
 31
0.0
  0
LINE
  5
4B6
100
AcDbEntity
  8
0
370
    -3
  6
Continuous
100
AcDbLine
 10
1.335907
 20
6.884115
 30
0.0
 11
1.335907
 21
6.803855
 31
0.0
  0
LINE
  5
4B7
100
AcDbEntity
  8
0
370
    -3
  6
Continuous
100
AcDbLine
 10
1.212377
 20
6.786131
 30
0.0
 11
1.222575
 21
6.775933
 31
0.0
  0
LINE
  5
4B8
100
AcDbEntity
  8
0
370
    -3
  6
Continuous
100
AcDbLine
 10
1.176703
 20
6.750457
 30
0.0
 11
1.186901
 21
6.740259
 31
0.0
  0
LINE
  5
4B9
100
AcDbEntity
  8
0
370
    -3
  6
Continuous
100
AcDbLine
 10
1.211171
 20
6.563864
 30
0.0
 11
1.221968
 21
6.574661
 31
0.0
  0
LINE
  5
4BA
100
AcDbEntity
  8
0
370
    -3
  6
Continuous
100
AcDbLine
 10
1.176217
 20
6.598817
 30
0.0
 11
1.187015
 21
6.609615
 31
0.0
  0
LWPOLYLINE
  5
413
100
AcDbEntity
  8
0
370
    -3
  6
Continuous
100
AcDbPolyline
 90
        3
 70
     0
 10
1.546933
 20
6.597127
 10
1.506941
 20
6.597127
 10
1.506941
 20
6.645998
  0
LWPOLYLINE
  5
4BB
100
AcDbEntity
  8
0
370
    -3
  6
Continuous
100
AcDbPolyline
 90
        3
 70
     0
 10
1.506941
 20
6.716422
 10
1.506941
 20
6.761185
 10
1.546933
 20
6.761185
  0
LINE
  5
312
100
AcDbEntity
  8
0
370
    -3
  6
Continuous
100
AcDbLine
 10
1.159428
 20
6.615606
 30
0.0
 11
1.176217
 21
6.598817
 31
0.0
  0
LINE
  5
4BC
100
AcDbEntity
  8
0
370
    -3
  6
Continuous
100
AcDbLine
 10
1.211171
 20
6.563864
 30
0.0
 11
1.214617
 21
6.560417
 31
0.0
  0
LINE
  5
311
100
AcDbEntity
  8
0
370
    -3
  6
Continuous
100
AcDbLine
 10
1.165755
 20
6.630875
 30
0.0
 11
1.187015
 21
6.609615
 31
0.0
  0
LINE
  5
4BD
100
AcDbEntity
  8
0
370
    -3
  6
Continuous
100
AcDbLine
 10
1.221968
 20
6.574661
 30
0.0
 11
1.232614
 21
6.564016
 31
0.0
  0
LINE
  5
30F
100
AcDbEntity
  8
0
370
    -3
  6
Continuous
100
AcDbLine
 10
1.266328
 20
6.819686
 30
0.0
 11
1.222575
 21
6.775933
 31
0.0
  0
LINE
  5
4BE
100
AcDbEntity
  8
0
370
    -3
  6
Continuous
100
AcDbLine
 10
1.186901
 20
6.740259
 30
0.0
 11
1.165755
 21
6.719113
 31
0.0
  0
LINE
  5
310
100
AcDbEntity
  8
0
370
    -3
  6
Continuous
100
AcDbLine
 10
1.229015
 20
6.802769
 30
0.0
 11
1.212377
 21
6.786131
 31
0.0
  0
LINE
  5
4BF
100
AcDbEntity
  8
0
370
    -3
  6
Continuous
100
AcDbLine
 10
1.176703
 20
6.750457
 30
0.0
 11
1.159428
 21
6.733183
 31
0.0
  0
LINE
  5
314
100
AcDbEntity
  8
0
370
    -3
  6
Continuous
100
AcDbLine
 10
1.106639
 20
6.821965
 30
0.0
 11
1.106639
 21
6.807568
 31
0.0
  0
LINE
  5
4C0
100
AcDbEntity
  8
0
370
    -3
  6
Continuous
100
AcDbLine
 10
1.106639
 20
6.761977
 30
0.0
 11
1.106639
 21
6.733183
 31
0.0
  0
LINE
  5
308
100
AcDbEntity
  8
0
370
    -3
  6
Continuous
100
AcDbLine
 10
0.877484
 20
6.683992
 30
0.0
 11
0.954269
 21
6.683992
 31
0.0
  0
LINE
  5
4C2
100
AcDbEntity
  8
0
370
    -3
  6
Continuous
100
AcDbLine
 10
1.003459
 20
6.683992
 30
0.0
 11
1.071846
 21
6.683992
 31
0.0
  0
LINE
  5
309
100
AcDbEntity
  8
0
370
    -3
  6
Continuous
100
AcDbLine
 10
1.071846
 20
6.663596
 30
0.0
 11
1.003459
 21
6.663596
 31
0.0
  0
LINE
  5
4C3
100
AcDbEntity
  8
0
370
    -3
  6
Continuous
100
AcDbLine
 10
0.954269
 20
6.663596
 30
0.0
 11
0.877484
 21
6.663596
 31
0.0
  0
LWPOLYLINE
  5
4C4
100
AcDbEntity
  8
0
370
    -3
  6
Continuous
100
AcDbPolyline
 90
        4
 70
     0
 10
0.877484
 20
6.683992
 10
0.877484
 20
6.831563
 10
1.071846
 20
6.831563
 10
1.071846
 20
6.807568
  0
LWPOLYLINE
  5
4C1
100
AcDbEntity
  8
0
370
    -3
  6
Continuous
100
AcDbPolyline
 90
        2
 70
     0
 10
1.071846
 20
6.761977
 10
1.071846
 20
6.683992
  0
LWPOLYLINE
  5
4C5
100
AcDbEntity
  8
0
370
    -3
  6
Continuous
100
AcDbPolyline
 90
        2
 70
     0
 10
1.071846
 20
6.663596
 10
1.071846
 20
6.579613
  0
LWPOLYLINE
  5
4C6
100
AcDbEntity
  8
0
370
    -3
  6
Continuous
100
AcDbPolyline
 90
        4
 70
     0
 10
1.071846
 20
6.529223
 10
1.071846
 20
6.432042
 10
0.877484
 20
6.432042
 10
0.877484
 20
6.663596
  0
LINE
  5
31B
100
AcDbEntity
  8
0
370
    -3
  6
Continuous
100
AcDbLine
 10
1.071846
 20
6.579613
 30
0.0
 11
1.113837
 21
6.579613
 31
0.0
  0
LINE
  5
31E
100
AcDbEntity
  8
0
370
    -3
  6
Continuous
100
AcDbLine
 10
1.113837
 20
6.615606
 30
0.0
 11
1.113837
 21
6.579613
 31
0.0
  0
LWPOLYLINE
  5
450
100
AcDbEntity
  8
0
370
    -3
  6
Continuous
100
AcDbPolyline
 90
        4
 70
     0
 10
1.146231
 20
5.524291
 10
0.982795
 20
5.524291
 10
0.982795
 20
6.41633
 10
1.146231
 20
6.41633
  0
LWPOLYLINE
  5
4C9
100
AcDbEntity
  8
0
370
    -3
  6
Continuous
100
AcDbPolyline
 90
        3
 70
     0
 10
1.214617
 20
6.41633
 10
1.356291
 20
6.41633
 10
1.356291
 20
6.002979
  0
LINE
  5
4CA
100
AcDbEntity
  8
0
370
    -3
  6
Continuous
100
AcDbLine
 10
2.699644
 20
5.44413
 30
0.0
 11
2.720639
 21
5.44413
 31
0.0
  0
LWPOLYLINE
  5
279
100
AcDbEntity
  8
0
370
    -3
  6
Continuous
100
AcDbPolyline
 90
        4
 70
     0
 10
2.248134
 20
5.235733
 10
2.248134
 20
5.44413
 10
2.552807
 20
5.44413
 10
2.552807
 20
5.340263
  0
LWPOLYLINE
  5
4CB
100
AcDbEntity
  8
0
370
    -3
  6
Continuous
100
AcDbPolyline
 90
        4
 70
     0
 10
2.552807
 20
5.273178
 10
2.552807
 20
4.973272
 10
2.248134
 20
4.973272
 10
2.248134
 20
5.177675
  0
LINE
  5
286
100
AcDbEntity
  8
0
370
    -3
  6
Continuous
100
AcDbLine
 10
2.699644
 20
5.155383
 30
0.0
 11
2.699644
 21
5.273178
 31
0.0
  0
LINE
  5
4CC
100
AcDbEntity
  8
0
370
    -3
  6
Continuous
100
AcDbLine
 10
2.699644
 20
5.340263
 30
0.0
 11
2.699644
 21
5.44413
 31
0.0
  0
LINE
  5
3FA
100
AcDbEntity
  8
0
370
    -3
  6
Continuous
100
AcDbLine
 10
2.720639
 20
5.472367
 30
0.0
 11
2.720639
 21
5.44413
 31
0.0
  0
LINE
  5
4CD
100
AcDbEntity
  8
0
370
    -3
  6
Continuous
100
AcDbLine
 10
2.720639
 20
5.155383
 30
0.0
 11
2.720639
 21
5.133571
 31
0.0
  0
LINE
  5
2EA
100
AcDbEntity
  8
0
370
    -3
  6
Continuous
100
AcDbLine
 10
2.789537
 20
5.133571
 30
0.0
 11
2.789537
 21
5.155383
 31
0.0
  0
LINE
  5
4CE
100
AcDbEntity
  8
0
370
    -3
  6
Continuous
100
AcDbLine
 10
2.789537
 20
5.44413
 30
0.0
 11
2.789537
 21
5.472367
 31
0.0
  0
LINE
  5
2EE
100
AcDbEntity
  8
0
370
    -3
  6
Continuous
100
AcDbLine
 10
2.581479
 20
5.133571
 30
0.0
 11
2.720639
 21
5.133571
 31
0.0
  0
LINE
  5
4CF
100
AcDbEntity
  8
0
370
    -3
  6
Continuous
100
AcDbLine
 10
2.699644
 20
5.155383
 30
0.0
 11
2.720639
 21
5.155383
 31
0.0
  0
LWPOLYLINE
  5
4D2
100
AcDbEntity
  8
0
370
    -3
  6
Continuous
100
AcDbPolyline
 90
        2
 70
     0
 10
2.859699
 20
5.675684
 10
2.859699
 20
5.93955
  0
LWPOLYLINE
  5
3B5
100
AcDbEntity
  8
0
370
    -3
  6
Continuous
100
AcDbPolyline
 90
        2
 70
     0
 10
3.242329
 20
5.93955
 10
3.242329
 20
5.675684
  0
LINE
  5
4D4
100
AcDbEntity
  8
0
370
    -3
  6
Continuous
100
AcDbLine
 10
2.927222
 20
5.654929
 30
0.0
 11
2.927222
 21
5.675684
 31
0.0
  0
LINE
  5
4D5
100
AcDbEntity
  8
0
370
    -3
  6
Continuous
100
AcDbLine
 10
3.177307
 20
5.654929
 30
0.0
 11
3.177307
 21
5.675684
 31
0.0
  0
LINE
  5
4D6
100
AcDbEntity
  8
0
370
    -3
  6
Continuous
100
AcDbLine
 10
3.177307
 20
5.44413
 30
0.0
 11
3.177307
 21
5.472367
 31
0.0
  0
LINE
  5
4D7
100
AcDbEntity
  8
0
370
    -3
  6
Continuous
100
AcDbLine
 10
2.927222
 20
5.44413
 30
0.0
 11
2.927222
 21
5.472367
 31
0.0
  0
LINE
  5
2EB
100
AcDbEntity
  8
0
370
    -3
  6
Continuous
100
AcDbLine
 10
2.859699
 20
5.675684
 30
0.0
 11
2.927222
 21
5.675684
 31
0.0
  0
LINE
  5
28B
100
AcDbEntity
  8
0
370
    -3
  6
Continuous
100
AcDbLine
 10
2.859699
 20
5.654929
 30
0.0
 11
2.927222
 21
5.654929
 31
0.0
  0
LINE
  5
4DC
100
AcDbEntity
  8
0
370
    -3
  6
Continuous
100
AcDbLine
 10
3.177307
 20
5.675684
 30
0.0
 11
3.242329
 21
5.675684
 31
0.0
  0
LINE
  5
4DD
100
AcDbEntity
  8
0
370
    -3
  6
Continuous
100
AcDbLine
 10
3.177307
 20
5.654929
 30
0.0
 11
3.242329
 21
5.654929
 31
0.0
  0
LWPOLYLINE
  5
4D3
100
AcDbEntity
  8
0
370
    -3
  6
Continuous
100
AcDbPolyline
 90
        3
 70
     0
 10
3.242329
 20
5.654929
 10
3.242329
 20
5.472367
 10
3.177307
 20
5.472367
  0
LINE
  5
4DF
100
AcDbEntity
  8
0
370
    -3
  6
Continuous
100
AcDbLine
 10
3.177307
 20
5.44413
 30
0.0
 11
3.404885
 21
5.44413
 31
0.0
  0
LWPOLYLINE
  5
4E0
100
AcDbEntity
  8
0
370
    -3
  6
Continuous
100
AcDbPolyline
 90
        3
 70
     0
 10
2.927222
 20
5.472367
 10
2.859699
 20
5.472367
 10
2.859699
 20
5.654929
  0
LINE
  5
3FD
100
AcDbEntity
  8
0
370
    -3
  6
Continuous
100
AcDbLine
 10
2.789537
 20
5.44413
 30
0.0
 11
2.927222
 21
5.44413
 31
0.0
  0
LINE
  5
4E6
100
AcDbEntity
  8
0
370
    -3
  6
Continuous
100
AcDbLine
 10
2.938502
 20
4.818523
 30
0.0
 11
2.938502
 21
4.789643
 31
0.0
  0
LINE
  5
4E7
100
AcDbEntity
  8
0
370
    -3
  6
Continuous
100
AcDbLine
 10
3.167405
 20
4.818523
 30
0.0
 11
3.167405
 21
4.789643
 31
0.0
  0
LINE
  5
283
100
AcDbEntity
  8
0
370
    -3
  6
Continuous
100
AcDbLine
 10
2.581479
 20
4.909674
 30
0.0
 11
2.907387
 21
4.909674
 31
0.0
  0
LINE
  5
4EB
100
AcDbEntity
  8
0
370
    -3
  6
Continuous
100
AcDbLine
 10
2.927222
 20
4.909674
 30
0.0
 11
2.977864
 21
4.909674
 31
0.0
  0
LINE
  5
4EC
100
AcDbEntity
  8
0
370
    -3
  6
Continuous
100
AcDbLine
 10
3.126771
 20
4.909674
 30
0.0
 11
3.177307
 21
4.909674
 31
0.0
  0
LINE
  5
4ED
100
AcDbEntity
  8
0
370
    -3
  6
Continuous
100
AcDbLine
 10
3.195668
 20
4.909674
 30
0.0
 11
3.5218
 21
4.909674
 31
0.0
  0
LINE
  5
4EE
100
AcDbEntity
  8
0
370
    -3
  6
Continuous
100
AcDbLine
 10
3.195668
 20
5.133571
 30
0.0
 11
3.5218
 21
5.133571
 31
0.0
  0
LINE
  5
4D0
100
AcDbEntity
  8
0
370
    -3
  6
Continuous
100
AcDbLine
 10
2.789537
 20
5.133571
 30
0.0
 11
2.907387
 21
5.133571
 31
0.0
  0
LINE
  5
289
100
AcDbEntity
  8
0
370
    -3
  6
Continuous
100
AcDbLine
 10
3.177307
 20
4.909674
 30
0.0
 11
3.177307
 21
5.133571
 31
0.0
  0
LINE
  5
288
100
AcDbEntity
  8
0
370
    -3
  6
Continuous
100
AcDbLine
 10
2.927222
 20
4.909674
 30
0.0
 11
2.927222
 21
5.133571
 31
0.0
  0
LINE
  5
4D1
100
AcDbEntity
  8
0
370
    -3
  6
Continuous
100
AcDbLine
 10
2.789537
 20
5.155383
 30
0.0
 11
2.977864
 21
5.155383
 31
0.0
  0
LINE
  5
4F4
100
AcDbEntity
  8
0
370
    -3
  6
Continuous
100
AcDbLine
 10
3.126771
 20
5.155383
 30
0.0
 11
3.404885
 21
5.155383
 31
0.0
  0
LINE
  5
4EF
100
AcDbEntity
  8
0
370
    -3
  6
Continuous
100
AcDbLine
 10
2.927222
 20
5.133571
 30
0.0
 11
2.977864
 21
5.133571
 31
0.0
  0
LINE
  5
4F5
100
AcDbEntity
  8
0
370
    -3
  6
Continuous
100
AcDbLine
 10
3.126771
 20
5.133571
 30
0.0
 11
3.177307
 21
5.133571
 31
0.0
  0
LINE
  5
2F1
100
AcDbEntity
  8
0
370
    -3
  6
Continuous
100
AcDbLine
 10
2.977864
 20
5.155383
 30
0.0
 11
2.977864
 21
5.133571
 31
0.0
  0
LINE
  5
4F6
100
AcDbEntity
  8
0
370
    -3
  6
Continuous
100
AcDbLine
 10
2.977864
 20
4.909674
 30
0.0
 11
2.977864
 21
4.883771
 31
0.0
  0
LINE
  5
2F2
100
AcDbEntity
  8
0
370
    -3
  6
Continuous
100
AcDbLine
 10
3.126771
 20
4.883771
 30
0.0
 11
3.126771
 21
4.909674
 31
0.0
  0
LINE
  5
4F7
100
AcDbEntity
  8
0
370
    -3
  6
Continuous
100
AcDbLine
 10
3.126771
 20
5.133571
 30
0.0
 11
3.126771
 21
5.155383
 31
0.0
  0
LWPOLYLINE
  5
4F8
100
AcDbEntity
  8
0
370
    -3
  6
Continuous
100
AcDbPolyline
 90
        4
 70
     0
 10
3.126771
 20
4.883771
 10
3.318223
 20
4.883771
 10
3.318223
 20
4.818523
 10
3.167405
 20
4.818523
  0
LWPOLYLINE
  5
4F9
100
AcDbEntity
  8
0
370
    -3
  6
Continuous
100
AcDbPolyline
 90
        2
 70
     0
 10
3.10783
 20
4.818523
 10
3.090943
 20
4.818523
  0
LWPOLYLINE
  5
4FA
100
AcDbEntity
  8
0
370
    -3
  6
Continuous
100
AcDbPolyline
 90
        2
 70
     0
 10
3.024554
 20
4.818523
 10
3.007272
 20
4.818523
  0
LWPOLYLINE
  5
4FB
100
AcDbEntity
  8
0
370
    -3
  6
Continuous
100
AcDbPolyline
 90
        4
 70
     0
 10
2.938502
 20
4.818523
 10
2.774848
 20
4.818523
 10
2.774848
 20
4.883771
 10
2.977864
 20
4.883771
  0
LINE
  5
4E8
100
AcDbEntity
  8
0
370
    -3
  6
Continuous
100
AcDbLine
 10
2.938502
 20
4.789643
 30
0.0
 11
3.007272
 21
4.789643
 31
0.0
  0
LINE
  5
4FC
100
AcDbEntity
  8
0
370
    -3
  6
Continuous
100
AcDbLine
 10
3.024554
 20
4.789643
 30
0.0
 11
3.090943
 21
4.789643
 31
0.0
  0
LINE
  5
4FD
100
AcDbEntity
  8
0
370
    -3
  6
Continuous
100
AcDbLine
 10
3.10783
 20
4.789643
 30
0.0
 11
3.167405
 21
4.789643
 31
0.0
  0
LINE
  5
4FE
100
AcDbEntity
  8
0
370
    -3
  6
Continuous
100
AcDbLine
 10
3.007272
 20
4.818523
 30
0.0
 11
3.007272
 21
4.789643
 31
0.0
  0
LINE
  5
4FF
100
AcDbEntity
  8
0
370
    -3
  6
Continuous
100
AcDbLine
 10
3.024554
 20
4.818523
 30
0.0
 11
3.024554
 21
4.789643
 31
0.0
  0
LINE
  5
500
100
AcDbEntity
  8
0
370
    -3
  6
Continuous
100
AcDbLine
 10
3.090943
 20
4.818523
 30
0.0
 11
3.090943
 21
4.789643
 31
0.0
  0
LINE
  5
501
100
AcDbEntity
  8
0
370
    -3
  6
Continuous
100
AcDbLine
 10
3.10783
 20
4.818523
 30
0.0
 11
3.10783
 21
4.789643
 31
0.0
  0
ENDSEC
  0
SECTION
  2
OBJECTS
  0
DICTIONARY
  5
524
100
AcDbDictionary
280
     0
281
     1
  3
ACAD_GROUP
350
525
  3
ACAD_LAYOUT
350
532
  3
ACAD_MLINESTYLE
350
52F
  3
ACAD_PLOTSETTINGS
350
531
  3
ACAD_PLOTSTYLENAME
350
526
  0
DICTIONARY
  5
525
102
{ACAD_REACTORS
330
524
102
}
100
AcDbDictionary
280
     0
281
     1
  0
ACDBDICTIONARYWDFLT
  5
526
102
{ACAD_REACTORS
330
524
102
}
100
AcDbDictionary
281
     1
  3
Normal
350
527
100
AcDbDictionaryWithDefault
340
527
  0
ACDBPLACEHOLDER
  5
527
102
{ACAD_REACTORS
330
526
102
}
  0
DICTIONARY
  5
52F
102
{ACAD_REACTORS
330
524
102
}
100
AcDbDictionary
280
     0
281
     1
  3
STANDARD
350
530
  0
DICTIONARY
  5
531
102
{ACAD_REACTORS
330
524
102
}
100
AcDbDictionary
280
     0
281
     1
  0
DICTIONARY
  5
532
102
{ACAD_REACTORS
330
524
102
}
100
AcDbDictionary
280
     0
281
     1
  3
Default
350
4A
  3

350
569
  0
LAYOUT
  5
4A
100
AcDbPlotSettings
  1

  2

  4

  6

 40
0.0
 41
0.0
 42
0.0
 43
0.0
 44
0.0
 45
0.0
 46
0.0
 47
0.0
 48
0.0
 49
0.0
140
0.0
141
0.0
142
1.0
143
0.0
 70
  1712
 72
     0
 73
     0
 74
     5
  7

 75
    16
147
0.0
148
0.0
149
0.0
100
AcDbLayout
  1
Default
 70
     1
 71
     0
 10
0.0
 20
0.0
 11
12.0
 21
9.0
 12
0.0
 22
0.0
 32
0.0
 14
0.0
 24
0.0
 34
0.0
 15
0.0
 25
0.0
 35
0.0
146
0.0
 13
0.0
 23
0.0
 33
0.0
 16
1.0
 26
0.0
 36
0.0
 17
0.0
 27
1.0
 37
0.0
 76
     0
330
518
331
0
345
0
346
0
  0
LAYOUT
  5
569
100
AcDbPlotSettings
  1

  2

  4

  6

 40
0.0
 41
0.0
 42
0.0
 43
0.0
 44
0.0
 45
0.0
 46
0.0
 47
0.0
 48
0.0
 49
0.0
140
0.0
141
0.0
142
1.0
143
0.0
 70
   688
 72
     0
 73
     0
 74
     5
  7

 75
    16
147
0.0
148
0.0
149
0.0
100
AcDbLayout
  1
Layout
 70
     1
 71
     1
 10
0.0
 20
0.0
 11
12.0
 21
9.0
 12
0.0
 22
0.0
 32
0.0
 14
0.0
 24
0.0
 34
0.0
 15
0.0
 25
0.0
 35
0.0
146
0.0
 13
0.0
 23
0.0
 33
0.0
 16
1.0
 26
0.0
 36
0.0
 17
0.0
 27
1.0
 37
0.0
 76
     0
330
568
331
0
345
0
346
0
  0
MLINESTYLE
  5
530
102
{ACAD_REACTORS
330
52F
102
}
100
AcDbMlineStyle
  2
STANDARD
 70
     0
  3

 62
   256
 51
90.0
 52
90.0
 71
     2
 49
0.5
 62
   256
  6
ByLayer
 49
-0.5
 62
   256
  6
ByLayer
  0
ENDSEC
  0
EOF