  0
SECTION
  2
HEADER
  9
$ACADVER
  1
AC1032
  9
$ACADMAINTVER
 90
      228
  9
$DWGCODEPAGE
  3
ANSI_1252
  9
$LASTSAVEDBY
  1
ser
  9
$REQUIREDVERSIONS
160
                 0
  9
$INSBASE
 10
0.0
 20
0.0
 30
0.0
  9
$EXTMIN
 10
0.6511700000000002
 20
4.789642999999998
 30
0.0
  9
$EXTMAX
 10
5.200391999999999
 20
7.781322
 30
0.0
  9
$LIMMIN
 10
-12.695893
 20
-8.793292999999998
  9
$LIMMAX
 10
17.347693
 20
21.250293
  9
$ORTHOMODE
 70
     0
  9
$REGENMODE
 70
     1
  9
$FILLMODE
 70
     1
  9
$QTEXTMODE
 70
     0
  9
$MIRRTEXT
 70
     1
  9
$LTSCALE
 40
1.0
  9
$ATTMODE
 70
     1
  9
$TEXTSIZE
 40
0.2
  9
$TRACEWID
 40
0.05
  9
$TEXTSTYLE
  7
STANDARD
  9
$CLAYER
  8
isovist_points
  9
$CELTYPE
  6
ByLayer
  9
$CECOLOR
 62
     7
  9
$CELTSCALE
 40
1.0
  9
$DISPSILH
 70
     0
  9
$DIMSCALE
 40
1.0
  9
$DIMASZ
 40
0.25
  9
$DIMEXO
 40
0.125
  9
$DIMDLI
 40
0.0
  9
$DIMRND
 40
0.0
  9
$DIMDLE
 40
0.0
  9
$DIMEXE
 40
0.125
  9
$DIMTP
 40
0.0
  9
$DIMTM
 40
0.0
  9
$DIMTXT
 40
0.25
  9
$DIMCEN
 40
0.0
  9
$DIMTSZ
 40
0.0
  9
$DIMTOL
 70
     0
  9
$DIMLIM
 70
     0
  9
$DIMTIH
 70
     0
  9
$DIMTOH
 70
     0
  9
$DIMSE1
 70
     0
  9
$DIMSE2
 70
     0
  9
$DIMTAD
 70
     1
  9
$DIMZIN
 70
     2
  9
$DIMBLK
  1
TERMINATOROPEN
  9
$DIMASO
 70
     1
  9
$DIMSHO
 70
     1
  9
$DIMPOST
  1

  9
$DIMAPOST
  1

  9
$DIMALT
 70
     0
  9
$DIMALTD
 70
     4
  9
$DIMALTF
 40
1.0
  9
$DIMLFAC
 40
1.0
  9
$DIMTOFL
 70
     0
  9
$DIMTVP
 40
0.125
  9
$DIMTIX
 70
     0
  9
$DIMSOXD
 70
     0
  9
$DIMSAH
 70
     0
  9
$DIMBLK1
  1

  9
$DIMBLK2
  1

  9
$DIMSTYLE
  2
STANDARD
  9
$DIMCLRD
 70
     0
  9
$DIMCLRE
 70
     0
  9
$DIMCLRT
 70
     0
  9
$DIMTFAC
 40
1.0
  9
$DIMGAP
 40
0.125
  9
$DIMJUST
 70
     0
  9
$DIMSD1
 70
     0
  9
$DIMSD2
 70
     0
  9
$DIMTOLJ
 70
     1
  9
$DIMTZIN
 70
     0
  9
$DIMALTZ
 70
     0
  9
$DIMALTTZ
 70
     0
  9
$DIMUPT
 70
     0
  9
$DIMDEC
 70
     4
  9
$DIMTDEC
 70
     4
  9
$DIMALTU
 70
     2
  9
$DIMALTTD
 70
     2
  9
$DIMTXSTY
  7
STANDARD
  9
$DIMAUNIT
 70
     0
  9
$DIMADEC
 70
     0
  9
$DIMALTRND
 40
0.0
  9
$DIMAZIN
 70
     0
  9
$DIMDSEP
 70
    46
  9
$DIMATFIT
 70
     3
  9
$DIMFRAC
 70
     0
  9
$DIMLDRBLK
  1
TERMINATOROPEN
  9
$DIMLUNIT
 70
     2
  9
$DIMLWD
 70
    -2
  9
$DIMLWE
 70
    -2
  9
$DIMTMOVE
 70
     0
  9
$DIMFXL
 40
1.0
  9
$DIMFXLON
 70
     0
  9
$DIMJOGANG
 40
0.7853981633974483
  9
$DIMTFILL
 70
     0
  9
$DIMTFILLCLR
 70
     0
  9
$DIMARCSYM
 70
     0
  9
$DIMLTYPE
  6

  9
$DIMLTEX1
  6

  9
$DIMLTEX2
  6

  9
$DIMTXTDIRECTION
 70
     0
  9
$LUNITS
 70
     2
  9
$LUPREC
 70
     4
  9
$SKETCHINC
 40
0.1
  9
$FILLETRAD
 40
0.5
  9
$AUNITS
 70
     0
  9
$AUPREC
 70
     4
  9
$MENU
  1
.
  9
$ELEVATION
 40
0.0
  9
$PELEVATION
 40
0.0
  9
$THICKNESS
 40
0.0
  9
$LIMCHECK
 70
     0
  9
$CHAMFERA
 40
0.5
  9
$CHAMFERB
 40
0.5
  9
$CHAMFERC
 40
0.0
  9
$CHAMFERD
 40
0.0
  9
$SKPOLY
 70
     0
  9
$TDCREATE
 40
2459109.377951389
  9
$TDUCREATE
 40
2459109.336284722
  9
$TDUPDATE
 40
2461298.753287037
  9
$TDUUPDATE
 40
2461298.711620371
  9
$TDINDWG
 40
0.0025927662
  9
$TDUSRTIMER
 40
0.0025925926
  9
$USRTIMER
 70
     1
  9
$ANGBASE
 50
0.0
  9
$ANGDIR
 70
     0
  9
$PDMODE
 70
     0
  9
$PDSIZE
 40
0.0
  9
$PLINEWID
 40
0.0
  9
$SPLFRAME
 70
     0
  9
$SPLINETYPE
 70
     6
  9
$SPLINESEGS
 70
     8
  9
$HANDSEED
  5
834
  9
$SURFTAB1
 70
     6
  9
$SURFTAB2
 70
     6
  9
$SURFTYPE
 70
     6
  9
$SURFU
 70
     6
  9
$SURFV
 70
     6
  9
$UCSBASE
  2

  9
$UCSNAME
  2

  9
$UCSORG
 10
0.0
 20
0.0
 30
0.0
  9
$UCSXDIR
 10
1.0
 20
0.0
 30
0.0
  9
$UCSYDIR
 10
0.0
 20
1.0
 30
0.0
  9
$UCSORTHOREF
  2

  9
$UCSORTHOVIEW
 70
     0
  9
$UCSORGTOP
 10
0.0
 20
0.0
 30
0.0
  9
$UCSORGBOTTOM
 10
0.0
 20
0.0
 30
0.0
  9
$UCSORGLEFT
 10
0.0
 20
0.0
 30
0.0
  9
$UCSORGRIGHT
 10
0.0
 20
0.0
 30
0.0
  9
$UCSORGFRONT
 10
0.0
 20
0.0
 30
0.0
  9
$UCSORGBACK
 10
0.0
 20
0.0
 30
0.0
  9
$PUCSBASE
  2

  9
$PUCSNAME
  2

  9
$PUCSORG
 10
0.0
 20
0.0
 30
0.0
  9
$PUCSXDIR
 10
1.0
 20
0.0
 30
0.0
  9
$PUCSYDIR
 10
0.0
 20
1.0
 30
0.0
  9
$PUCSORTHOREF
  2

  9
$PUCSORTHOVIEW
 70
     0
  9
$PUCSORGTOP
 10
0.0
 20
0.0
 30
0.0
  9
$PUCSORGBOTTOM
 10
0.0
 20
0.0
 30
0.0
  9
$PUCSORGLEFT
 10
0.0
 20
0.0
 30
0.0
  9
$PUCSORGRIGHT
 10
0.0
 20
0.0
 30
0.0
  9
$PUCSORGFRONT
 10
0.0
 20
0.0
 30
0.0
  9
$PUCSORGBACK
 10
0.0
 20
0.0
 30
0.0
  9
$USERI1
 70
     0
  9
$USERI2
 70
     0
  9
$USERI3
 70
     0
  9
$USERI4
 70
     0
  9
$USERI5
 70
     0
  9
$USERR1
 40
0.0
  9
$USERR2
 40
0.0
  9
$USERR3
 40
0.0
  9
$USERR4
 40
0.0
  9
$USERR5
 40
0.0
  9
$WORLDVIEW
 70
     1
  9
$SHADEDGE
 70
     3
  9
$SHADEDIF
 70
    70
  9
$TILEMODE
 70
     1
  9
$MAXACTVP
 70
    64
  9
$PINSBASE
 10
0.0
 20
0.0
 30
0.0
  9
$PLIMCHECK
 70
     0
  9
$PEXTMIN
 10
1.000000000000000E+20
 20
1.000000000000000E+20
 30
1.000000000000000E+20
  9
$PEXTMAX
 10
-1.000000000000000E+20
 20
-1.000000000000000E+20
 30
-1.000000000000000E+20
  9
$PLIMMIN
 10
0.0
 20
0.0
  9
$PLIMMAX
 10
12.0
 20
9.0
  9
$UNITMODE
 70
     0
  9
$VISRETAIN
 70
     1
  9
$PLINEGEN
 70
     0
  9
$PSLTSCALE
 70
     1
  9
$TREEDEPTH
 70
  3020
  9
$CMLSTYLE
  2
Standard
  9
$CMLJUST
 70
     0
  9
$CMLSCALE
 40
1.0
  9
$PROXYGRAPHICS
 70
     1
  9
$MEASUREMENT
 70
     0
  9
$CELWEIGHT
370
    -1
  9
$ENDCAPS
280
     0
  9
$JOINSTYLE
280
     0
  9
$LWDISPLAY
290
     0
  9
$INSUNITS
 70
     0
  9
$HYPERLINKBASE
  1

  9
$STYLESHEET
  1

  9
$XEDIT
290
     1
  9
$CEPSNTYPE
380
     0
  9
$PSTYLEMODE
290
     1
  9
$FINGERPRINTGUID
  2
{981CFBAB-2409-124F-B4CE-06B813283EB5}
  9
$VERSIONGUID
  2
{295664DD-167E-9E4B-B674-363F98FF984D}
  9
$EXTNAMES
290
     1
  9
$PSVPSCALE
 40
0.0
  9
$OLESTARTUP
290
     0
  9
$SORTENTS
280
   127
  9
$INDEXCTL
280
     0
  9
$HIDETEXT
280
     0
  9
$XCLIPFRAME
280
     2
  9
$HALOGAP
280
     0
  9
$OBSCOLOR
 70
   257
  9
$OBSLTYPE
280
     0
  9
$INTERSECTIONDISPLAY
280
     0
  9
$INTERSECTIONCOLOR
 70
   257
  9
$DIMASSOC
280
     1
  9
$PROJECTNAME
  1

  9
$CAMERADISPLAY
290
     0
  9
$LENSLENGTH
 40
50.0
  9
$CAMERAHEIGHT
 40
0.0
  9
$STEPSPERSEC
 40
2.0
  9
$STEPSIZE
 40
6.0
  9
$3DDWFPREC
 40
2.0
  9
$PSOLWIDTH
 40
0.25
  9
$PSOLHEIGHT
 40
4.0
  9
$LOFTANG1
 40
1.570796326794896
  9
$LOFTANG2
 40
1.570796326794896
  9
$LOFTMAG1
 40
0.0
  9
$LOFTMAG2
 40
0.0
  9
$LOFTPARAM
 70
     7
  9
$LOFTNORMALS
280
     1
  9
$LATITUDE
 40
37.795
  9
$LONGITUDE
 40
-122.394
  9
$NORTHDIRECTION
 40
0.0
  9
$TIMEZONE
 70
 -8000
  9
$LIGHTGLYPHDISPLAY
280
     1
  9
$TILEMODELIGHTSYNCH
280
     1
  9
$CMATERIAL
347
7AE
  9
$SOLIDHIST
280
     0
  9
$SHOWHIST
280
     1
  9
$DWFFRAME
280
     2
  9
$DGNFRAME
280
     0
  9
$REALWORLDSCALE
290
     1
  9
$INTERFERECOLOR
 62
     1
  9
$INTERFEREOBJVS
345
7D0
  9
$INTERFEREVPVS
346
7CD
  9
$CSHADOW
280
     0
  9
$SHADOWPLANELOCATION
 40
0.0
  0
ENDSEC
  0
SECTION
  2
CLASSES
  0
CLASS
  1
ACDBDICTIONARYWDFLT
  2
AcDbDictionaryWithDefault
  3
ObjectDBX Classes
 90
        0
 91
        1
280
     0
281
     0
  0
CLASS
  1
MATERIAL
  2
AcDbMaterial
  3
ObjectDBX Classes
 90
     1153
 91
        3
280
     0
281
     0
  0
CLASS
  1
VISUALSTYLE
  2
AcDbVisualStyle
  3
ObjectDBX Classes
 90
     4095
 91
       24
280
     0
281
     0
  0
CLASS
  1
SCALE
  2
AcDbScale
  3
ObjectDBX Classes
 90
     1153
 91
       17
280
     0
281
     0
  0
CLASS
  1
TABLESTYLE
  2
AcDbTableStyle
  3
ObjectDBX Classes
 90
     4095
 91
        1
280
     0
281
     0
  0
CLASS
  1
MLEADERSTYLE
  2
AcDbMLeaderStyle
  3
ACDB_MLEADERSTYLE_CLASS
 90
     4095
 91
        1
280
     0
281
     0
  0
CLASS
  1
ACDBSECTIONVIEWSTYLE
  2
AcDbSectionViewStyle
  3
ObjectDBX Classes
 90
     1025
 91
        1
280
     0
281
     0
  0
CLASS
  1
ACDBDETAILVIEWSTYLE
  2
AcDbDetailViewStyle
  3
ObjectDBX Classes
 90
     1025
 91
        1
280
     0
281
     0
  0
CLASS
  1
DICTIONARYVAR
  2
AcDbDictionaryVar
  3
ObjectDBX Classes
 90
        0
 91
        9
280
     0
281
     0
  0
CLASS
  1
CELLSTYLEMAP
  2
AcDbCellStyleMap
  3
ObjectDBX Classes
 90
     1152
 91
        1
280
     0
281
     0
  0
ENDSEC
  0
SECTION
  2
TABLES
  0
TABLE
  2
VPORT
  5
7A5
330
0
100
AcDbSymbolTable
 70
     1
  0
VPORT
  5
810
330
7A5
100
AcDbSymbolTableRecord
100
AcDbViewportTableRecord
  2
*ACTIVE
 70
     0
 10
0.0
 20
0.0
 11
1.0
 21
1.0
 12
1.866546537453606
 22
6.011197798638102
 13
0.0
 23
0.0
 14
0.1
 24
0.1
 15
0.1
 25
0.1
 16
0.0
 26
0.0
 36
1.0
 17
0.0
 27
0.0
 37
0.0
 40
1.616099493456889
 41
2.219427580225498
 42
50.0
 43
0.0
 44
0.0
 50
0.0
 51
0.0
 71
     0
 72
   100
 73
     1
 74
     2
 75
     0
 76
     1
 77
     0
 78
     1
281
     0
 65
     1
110
0.0
120
0.0
130
0.0
111
1.0
121
0.0
131
0.0
112
0.0
122
1.0
132
0.0
 79
     0
146
0.0
348
7CC
 60
     3
 61
     5
292
     1
282
     0
141
0.0
142
0.0
 63
   250
421
  3355443
1001
ACAD_NAV_VCDISPLAY
1070
     3
  0
ENDTAB
  0
TABLE
  2
LTYPE
  5
7A2
330
0
100
AcDbSymbolTable
 70
     1
  0
LTYPE
  5
7F7
330
7A2
100
AcDbSymbolTableRecord
100
AcDbLinetypeTableRecord
  2
ByBlock
 70
     0
  3

 72
    65
 73
     0
 40
0.0
  0
LTYPE
  5
7F8
330
7A2
100
AcDbSymbolTableRecord
100
AcDbLinetypeTableRecord
  2
ByLayer
 70
     0
  3

 72
    65
 73
     0
 40
0.0
  0
LTYPE
  5
7F9
330
7A2
100
AcDbSymbolTableRecord
100
AcDbLinetypeTableRecord
  2
CONTINUOUS
 70
     0
  3
Solid line
 72
    65
 73
     0
 40
0.0
  0
ENDTAB
  0
TABLE
  2
LAYER
  5
79F
330
0
100
AcDbSymbolTable
 70
     3
  0
LAYER
  5
7F1
102
{ACAD_XDICTIONARY
360
821
102
}
330
79F
100
AcDbSymbolTableRecord
100
AcDbLayerTableRecord
  2
0
 70
     0
 62
     2
  6
CONTINUOUS
370
    -3
390
7AC
347
7BE
348
0
  0
LAYER
  5
811
102
{ACAD_XDICTIONARY
360
823
102
}
330
79F
100
AcDbSymbolTableRecord
100
AcDbLayerTableRecord
  2
IMAGE
 70
     0
 62
     7
  6
CONTINUOUS
370
    -3
390
7AC
347
7BE
348
0
  0
LAYER
  5
81D
102
{ACAD_XDICTIONARY
360
825
102
}
330
79F
100
AcDbSymbolTableRecord
100
AcDbLayerTableRecord
  2
isovist_points
 70
     0
 62
     1
  6
CONTINUOUS
370
    -3
390
7AC
347
7BE
348
0
1001
AcAecLayerStandard
1000

1000

1001
AcCmTransparency
1071
        0
  0
ENDTAB
  0
TABLE
  2
STYLE
  5
7A0
330
0
100
AcDbSymbolTable
 70
     2
  0
STYLE
  5
7F2
330
7A0
100
AcDbSymbolTableRecord
100
AcDbTextStyleTableRecord
  2
STANDARD
 70
     0
 40
0.0
 41
1.0
 50
0.0
 71
     0
 42
0.2
  3
txt
  4

  0
STYLE
  5
7F6
330
7A0
100
AcDbSymbolTableRecord
100
AcDbTextStyleTableRecord
  2
Annotative
 70
     0
 40
0.0
 41
1.0
 50
0.0
 71
     0
 42
0.2
  3
txt
  4

1001
AcadAnnotative
1000
AnnotativeData
1002
{
1070
     1
1070
     1
1002
}
  0
ENDTAB
  0
TABLE
  2
VIEW
  5
7A3
330
0
100
AcDbSymbolTable
 70
     0
  0
ENDTAB
  0
TABLE
  2
UCS
  5
7A4
330
0
100
AcDbSymbolTable
 70
     0
  0
ENDTAB
  0
TABLE
  2
APPID
  5
7A6
330
0
100
AcDbSymbolTable
 70
     6
  0
APPID
  5
7F3
330
7A6
100
AcDbSymbolTableRecord
100
AcDbRegAppTableRecord
  2
ACAD
 70
     0
  0
APPID
  5
7FA
330
7A6
100
AcDbSymbolTableRecord
100
AcDbRegAppTableRecord
  2
AcadAnnotative
 70
     0
  0
APPID
  5
812
330
7A6
100
AcDbSymbolTableRecord
100
AcDbRegAppTableRecord
  2
ACAD_NAV_VCDISPLAY
 70
     0
  0
APPID
  5
813
330
7A6
100
AcDbSymbolTableRecord
100
AcDbRegAppTableRecord
  2
ACAD_MLEADERVER
 70
     0
  0
APPID
  5
81E
330
7A6
100
AcDbSymbolTableRecord
100
AcDbRegAppTableRecord
  2
AcAecLayerStandard
 70
     0
  0
APPID
  5
81F
330
7A6
100
AcDbSymbolTableRecord
100
AcDbRegAppTableRecord
  2
AcCmTransparency
 70
     0
  0
ENDTAB
  0
TABLE
  2
DIMSTYLE
  5
7A7
330
0
100
AcDbSymbolTable
 70
     2
100
AcDbDimStyleTable
 71
     0
  0
DIMSTYLE
105
7F4
330
7A7
100
AcDbSymbolTableRecord
100
AcDbDimStyleTableRecord
  2
STANDARD
 70
     0
 41
0.25
 42
0.125
 43
0.0
 44
0.125
 73
     0
 74
     0
 77
     1
 78
     2
140
0.25
141
0.0
143
1.0
145
0.125
147
0.125
171
     4
274
     4
279
     2
284
     2
285
     2
286
     2
340
7F2
  0
DIMSTYLE
105
7F5
330
7A7
100
AcDbSymbolTableRecord
100
AcDbDimStyleTableRecord
  2
Annotative
 70
     0
340
7F2
1001
AcadAnnotative
1000
AnnotativeData
1002
{
1070
     1
1070
     1
1002
}
  0
ENDTAB
  0
TABLE
  2
BLOCK_RECORD
  5
79E
330
0
100
AcDbSymbolTable
 70
     3
  0
BLOCK_RECORD
  5
80C
330
79E
100
AcDbSymbolTableRecord
100
AcDbBlockTableRecord
  2
*Model_Space
340
80F
 70
     0
280
     1
281
     0
  0
BLOCK_RECORD
  5
808
330
79E
100
AcDbSymbolTableRecord
100
AcDbBlockTableRecord
  2
*Paper_Space
340
80B
 70
     0
280
     1
281
     0
  0
BLOCK_RECORD
  5
815
330
79E
100
AcDbSymbolTableRecord
100
AcDbBlockTableRecord
  2
$MODEL_SPACE
340
0
 70
     0
280
     1
281
     0
  0
BLOCK_RECORD
  5
817
330
79E
100
AcDbSymbolTableRecord
100
AcDbBlockTableRecord
  2
$PAPER_SPACE
340
0
 70
     0
280
     1
281
     0
  0
BLOCK_RECORD
  5
819
330
79E
100
AcDbSymbolTableRecord
100
AcDbBlockTableRecord
  2
TERMINATOROPEN
340
0
 70
     0
280
     1
281
     0
  0
ENDTAB
  0
ENDSEC
  0
SECTION
  2
BLOCKS
  0
BLOCK
  5
80D
330
80C
100
AcDbEntity
  8
0
100
AcDbBlockBegin
  2
*Model_Space
 70
     0
 10
0.0
 20
0.0
 30
0.0
  3
*Model_Space
  1

  0
ENDBLK
  5
80E
330
80C
100
AcDbEntity
  8
0
100
AcDbBlockEnd
  0
BLOCK
  5
809
330
808
100
AcDbEntity
 67
     1
  8
0
100
AcDbBlockBegin
  2
*Paper_Space
 70
     0
 10
0.0
 20
0.0
 30
0.0
  3
*Paper_Space
  1

  0
ENDBLK
  5
80A
330
808
100
AcDbEntity
 67
     1
  8
0
100
AcDbBlockEnd
  0
BLOCK
  5
816
330
815
100
AcDbEntity
  8
0
100
AcDbBlockBegin
  2
$MODEL_SPACE
 70
     0
 10
0.0
 20
0.0
 30
0.0
  3
$MODEL_SPACE
  1

  0
ENDBLK
  5
539
330
815
100
AcDbEntity
  8
0
100
AcDbBlockEnd
  0
BLOCK
  5
818
330
817
100
AcDbEntity
  8
0
100
AcDbBlockBegin
  2
$PAPER_SPACE
 70
     0
 10
0.0
 20
0.0
 30
0.0
  3
$PAPER_SPACE
  1

  0
ENDBLK
  5
535
330
817
100
AcDbEntity
  8
0
100
AcDbBlockEnd
  0
BLOCK
  5
81A
330
819
100
AcDbEntity
  8
0
  6
Continuous
 62
     0
100
AcDbBlockBegin
  2
TERMINATOROPEN
 70
     0
 10
0.0
 20
0.0
 30
0.0
  3
TERMINATOROPEN
  1

  0
LINE
  5
564
330
819
100
AcDbEntity
  8
0
  6
Continuous
 62
     0
100
AcDbLine
 10
0.0
 20
0.0
 30
0.0
 11
-1.0
 21
0.0
 31
0.0
  0
LINE
  5
565
330
819
100
AcDbEntity
  8
0
  6
Continuous
 62
     0
100
AcDbLine
 10
0.0
 20
0.0
 30
0.0
 11
-1.0
 21
0.25
 31
0.0
  0
LINE
  5
566
330
819
100
AcDbEntity
  8
0
  6
Continuous
 62
     0
100
AcDbLine
 10
0.0
 20
0.0
 30
0.0
 11
-1.0
 21
-0.25
 31
0.0
  0
ENDBLK
  5
567
330
819
100
AcDbEntity
  8
0
  6
Continuous
 62
     0
100
AcDbBlockEnd
  0
ENDSEC
  0
SECTION
  2
ENTITIES
  0
LINE
  5
250
330
80C
100
AcDbEntity
  8
0
  6
Continuous
100
AcDbLine
 10
0.8973459999999999
 20
5.496596
 30
0.0
 11
0.8973459999999999
 21
5.096047
 31
0.0
  0
LINE
  5
259
330
80C
100
AcDbEntity
  8
0
  6
Continuous
100
AcDbLine
 10
1.393770999999999
 20
5.096047
 30
0.0
 11
1.393770999999999
 21
4.919208999999999
 31
0.0
  0
LINE
  5
25A
330
80C
100
AcDbEntity
  8
0
  6
Continuous
100
AcDbLine
 10
1.393770999999999
 20
4.919208999999999
 30
0.0
 11
1.568479
 21
4.919208999999999
 31
0.0
  0
LINE
  5
25C
330
80C
100
AcDbEntity
  8
0
  6
Continuous
100
AcDbLine
 10
1.568479
 20
5.264362999999999
 30
0.0
 11
1.472603
 21
5.264362999999999
 31
0.0
  0
LINE
  5
260
330
80C
100
AcDbEntity
  8
0
  6
Continuous
100
AcDbLine
 10
1.472603
 20
5.102438
 30
0.0
 11
1.527998
 21
5.102438
 31
0.0
  0
LINE
  5
261
330
80C
100
AcDbEntity
  8
0
  6
Continuous
100
AcDbLine
 10
1.527998
 20
5.102438
 30
0.0
 11
1.527998
 21
5.079002
 31
0.0
  0
LINE
  5
262
330
80C
100
AcDbEntity
  8
0
  6
Continuous
100
AcDbLine
 10
1.527998
 20
5.079002
 30
0.0
 11
1.453427
 21
5.079002
 31
0.0
  0
LINE
  5
251
330
80C
100
AcDbEntity
  8
0
  6
Continuous
100
AcDbLine
 10
0.8973459999999999
 20
5.096047
 30
0.0
 11
1.393770999999999
 21
5.096047
 31
0.0
  0
LINE
  5
263
330
80C
100
AcDbEntity
  8
0
  6
Continuous
100
AcDbLine
 10
1.472603
 20
5.235732999999998
 30
0.0
 11
1.453427
 21
5.235732999999998
 31
0.0
  0
LINE
  5
264
330
80C
100
AcDbEntity
  8
0
  6
Continuous
100
AcDbLine
 10
1.472603
 20
5.177674999999998
 30
0.0
 11
1.453427
 21
5.177674999999998
 31
0.0
  0
LINE
  5
252
330
80C
100
AcDbEntity
  8
0
  6
Continuous
100
AcDbLine
 10
1.453427
 20
5.079002
 30
0.0
 11
1.453427
 21
5.177674999999998
 31
0.0
  0
LINE
  5
265
330
80C
100
AcDbEntity
  8
0
  6
Continuous
100
AcDbLine
 10
1.453427
 20
5.235732999999998
 30
0.0
 11
1.453427
 21
5.496596
 31
0.0
  0
LINE
  5
25D
330
80C
100
AcDbEntity
  8
0
  6
Continuous
100
AcDbLine
 10
1.472603
 20
5.264362999999999
 30
0.0
 11
1.472603
 21
5.235732999999998
 31
0.0
  0
LWPOLYLINE
  5
26B
330
80C
100
AcDbEntity
  8
0
  6
Continuous
100
AcDbPolyline
 90
        4
 70
     1
 43
0.0
 10
2.210849
 20
4.973271999999998
 10
2.210849
 20
4.973271999999998
 10
2.210849
 20
4.973271999999998
 10
2.210849
 20
4.973271999999998
  0
LINE
  5
266
330
80C
100
AcDbEntity
  8
0
  6
Continuous
100
AcDbLine
 10
1.472603
 20
5.177674999999998
 30
0.0
 11
1.472603
 21
5.102438
 31
0.0
  0
LINE
  5
25B
330
80C
100
AcDbEntity
  8
0
  6
Continuous
100
AcDbLine
 10
1.568479
 20
4.919208999999999
 30
0.0
 11
1.568479
 21
5.177674999999998
 31
0.0
  0
LINE
  5
26F
330
80C
100
AcDbEntity
  8
0
  6
Continuous
100
AcDbLine
 10
1.568479
 20
5.235732999999998
 30
0.0
 11
1.568479
 21
5.264362999999999
 31
0.0
  0
LINE
  5
270
330
80C
100
AcDbEntity
  8
0
  6
Continuous
100
AcDbLine
 10
1.587118
 20
5.235732999999998
 30
0.0
 11
1.587903
 21
5.235732999999998
 31
0.0
  0
LINE
  5
26C
330
80C
100
AcDbEntity
  8
0
  6
Continuous
100
AcDbLine
 10
1.568479
 20
5.235732999999998
 30
0.0
 11
1.587653999999999
 21
5.235732999999998
 31
0.0
  0
LINE
  5
26D
330
80C
100
AcDbEntity
  8
0
  6
Continuous
100
AcDbLine
 10
1.568479
 20
5.177674999999998
 30
0.0
 11
1.587653999999999
 21
5.177674999999998
 31
0.0
  0
LINE
  5
26E
330
80C
100
AcDbEntity
  8
0
  6
Continuous
100
AcDbLine
 10
1.914697999999998
 20
5.235732999999998
 30
0.0
 11
1.947722
 21
5.235732999999998
 31
0.0
  0
LINE
  5
272
330
80C
100
AcDbEntity
  8
0
  6
Continuous
100
AcDbLine
 10
1.914697999999998
 20
5.177674999999998
 30
0.0
 11
1.947722
 21
5.177674999999998
 31
0.0
  0
LWPOLYLINE
  5
275
330
80C
100
AcDbEntity
  8
0
  6
Continuous
100
AcDbPolyline
 90
        4
 70
     0
 43
0.0
 10
2.210849
 20
5.177674999999998
 10
2.210849
 20
4.973271999999998
 10
1.947722
 20
4.973271999999998
 10
1.947722
 20
5.177674999999998
  0
LWPOLYLINE
  5
271
330
80C
100
AcDbEntity
  8
0
  6
Continuous
100
AcDbPolyline
 90
        4
 70
     0
 43
0.0
 10
1.587653999999999
 20
5.235732999999998
 10
1.587653999999999
 20
5.44413
 10
1.914697999999998
 20
5.44413
 10
1.914697999999998
 20
5.235732999999998
  0
LWPOLYLINE
  5
277
330
80C
100
AcDbEntity
  8
0
  6
Continuous
100
AcDbPolyline
 90
        4
 70
     0
 43
0.0
 10
1.914697999999998
 20
5.177674999999998
 10
1.914697999999998
 20
4.973271999999998
 10
1.587653999999999
 20
4.973271999999998
 10
1.587653999999999
 20
5.177674999999998
  0
LINE
  5
274
330
80C
100
AcDbEntity
  8
0
  6
Continuous
100
AcDbLine
 10
2.210849
 20
5.177674999999998
 30
0.0
 11
2.248133999999998
 21
5.177674999999998
 31
0.0
  0
LINE
  5
273
330
80C
100
AcDbEntity
  8
0
  6
Continuous
100
AcDbLine
 10
2.210849
 20
5.235732999999998
 30
0.0
 11
2.248133999999998
 21
5.235732999999998
 31
0.0
  0
LINE
  5
282
330
80C
100
AcDbEntity
  8
0
  6
Continuous
100
AcDbLine
 10
2.581478999999999
 20
5.133570999999998
 30
0.0
 11
2.581478999999999
 21
4.909673999999998
 31
0.0
  0
LINE
  5
2AA
330
80C
100
AcDbEntity
  8
0
  6
Continuous
100
AcDbLine
 10
4.613071999999998
 20
5.092559999999998
 30
0.0
 11
4.613071999999998
 21
5.116278
 31
0.0
  0
LINE
  5
2B4
330
80C
100
AcDbEntity
  8
0
  6
Continuous
100
AcDbLine
 10
2.180502999999998
 20
7.035306
 30
0.0
 11
2.180502999999998
 21
7.259110999999998
 31
0.0
  0
LINE
  5
2BA
330
80C
100
AcDbEntity
  8
0
  6
Continuous
100
AcDbLine
 10
2.178199
 20
7.01353
 30
0.0
 11
2.178199
 21
6.869945999999999
 31
0.0
  0
LINE
  5
2EF
330
80C
100
AcDbEntity
  8
0
  6
Continuous
100
AcDbLine
 10
2.907386999999999
 20
5.133570999999998
 30
0.0
 11
2.907386999999999
 21
4.909673999999998
 31
0.0
  0
LINE
  5
2F0
330
80C
100
AcDbEntity
  8
0
  6
Continuous
100
AcDbLine
 10
3.195667999999999
 20
5.133570999999998
 30
0.0
 11
3.195667999999999
 21
4.909673999999998
 31
0.0
  0
LINE
  5
2F8
330
80C
100
AcDbEntity
  8
0
  6
Continuous
100
AcDbLine
 10
2.313600999999998
 20
6.492479999999999
 30
0.0
 11
2.313600999999998
 21
6.147992999999999
 31
0.0
  0
LINE
  5
2F9
330
80C
100
AcDbEntity
  8
0
  6
Continuous
100
AcDbLine
 10
2.313600999999998
 20
6.492479999999999
 30
0.0
 11
2.636331
 21
6.492479999999999
 31
0.0
  0
LINE
  5
2FA
330
80C
100
AcDbEntity
  8
0
  6
Continuous
100
AcDbLine
 10
2.636331
 20
6.492479999999999
 30
0.0
 11
2.636331
 21
6.438087
 31
0.0
  0
LINE
  5
2FF
330
80C
100
AcDbEntity
  8
0
  6
Continuous
100
AcDbLine
 10
3.434088999999998
 20
6.465205999999999
 30
0.0
 11
3.434088999999998
 21
6.336553999999999
 31
0.0
  0
LINE
  5
30A
330
80C
100
AcDbEntity
  8
0
  6
Continuous
100
AcDbLine
 10
0.954269
 20
6.683991999999999
 30
0.0
 11
0.954269
 21
6.663596
 31
0.0
  0
LINE
  5
30B
330
80C
100
AcDbEntity
  8
0
  6
Continuous
100
AcDbLine
 10
1.003459
 20
6.683991999999999
 30
0.0
 11
1.003459
 21
6.663596
 31
0.0
  0
LINE
  5
30E
330
80C
100
AcDbEntity
  8
0
  6
Continuous
100
AcDbLine
 10
1.350190999999999
 20
6.564015999999999
 30
0.0
 11
1.432172
 21
6.645997999999999
 31
0.0
  0
LINE
  5
313
330
80C
100
AcDbEntity
  8
0
  6
Continuous
100
AcDbLine
 10
1.335906999999999
 20
6.803855
 30
0.0
 11
1.42334
 21
6.716421999999999
 31
0.0
  0
LINE
  5
315
330
80C
100
AcDbEntity
  8
0
  6
Continuous
100
AcDbLine
 10
1.106638999999999
 20
6.733183
 30
0.0
 11
1.159427999999999
 21
6.733183
 31
0.0
  0
LINE
  5
316
330
80C
100
AcDbEntity
  8
0
  6
Continuous
100
AcDbLine
 10
1.106638999999999
 20
6.821964999999999
 30
0.0
 11
1.229014999999999
 21
6.821964999999999
 31
0.0
  0
LINE
  5
318
330
80C
100
AcDbEntity
  8
0
  6
Continuous
100
AcDbLine
 10
1.229014999999999
 20
6.821964999999999
 30
0.0
 11
1.229014999999999
 21
6.802768999999999
 31
0.0
  0
LINE
  5
319
330
80C
100
AcDbEntity
  8
0
  6
Continuous
100
AcDbLine
 10
1.071845999999998
 20
6.761976999999999
 30
0.0
 11
1.106638999999999
 21
6.761976999999999
 31
0.0
  0
LINE
  5
31A
330
80C
100
AcDbEntity
  8
0
  6
Continuous
100
AcDbLine
 10
1.106638999999999
 20
6.807567999999998
 30
0.0
 11
1.071845999999998
 21
6.807567999999998
 31
0.0
  0
LINE
  5
31D
330
80C
100
AcDbEntity
  8
0
  6
Continuous
100
AcDbLine
 10
1.071845999999998
 20
6.529222999999999
 30
0.0
 11
1.146230999999998
 21
6.529222999999999
 31
0.0
  0
LINE
  5
31F
330
80C
100
AcDbEntity
  8
0
  6
Continuous
100
AcDbLine
 10
1.113837
 20
6.615605999999998
 30
0.0
 11
1.159427999999999
 21
6.615605999999998
 31
0.0
  0
LINE
  5
320
330
80C
100
AcDbEntity
  8
0
  6
Continuous
100
AcDbLine
 10
1.350190999999999
 20
6.564015999999999
 30
0.0
 11
1.232613999999998
 21
6.564015999999999
 31
0.0
  0
LINE
  5
2DB
330
80C
100
AcDbEntity
  8
0
  6
Continuous
100
AcDbLine
 10
4.268049999999998
 20
6.114967
 30
0.0
 11
4.268049999999998
 21
6.054210999999999
 31
0.0
  0
LINE
  5
2DA
330
80C
100
AcDbEntity
  8
0
  6
Continuous
100
AcDbLine
 10
4.231456999999998
 20
6.114967
 30
0.0
 11
4.231456999999998
 21
6.054210999999999
 31
0.0
  0
LINE
  5
32C
330
80C
100
AcDbEntity
  8
0
  6
Continuous
100
AcDbLine
 10
4.268049999999998
 20
5.902955999999998
 30
0.0
 11
4.268049999999998
 21
5.841483
 31
0.0
  0
LINE
  5
32B
330
80C
100
AcDbEntity
  8
0
  6
Continuous
100
AcDbLine
 10
4.231456999999998
 20
5.902955999999998
 30
0.0
 11
4.231456999999998
 21
5.841483
 31
0.0
  0
LINE
  5
329
330
80C
100
AcDbEntity
  8
0
  6
Continuous
100
AcDbLine
 10
4.231456999999998
 20
6.054210999999999
 30
0.0
 11
4.268049999999998
 21
6.054210999999999
 31
0.0
  0
LINE
  5
2D7
330
80C
100
AcDbEntity
  8
0
  6
Continuous
100
AcDbLine
 10
3.809407999999999
 20
6.054210999999999
 30
0.0
 11
3.836244
 21
6.054210999999999
 31
0.0
  0
LINE
  5
2D6
330
80C
100
AcDbEntity
  8
0
  6
Continuous
100
AcDbLine
 10
4.268049999999998
 20
5.902955999999998
 30
0.0
 11
4.231456999999998
 21
5.902955999999998
 31
0.0
  0
LINE
  5
330
330
80C
100
AcDbEntity
  8
0
  6
Continuous
100
AcDbLine
 10
3.836244
 20
5.902955999999998
 30
0.0
 11
3.809407999999999
 21
5.902955999999998
 31
0.0
  0
LINE
  5
32F
330
80C
100
AcDbEntity
  8
0
  6
Continuous
100
AcDbLine
 10
3.809407999999999
 20
6.054210999999999
 30
0.0
 11
3.809407999999999
 21
6.114967
 31
0.0
  0
LINE
  5
333
330
80C
100
AcDbEntity
  8
0
  6
Continuous
100
AcDbLine
 10
3.836244
 20
6.054210999999999
 30
0.0
 11
3.836244
 21
6.114967
 31
0.0
  0
LINE
  5
2DF
330
80C
100
AcDbEntity
  8
0
  6
Continuous
100
AcDbLine
 10
3.836244
 20
5.841483
 30
0.0
 11
3.836244
 21
5.902955999999998
 31
0.0
  0
LINE
  5
2E0
330
80C
100
AcDbEntity
  8
0
  6
Continuous
100
AcDbLine
 10
3.809407999999999
 20
5.841483
 30
0.0
 11
3.809407999999999
 21
5.902955999999998
 31
0.0
  0
LINE
  5
2D8
330
80C
100
AcDbEntity
  8
0
  6
Continuous
100
AcDbLine
 10
3.970420999999999
 20
6.200586
 30
0.0
 11
3.970420999999999
 21
6.17375
 31
0.0
  0
LINE
  5
2D9
330
80C
100
AcDbEntity
  8
0
  6
Continuous
100
AcDbLine
 10
4.107037999999999
 20
6.200586
 30
0.0
 11
4.107037999999999
 21
6.17375
 31
0.0
  0
LINE
  5
2E2
330
80C
100
AcDbEntity
  8
0
  6
Continuous
100
AcDbLine
 10
4.17795
 20
6.17375
 30
0.0
 11
4.107037999999999
 21
6.17375
 31
0.0
  0
LINE
  5
33A
330
80C
100
AcDbEntity
  8
0
  6
Continuous
100
AcDbLine
 10
3.970420999999999
 20
6.17375
 30
0.0
 11
3.890559999999999
 21
6.17375
 31
0.0
  0
LINE
  5
2E1
330
80C
100
AcDbEntity
  8
0
  6
Continuous
100
AcDbLine
 10
3.890559999999999
 20
6.200586
 30
0.0
 11
3.970420999999999
 21
6.200586
 31
0.0
  0
LINE
  5
33B
330
80C
100
AcDbEntity
  8
0
  6
Continuous
100
AcDbLine
 10
4.107037999999999
 20
6.200586
 30
0.0
 11
4.17795
 21
6.200586
 31
0.0
  0
LINE
  5
33D
330
80C
100
AcDbEntity
  8
0
  6
Continuous
100
AcDbLine
 10
4.17795
 20
6.17375
 30
0.0
 11
4.231456999999998
 21
6.114967
 31
0.0
  0
LINE
  5
33E
330
80C
100
AcDbEntity
  8
0
  6
Continuous
100
AcDbLine
 10
3.890559999999999
 20
6.17375
 30
0.0
 11
3.836244
 21
6.114967
 31
0.0
  0
LINE
  5
2DD
330
80C
100
AcDbEntity
  8
0
  6
Continuous
100
AcDbLine
 10
3.890559999999999
 20
5.771219
 30
0.0
 11
3.970420999999999
 21
5.771219
 31
0.0
  0
LINE
  5
341
330
80C
100
AcDbEntity
  8
0
  6
Continuous
100
AcDbLine
 10
4.107037999999999
 20
5.771219
 30
0.0
 11
4.17795
 21
5.771219
 31
0.0
  0
LINE
  5
2DE
330
80C
100
AcDbEntity
  8
0
  6
Continuous
100
AcDbLine
 10
4.173843999999998
 20
5.739504
 30
0.0
 11
4.107037999999999
 21
5.739504
 31
0.0
  0
LINE
  5
342
330
80C
100
AcDbEntity
  8
0
  6
Continuous
100
AcDbLine
 10
3.970420999999999
 20
5.739504
 30
0.0
 11
3.886454
 21
5.739504
 31
0.0
  0
LINE
  5
343
330
80C
100
AcDbEntity
  8
0
  6
Continuous
100
AcDbLine
 10
3.970420999999999
 20
5.771219
 30
0.0
 11
3.970420999999999
 21
5.739504
 31
0.0
  0
LINE
  5
345
330
80C
100
AcDbEntity
  8
0
  6
Continuous
100
AcDbLine
 10
4.107037999999999
 20
5.771219
 30
0.0
 11
4.107037999999999
 21
5.739504
 31
0.0
  0
LINE
  5
347
330
80C
100
AcDbEntity
  8
0
  6
Continuous
100
AcDbLine
 10
3.836244
 20
5.841483
 30
0.0
 11
3.890559999999999
 21
5.771219
 31
0.0
  0
LINE
  5
348
330
80C
100
AcDbEntity
  8
0
  6
Continuous
100
AcDbLine
 10
4.231456999999998
 20
5.841483
 30
0.0
 11
4.17795
 21
5.771219
 31
0.0
  0
LINE
  5
34F
330
80C
100
AcDbEntity
  8
0
  6
Continuous
100
AcDbLine
 10
3.541391999999999
 20
5.107412999999999
 30
0.0
 11
3.521799999999998
 21
5.107412999999999
 31
0.0
  0
LINE
  5
326
330
80C
100
AcDbEntity
  8
0
  6
Continuous
100
AcDbLine
 10
4.68334
 20
6.86589
 30
0.0
 11
4.637978999999999
 21
6.820528999999999
 31
0.0
  0
LINE
  5
322
330
80C
100
AcDbEntity
  8
0
  6
Continuous
100
AcDbLine
 10
4.958679
 20
6.86589
 30
0.0
 11
5.012307999999999
 21
6.812261
 31
0.0
  0
LINE
  5
327
330
80C
100
AcDbEntity
  8
0
  6
Continuous
100
AcDbLine
 10
5.012307999999999
 20
6.547321
 30
0.0
 11
4.964686
 21
6.499698999999998
 31
0.0
  0
LINE
  5
324
330
80C
100
AcDbEntity
  8
0
  6
Continuous
100
AcDbLine
 10
4.637978999999999
 20
6.537698999999999
 30
0.0
 11
4.675978999999998
 21
6.499698999999998
 31
0.0
  0
LWPOLYLINE
  5
359
330
80C
100
AcDbEntity
  8
0
  6
Continuous
100
AcDbPolyline
 90
        2
 70
     0
 43
0.0
 10
4.68334
 20
6.86589
 10
4.958679
 20
6.86589
  0
LWPOLYLINE
  5
35A
330
80C
100
AcDbEntity
  8
0
  6
Continuous
100
AcDbPolyline
 90
        2
 70
     0
 43
0.0
 10
5.012307999999999
 20
6.812261
 10
5.012307999999999
 20
6.547321
  0
LINE
  5
35E
330
80C
100
AcDbEntity
  8
0
  6
Continuous
100
AcDbLine
 10
4.637978999999999
 20
6.645997999999999
 30
0.0
 11
4.637978999999999
 21
6.537698999999999
 31
0.0
  0
LINE
  5
35C
330
80C
100
AcDbEntity
  8
0
  6
Continuous
100
AcDbLine
 10
4.610913
 20
6.645997999999999
 30
0.0
 11
4.637978999999999
 21
6.645997999999999
 31
0.0
  0
LINE
  5
35D
330
80C
100
AcDbEntity
  8
0
  6
Continuous
100
AcDbLine
 10
4.610913
 20
6.716421999999999
 30
0.0
 11
4.637978999999999
 21
6.716421999999999
 31
0.0
  0
LINE
  5
303
330
80C
100
AcDbEntity
  8
0
  6
Continuous
100
AcDbLine
 10
4.637978999999999
 20
6.820528999999999
 30
0.0
 11
4.637978999999999
 21
6.716421999999999
 31
0.0
  0
LINE
  5
304
330
80C
100
AcDbEntity
  8
0
  6
Continuous
100
AcDbLine
 10
4.610913
 20
6.86589
 30
0.0
 11
4.610913
 21
6.716421999999999
 31
0.0
  0
LINE
  5
361
330
80C
100
AcDbEntity
  8
0
  6
Continuous
100
AcDbLine
 10
4.610913
 20
6.645997999999999
 30
0.0
 11
4.610913
 21
6.499698999999998
 31
0.0
  0
LWPOLYLINE
  5
35B
330
80C
100
AcDbEntity
  8
0
  6
Continuous
100
AcDbPolyline
 90
        2
 70
     0
 43
0.0
 10
4.964686
 20
6.499698999999998
 10
4.863308999999999
 20
6.499698999999998
  0
LWPOLYLINE
  5
362
330
80C
100
AcDbEntity
  8
0
  6
Continuous
100
AcDbPolyline
 90
        2
 70
     0
 43
0.0
 10
4.785242
 20
6.499698999999998
 10
4.675978999999998
 20
6.499698999999998
  0
LINE
  5
2D1
330
80C
100
AcDbEntity
  8
0
  6
Continuous
100
AcDbLine
 10
4.785242
 20
6.499698999999998
 30
0.0
 11
4.785242
 21
6.416262999999998
 31
0.0
  0
LINE
  5
365
330
80C
100
AcDbEntity
  8
0
  6
Continuous
100
AcDbLine
 10
4.863308999999999
 20
6.416262999999998
 30
0.0
 11
4.863308999999999
 21
6.499698999999998
 31
0.0
  0
LINE
  5
367
330
80C
100
AcDbEntity
  8
0
  6
Continuous
100
AcDbLine
 10
4.609034999999999
 20
6.002978999999998
 30
0.0
 11
4.627576
 21
6.002978999999998
 31
0.0
  0
LINE
  5
2D4
330
80C
100
AcDbEntity
  8
0
  6
Continuous
100
AcDbLine
 10
4.627576
 20
5.939549999999998
 30
0.0
 11
4.609034999999999
 21
5.939549999999998
 31
0.0
  0
LWPOLYLINE
  5
331
330
80C
100
AcDbEntity
  8
0
  6
Continuous
100
AcDbPolyline
 90
        3
 70
     0
 43
0.0
 10
4.268049999999998
 20
6.114967
 10
4.609034999999999
 20
6.114967
 10
4.609034999999999
 20
6.002978999999998
  0
LWPOLYLINE
  5
368
330
80C
100
AcDbEntity
  8
0
  6
Continuous
100
AcDbPolyline
 90
        3
 70
     0
 43
0.0
 10
4.609034999999999
 20
5.939549999999998
 10
4.609034999999999
 20
5.841483
 10
4.268049999999998
 20
5.841483
  0
LWPOLYLINE
  5
369
330
80C
100
AcDbEntity
  8
0
  6
Continuous
100
AcDbPolyline
 90
        3
 70
     0
 43
0.0
 10
4.627576
 20
6.002978999999998
 10
4.627576
 20
6.416262999999998
 10
4.785242
 20
6.416262999999998
  0
LINE
  5
2D2
330
80C
100
AcDbEntity
  8
0
  6
Continuous
100
AcDbLine
 10
4.863308999999999
 20
5.49826
 30
0.0
 11
4.863308999999999
 21
5.526280999999999
 31
0.0
  0
LINE
  5
36B
330
80C
100
AcDbEntity
  8
0
  6
Continuous
100
AcDbLine
 10
4.785242
 20
5.526280999999999
 30
0.0
 11
4.785242
 21
5.49826
 31
0.0
  0
LWPOLYLINE
  5
363
330
80C
100
AcDbEntity
  8
0
  6
Continuous
100
AcDbPolyline
 90
        4
 70
     0
 43
0.0
 10
4.863308999999999
 20
6.416262999999998
 10
5.007672999999999
 20
6.416262999999998
 10
5.007672999999999
 20
5.526280999999999
 10
4.863308999999999
 20
5.526280999999999
  0
LWPOLYLINE
  5
36C
330
80C
100
AcDbEntity
  8
0
  6
Continuous
100
AcDbPolyline
 90
        3
 70
     0
 43
0.0
 10
4.785242
 20
5.526280999999999
 10
4.627576
 20
5.526280999999999
 10
4.627576
 20
5.939549999999998
  0
LINE
  5
370
330
80C
100
AcDbEntity
  8
0
  6
Continuous
100
AcDbLine
 10
4.563754999999999
 20
5.44413
 30
0.0
 11
4.649888999999999
 21
5.44413
 31
0.0
  0
LINE
  5
371
330
80C
100
AcDbEntity
  8
0
  6
Continuous
100
AcDbLine
 10
4.543783
 20
5.399454999999999
 30
0.0
 11
4.543783
 21
5.44413
 31
0.0
  0
LINE
  5
372
330
80C
100
AcDbEntity
  8
0
  6
Continuous
100
AcDbLine
 10
4.543783
 20
5.246368
 30
0.0
 11
4.543783
 21
5.399454999999999
 31
0.0
  0
LWPOLYLINE
  5
373
330
80C
100
AcDbEntity
  8
0
  6
Continuous
100
AcDbPolyline
 90
        2
 70
     0
 43
0.0
 10
4.563754999999999
 20
5.246368
 10
4.563754999999999
 20
5.44413
  0
LINE
  5
2A1
330
80C
100
AcDbEntity
  8
0
  6
Continuous
100
AcDbLine
 10
4.543783
 20
4.971473999999998
 30
0.0
 11
4.543783
 21
5.174495
 31
0.0
  0
LWPOLYLINE
  5
378
330
80C
100
AcDbEntity
  8
0
  6
Continuous
100
AcDbPolyline
 90
        3
 70
     0
 43
0.0
 10
4.676102999999999
 20
5.246368
 10
4.676102999999999
 20
5.49826
 10
4.785242
 20
5.49826
  0
LWPOLYLINE
  5
36F
330
80C
100
AcDbEntity
  8
0
  6
Continuous
100
AcDbPolyline
 90
        2
 70
     0
 43
0.0
 10
4.649888999999999
 20
5.44413
 10
4.649888999999999
 20
5.246368
  0
LINE
  5
34D
330
80C
100
AcDbEntity
  8
0
  6
Continuous
100
AcDbLine
 10
4.676102999999999
 20
5.246368
 30
0.0
 11
4.649888999999999
 21
5.246368
 31
0.0
  0
LINE
  5
37A
330
80C
100
AcDbEntity
  8
0
  6
Continuous
100
AcDbLine
 10
4.563754999999999
 20
5.246368
 30
0.0
 11
4.543783
 21
5.246368
 31
0.0
  0
LINE
  5
37D
330
80C
100
AcDbEntity
  8
0
  6
Continuous
100
AcDbLine
 10
4.563754999999999
 20
5.174495
 30
0.0
 11
4.543783
 21
5.174495
 31
0.0
  0
LINE
  5
380
330
80C
100
AcDbEntity
  8
0
  6
Continuous
100
AcDbLine
 10
4.676102999999999
 20
5.174495
 30
0.0
 11
4.649888999999999
 21
5.174495
 31
0.0
  0
LWPOLYLINE
  5
382
330
80C
100
AcDbEntity
  8
0
  6
Continuous
100
AcDbPolyline
 90
        2
 70
     0
 43
0.0
 10
4.563754999999999
 20
5.116278
 10
4.563754999999999
 20
5.174495
  0
LWPOLYLINE
  5
383
330
80C
100
AcDbEntity
  8
0
  6
Continuous
100
AcDbPolyline
 90
        4
 70
     0
 43
0.0
 10
4.741014999999999
 20
5.092559999999998
 10
4.741014999999999
 20
4.936522
 10
4.563754999999999
 20
4.936522
 10
4.563754999999999
 20
5.116278
  0
LWPOLYLINE
  5
36D
330
80C
100
AcDbEntity
  8
0
  6
Continuous
100
AcDbPolyline
 90
        4
 70
     0
 43
0.0
 10
4.863308999999999
 20
5.49826
 10
5.200391999999999
 20
5.49826
 10
5.200391999999999
 20
5.092559999999998
 10
4.741014999999999
 20
5.092559999999998
  0
LINE
  5
2A9
330
80C
100
AcDbEntity
  8
0
  6
Continuous
100
AcDbLine
 10
4.676102999999999
 20
5.092559999999998
 30
0.0
 11
4.613071999999998
 21
5.092559999999998
 31
0.0
  0
LWPOLYLINE
  5
384
330
80C
100
AcDbEntity
  8
0
  6
Continuous
100
AcDbPolyline
 90
        2
 70
     0
 43
0.0
 10
4.676102999999999
 20
5.092559999999998
 10
4.676102999999999
 20
5.174495
  0
LWPOLYLINE
  5
385
330
80C
100
AcDbEntity
  8
0
  6
Continuous
100
AcDbPolyline
 90
        2
 70
     0
 43
0.0
 10
4.649888999999999
 20
5.116278
 10
4.613071999999998
 20
5.116278
  0
LWPOLYLINE
  5
376
330
80C
100
AcDbEntity
  8
0
  6
Continuous
100
AcDbPolyline
 90
        2
 70
     0
 43
0.0
 10
4.649888999999999
 20
5.174495
 10
4.649888999999999
 20
5.116278
  0
LWPOLYLINE
  5
381
330
80C
100
AcDbEntity
  8
0
  6
Continuous
100
AcDbPolyline
 90
        2
 70
     0
 43
0.0
 10
4.619930999999999
 20
5.116278
 10
4.640335999999999
 20
5.116278
  0
LINE
  5
387
330
80C
100
AcDbEntity
  8
0
  6
Continuous
100
AcDbLine
 10
4.214228999999999
 20
5.44413
 30
0.0
 11
4.543783
 21
5.44413
 31
0.0
  0
LINE
  5
27B
330
80C
100
AcDbEntity
  8
0
  6
Continuous
100
AcDbLine
 10
3.541391999999999
 20
5.44413
 30
0.0
 11
3.869697
 21
5.44413
 31
0.0
  0
LINE
  5
38B
330
80C
100
AcDbEntity
  8
0
  6
Continuous
100
AcDbLine
 10
3.985652999999999
 20
5.472863999999999
 30
0.0
 11
3.985652999999999
 21
5.454234999999998
 31
0.0
  0
LINE
  5
38D
330
80C
100
AcDbEntity
  8
0
  6
Continuous
100
AcDbLine
 10
4.081484999999998
 20
5.454234999999998
 30
0.0
 11
4.081484999999998
 21
5.472863999999999
 31
0.0
  0
LWPOLYLINE
  5
340
330
80C
100
AcDbEntity
  8
0
  6
Continuous
100
AcDbPolyline
 90
        2
 70
     0
 43
0.0
 10
4.173843999999998
 20
5.739504
 10
4.173843999999998
 20
5.472863999999999
  0
LWPOLYLINE
  5
38E
330
80C
100
AcDbEntity
  8
0
  6
Continuous
100
AcDbPolyline
 90
        2
 70
     0
 43
0.0
 10
4.186766999999998
 20
5.454234999999998
 10
4.081484999999998
 20
5.454234999999998
  0
LINE
  5
388
330
80C
100
AcDbEntity
  8
0
  6
Continuous
100
AcDbLine
 10
4.081484999999998
 20
5.472863999999999
 30
0.0
 11
4.173843999999998
 21
5.472863999999999
 31
0.0
  0
LINE
  5
352
330
80C
100
AcDbEntity
  8
0
  6
Continuous
100
AcDbLine
 10
3.886454
 20
5.472863999999999
 30
0.0
 11
3.985652999999999
 21
5.472863999999999
 31
0.0
  0
LWPOLYLINE
  5
38F
330
80C
100
AcDbEntity
  8
0
  6
Continuous
100
AcDbPolyline
 90
        2
 70
     0
 43
0.0
 10
3.886454
 20
5.472863999999999
 10
3.886454
 20
5.739504
  0
LWPOLYLINE
  5
389
330
80C
100
AcDbEntity
  8
0
  6
Continuous
100
AcDbPolyline
 90
        2
 70
     0
 43
0.0
 10
3.985652999999999
 20
5.454234999999998
 10
3.885924999999998
 20
5.454234999999998
  0
LWPOLYLINE
  5
390
330
80C
100
AcDbEntity
  8
0
  6
Continuous
100
AcDbPolyline
 90
        2
 70
     0
 43
0.0
 10
4.17795
 20
6.465205999999999
 10
4.17795
 20
6.200586
  0
LWPOLYLINE
  5
336
330
80C
100
AcDbEntity
  8
0
  6
Continuous
100
AcDbPolyline
 90
        2
 70
     0
 43
0.0
 10
3.890559999999999
 20
6.200586
 10
3.890559999999999
 20
6.465205999999999
  0
LINE
  5
349
330
80C
100
AcDbEntity
  8
0
  6
Continuous
100
AcDbLine
 10
3.985652999999999
 20
6.499698999999998
 30
0.0
 11
3.985652999999999
 21
6.465205999999999
 31
0.0
  0
LINE
  5
392
330
80C
100
AcDbEntity
  8
0
  6
Continuous
100
AcDbLine
 10
4.081484999999998
 20
6.465205999999999
 30
0.0
 11
4.081484999999998
 21
6.499698999999998
 31
0.0
  0
LWPOLYLINE
  5
358
330
80C
100
AcDbEntity
  8
0
  6
Continuous
100
AcDbPolyline
 90
        2
 70
     0
 43
0.0
 10
4.610913
 20
6.499698999999998
 10
4.081484999999998
 20
6.499698999999998
  0
LINE
  5
395
330
80C
100
AcDbEntity
  8
0
  6
Continuous
100
AcDbLine
 10
3.890559999999999
 20
6.465205999999999
 30
0.0
 11
3.985652999999999
 21
6.465205999999999
 31
0.0
  0
LINE
  5
393
330
80C
100
AcDbEntity
  8
0
  6
Continuous
100
AcDbLine
 10
4.081484999999998
 20
6.465205999999999
 30
0.0
 11
4.17795
 21
6.465205999999999
 31
0.0
  0
LINE
  5
397
330
80C
100
AcDbEntity
  8
0
  6
Continuous
100
AcDbLine
 10
3.885924999999998
 20
5.246368
 30
0.0
 11
3.869697
 21
5.246368
 31
0.0
  0
LINE
  5
2A4
330
80C
100
AcDbEntity
  8
0
  6
Continuous
100
AcDbLine
 10
3.885924999999998
 20
5.454234999999998
 30
0.0
 11
3.885924999999998
 21
5.246368
 31
0.0
  0
LINE
  5
399
330
80C
100
AcDbEntity
  8
0
  6
Continuous
100
AcDbLine
 10
3.869697
 20
5.246368
 30
0.0
 11
3.869697
 21
5.44413
 31
0.0
  0
LINE
  5
39C
330
80C
100
AcDbEntity
  8
0
  6
Continuous
100
AcDbLine
 10
3.885924999999998
 20
5.174495
 30
0.0
 11
3.869697
 21
5.174495
 31
0.0
  0
LINE
  5
37B
330
80C
100
AcDbEntity
  8
0
  6
Continuous
100
AcDbLine
 10
4.214228999999999
 20
5.246368
 30
0.0
 11
4.186766999999998
 21
5.246368
 31
0.0
  0
LINE
  5
39D
330
80C
100
AcDbEntity
  8
0
  6
Continuous
100
AcDbLine
 10
4.214228999999999
 20
5.174495
 30
0.0
 11
4.186766999999998
 21
5.174495
 31
0.0
  0
LINE
  5
39F
330
80C
100
AcDbEntity
  8
0
  6
Continuous
100
AcDbLine
 10
4.186766999999998
 20
5.246368
 30
0.0
 11
4.186766999999998
 21
5.454234999999998
 31
0.0
  0
LINE
  5
2A2
330
80C
100
AcDbEntity
  8
0
  6
Continuous
100
AcDbLine
 10
4.214228999999999
 20
5.44413
 30
0.0
 11
4.214228999999999
 21
5.246368
 31
0.0
  0
LINE
  5
2A3
330
80C
100
AcDbEntity
  8
0
  6
Continuous
100
AcDbLine
 10
4.186766999999998
 20
4.971473999999998
 30
0.0
 11
4.186766999999998
 21
5.174495
 31
0.0
  0
LINE
  5
3A0
330
80C
100
AcDbEntity
  8
0
  6
Continuous
100
AcDbLine
 10
4.214228999999999
 20
4.971473999999998
 30
0.0
 11
4.543783
 21
4.971473999999998
 31
0.0
  0
LINE
  5
39E
330
80C
100
AcDbEntity
  8
0
  6
Continuous
100
AcDbLine
 10
4.214228999999999
 20
5.174495
 30
0.0
 11
4.214228999999999
 21
4.971473999999998
 31
0.0
  0
LINE
  5
2A0
330
80C
100
AcDbEntity
  8
0
  6
Continuous
100
AcDbLine
 10
3.541391999999999
 20
4.971473999999998
 30
0.0
 11
3.869697
 21
4.971473999999998
 31
0.0
  0
LINE
  5
3A1
330
80C
100
AcDbEntity
  8
0
  6
Continuous
100
AcDbLine
 10
3.885924999999998
 20
4.971473999999998
 30
0.0
 11
4.186766999999998
 21
4.971473999999998
 31
0.0
  0
LINE
  5
39B
330
80C
100
AcDbEntity
  8
0
  6
Continuous
100
AcDbLine
 10
3.885924999999998
 20
5.174495
 30
0.0
 11
3.885924999999998
 21
4.971473999999998
 31
0.0
  0
LINE
  5
2A5
330
80C
100
AcDbEntity
  8
0
  6
Continuous
100
AcDbLine
 10
3.869697
 20
4.971473999999998
 30
0.0
 11
3.869697
 21
5.174495
 31
0.0
  0
LINE
  5
350
330
80C
100
AcDbEntity
  8
0
  6
Continuous
100
AcDbLine
 10
3.541391999999999
 20
5.054705999999999
 30
0.0
 11
3.521799999999998
 21
5.054705999999999
 31
0.0
  0
LINE
  5
3A2
330
80C
100
AcDbEntity
  8
0
  6
Continuous
100
AcDbLine
 10
3.541391999999999
 20
5.054705999999999
 30
0.0
 11
3.541391999999999
 21
4.971473999999998
 31
0.0
  0
LINE
  5
3A3
330
80C
100
AcDbEntity
  8
0
  6
Continuous
100
AcDbLine
 10
3.521799999999998
 20
5.054705999999999
 30
0.0
 11
3.521799999999998
 21
4.909673999999998
 31
0.0
  0
LINE
  5
2A8
330
80C
100
AcDbEntity
  8
0
  6
Continuous
100
AcDbLine
 10
3.521799999999998
 20
5.133570999999998
 30
0.0
 11
3.521799999999998
 21
5.107412999999999
 31
0.0
  0
LINE
  5
29F
330
80C
100
AcDbEntity
  8
0
  6
Continuous
100
AcDbLine
 10
3.541391999999999
 20
5.44413
 30
0.0
 11
3.541391999999999
 21
5.340262999999999
 31
0.0
  0
LINE
  5
3A6
330
80C
100
AcDbEntity
  8
0
  6
Continuous
100
AcDbLine
 10
3.541391999999999
 20
5.273177999999998
 30
0.0
 11
3.541391999999999
 21
5.107412999999999
 31
0.0
  0
LINE
  5
3A7
330
80C
100
AcDbEntity
  8
0
  6
Continuous
100
AcDbLine
 10
3.404884999999998
 20
5.273177999999998
 30
0.0
 11
3.404884999999998
 21
5.155382999999999
 31
0.0
  0
LINE
  5
287
330
80C
100
AcDbEntity
  8
0
  6
Continuous
100
AcDbLine
 10
3.404884999999998
 20
5.44413
 30
0.0
 11
3.404884999999998
 21
5.340262999999999
 31
0.0
  0
LINE
  5
2EC
330
80C
100
AcDbEntity
  8
0
  6
Continuous
100
AcDbLine
 10
2.552807
 20
5.340262999999999
 30
0.0
 11
2.699643999999998
 21
5.340262999999999
 31
0.0
  0
LINE
  5
3A9
330
80C
100
AcDbEntity
  8
0
  6
Continuous
100
AcDbLine
 10
3.404884999999998
 20
5.340262999999999
 30
0.0
 11
3.541391999999999
 21
5.340262999999999
 31
0.0
  0
LINE
  5
2ED
330
80C
100
AcDbEntity
  8
0
  6
Continuous
100
AcDbLine
 10
3.541391999999999
 20
5.273177999999998
 30
0.0
 11
3.404884999999998
 21
5.273177999999998
 31
0.0
  0
LINE
  5
3AA
330
80C
100
AcDbEntity
  8
0
  6
Continuous
100
AcDbLine
 10
2.699643999999998
 20
5.273177999999998
 30
0.0
 11
2.552807
 21
5.273177999999998
 31
0.0
  0
LWPOLYLINE
  5
3AB
330
80C
100
AcDbEntity
  8
0
  6
Continuous
100
AcDbPolyline
 90
        2
 70
     0
 43
0.0
 10
3.478844999999998
 20
6.114967
 10
3.809407999999999
 20
6.114967
  0
LWPOLYLINE
  5
3AC
330
80C
100
AcDbEntity
  8
0
  6
Continuous
100
AcDbPolyline
 90
        2
 70
     0
 43
0.0
 10
3.264524
 20
6.114967
 10
3.449501
 20
6.114967
  0
LWPOLYLINE
  5
335
330
80C
100
AcDbEntity
  8
0
  6
Continuous
100
AcDbPolyline
 90
        2
 70
     0
 43
0.0
 10
3.809407999999999
 20
5.841483
 10
3.478844999999998
 20
5.841483
  0
LWPOLYLINE
  5
3AF
330
80C
100
AcDbEntity
  8
0
  6
Continuous
100
AcDbPolyline
 90
        2
 70
     0
 43
0.0
 10
3.449501
 20
5.841483
 10
3.264524
 20
5.841483
  0
LINE
  5
2E3
330
80C
100
AcDbEntity
  8
0
  6
Continuous
100
AcDbLine
 10
3.478844999999998
 20
6.114967
 30
0.0
 11
3.478844999999998
 21
6.002978999999998
 31
0.0
  0
LINE
  5
3B0
330
80C
100
AcDbEntity
  8
0
  6
Continuous
100
AcDbLine
 10
3.478844999999998
 20
5.939549999999998
 30
0.0
 11
3.478844999999998
 21
5.841483
 31
0.0
  0
LINE
  5
2E4
330
80C
100
AcDbEntity
  8
0
  6
Continuous
100
AcDbLine
 10
3.449501
 20
6.114967
 30
0.0
 11
3.449501
 21
6.002978999999998
 31
0.0
  0
LINE
  5
3AE
330
80C
100
AcDbEntity
  8
0
  6
Continuous
100
AcDbLine
 10
3.449501
 20
5.939549999999998
 30
0.0
 11
3.449501
 21
5.841483
 31
0.0
  0
LINE
  5
3B2
330
80C
100
AcDbEntity
  8
0
  6
Continuous
100
AcDbLine
 10
3.449501
 20
6.002978999999998
 30
0.0
 11
3.478844999999998
 21
6.002978999999998
 31
0.0
  0
LINE
  5
3B3
330
80C
100
AcDbEntity
  8
0
  6
Continuous
100
AcDbLine
 10
3.478844999999998
 20
5.939549999999998
 30
0.0
 11
3.449501
 21
5.939549999999998
 31
0.0
  0
LINE
  5
34C
330
80C
100
AcDbEntity
  8
0
  6
Continuous
100
AcDbLine
 10
3.264524
 20
6.114967
 30
0.0
 11
3.264524
 21
6.002978999999998
 31
0.0
  0
LINE
  5
3B4
330
80C
100
AcDbEntity
  8
0
  6
Continuous
100
AcDbLine
 10
3.264524
 20
5.939549999999998
 30
0.0
 11
3.264524
 21
5.841483
 31
0.0
  0
LINE
  5
3B1
330
80C
100
AcDbEntity
  8
0
  6
Continuous
100
AcDbLine
 10
3.264524
 20
5.939549999999998
 30
0.0
 11
3.242328999999999
 21
5.939549999999998
 31
0.0
  0
LINE
  5
3B7
330
80C
100
AcDbEntity
  8
0
  6
Continuous
100
AcDbLine
 10
3.242328999999999
 20
6.002978999999998
 30
0.0
 11
3.264524
 21
6.002978999999998
 31
0.0
  0
LINE
  5
3B8
330
80C
100
AcDbEntity
  8
0
  6
Continuous
100
AcDbLine
 10
3.449501
 20
6.499698999999998
 30
0.0
 11
3.449501
 21
6.645997999999999
 31
0.0
  0
LINE
  5
3BA
330
80C
100
AcDbEntity
  8
0
  6
Continuous
100
AcDbLine
 10
3.449501
 20
6.716421999999999
 30
0.0
 11
3.449501
 21
6.86589
 31
0.0
  0
LINE
  5
3B9
330
80C
100
AcDbEntity
  8
0
  6
Continuous
100
AcDbLine
 10
3.478844999999998
 20
6.499698999999998
 30
0.0
 11
3.478844999999998
 21
6.645997999999999
 31
0.0
  0
LINE
  5
3BB
330
80C
100
AcDbEntity
  8
0
  6
Continuous
100
AcDbLine
 10
3.478844999999998
 20
6.716421999999999
 30
0.0
 11
3.478844999999998
 21
6.86589
 31
0.0
  0
LINE
  5
3BD
330
80C
100
AcDbEntity
  8
0
  6
Continuous
100
AcDbLine
 10
3.449501
 20
6.716421999999999
 30
0.0
 11
3.478844999999998
 21
6.716421999999999
 31
0.0
  0
LINE
  5
3BC
330
80C
100
AcDbEntity
  8
0
  6
Continuous
100
AcDbLine
 10
3.449501
 20
6.645997999999999
 30
0.0
 11
3.478844999999998
 21
6.645997999999999
 31
0.0
  0
LWPOLYLINE
  5
394
330
80C
100
AcDbEntity
  8
0
  6
Continuous
100
AcDbPolyline
 90
        2
 70
     0
 43
0.0
 10
3.985652999999999
 20
6.499698999999998
 10
3.478844999999998
 20
6.499698999999998
  0
LWPOLYLINE
  5
3C1
330
80C
100
AcDbEntity
  8
0
  6
Continuous
100
AcDbPolyline
 90
        2
 70
     0
 43
0.0
 10
3.478844999999998
 20
6.86589
 10
4.610913
 20
6.86589
  0
LWPOLYLINE
  5
3C2
330
80C
100
AcDbEntity
  8
0
  6
Continuous
100
AcDbPolyline
 90
        6
 70
     0
 43
0.0
 10
3.024554
 20
6.899961
 10
2.809111999999998
 20
6.899961
 10
2.809111999999998
 20
7.169407999999998
 10
3.306194999999998
 20
7.169407999999998
 10
3.306194999999998
 20
6.899961
 10
3.090943
 20
6.899961
  0
LWPOLYLINE
  5
3C3
330
80C
100
AcDbEntity
  8
0
  6
Continuous
100
AcDbPolyline
 90
        2
 70
     0
 43
0.0
 10
3.090943
 20
6.86589
 10
3.449501
 20
6.86589
  0
LINE
  5
2AC
330
80C
100
AcDbEntity
  8
0
  6
Continuous
100
AcDbLine
 10
3.024554
 20
6.899961
 30
0.0
 11
3.024554
 21
6.86589
 31
0.0
  0
LINE
  5
2AE
330
80C
100
AcDbEntity
  8
0
  6
Continuous
100
AcDbLine
 10
3.090943
 20
6.899961
 30
0.0
 11
3.090943
 21
6.86589
 31
0.0
  0
LWPOLYLINE
  5
3C0
330
80C
100
AcDbEntity
  8
0
  6
Continuous
100
AcDbPolyline
 90
        2
 70
     0
 43
0.0
 10
3.449501
 20
6.499698999999998
 10
3.090943
 20
6.499698999999998
  0
LINE
  5
3C9
330
80C
100
AcDbEntity
  8
0
  6
Continuous
100
AcDbLine
 10
3.024554
 20
6.499698999999998
 30
0.0
 11
3.024554
 21
6.465205999999999
 31
0.0
  0
LINE
  5
3CA
330
80C
100
AcDbEntity
  8
0
  6
Continuous
100
AcDbLine
 10
3.090943
 20
6.499698999999998
 30
0.0
 11
3.090943
 21
6.465205999999999
 31
0.0
  0
LWPOLYLINE
  5
3C7
330
80C
100
AcDbEntity
  8
0
  6
Continuous
100
AcDbPolyline
 90
        2
 70
     0
 43
0.0
 10
3.090943
 20
6.465205999999999
 10
3.242328999999999
 20
6.465205999999999
  0
LWPOLYLINE
  5
3CD
330
80C
100
AcDbEntity
  8
0
  6
Continuous
100
AcDbPolyline
 90
        2
 70
     0
 43
0.0
 10
3.242328999999999
 20
6.465205999999999
 10
3.242328999999999
 20
6.409078
  0
LINE
  5
300
330
80C
100
AcDbEntity
  8
0
  6
Continuous
100
AcDbLine
 10
3.434088999999998
 20
6.336553999999999
 30
0.0
 11
3.242328999999999
 21
6.336553999999999
 31
0.0
  0
LINE
  5
3CF
330
80C
100
AcDbEntity
  8
0
  6
Continuous
100
AcDbLine
 10
3.303547
 20
6.409078
 30
0.0
 11
3.303547
 21
6.465205999999999
 31
0.0
  0
LINE
  5
301
330
80C
100
AcDbEntity
  8
0
  6
Continuous
100
AcDbLine
 10
3.242328999999999
 20
6.409078
 30
0.0
 11
3.303547
 21
6.409078
 31
0.0
  0
LINE
  5
3CC
330
80C
100
AcDbEntity
  8
0
  6
Continuous
100
AcDbLine
 10
3.303547
 20
6.465205999999999
 30
0.0
 11
3.434088999999998
 21
6.465205999999999
 31
0.0
  0
LWPOLYLINE
  5
3C6
330
80C
100
AcDbEntity
  8
0
  6
Continuous
100
AcDbPolyline
 90
        3
 70
     0
 43
0.0
 10
3.024554
 20
6.499698999999998
 10
2.671469999999999
 20
6.499698999999998
 10
2.671469999999999
 20
6.645997999999999
  0
LWPOLYLINE
  5
3D1
330
80C
100
AcDbEntity
  8
0
  6
Continuous
100
AcDbPolyline
 90
        3
 70
     0
 43
0.0
 10
2.671469999999999
 20
6.716421999999999
 10
2.671469999999999
 20
6.86589
 10
3.024554
 20
6.86589
  0
LINE
  5
2B0
330
80C
100
AcDbEntity
  8
0
  6
Continuous
100
AcDbLine
 10
1.432172
 20
6.645997999999999
 30
0.0
 11
1.506941
 21
6.645997999999999
 31
0.0
  0
LINE
  5
3D4
330
80C
100
AcDbEntity
  8
0
  6
Continuous
100
AcDbLine
 10
2.642733
 20
6.645997999999999
 30
0.0
 11
2.671469999999999
 21
6.645997999999999
 31
0.0
  0
LINE
  5
3D5
330
80C
100
AcDbEntity
  8
0
  6
Continuous
100
AcDbLine
 10
2.642733
 20
6.716421999999999
 30
0.0
 11
2.671469999999999
 21
6.716421999999999
 31
0.0
  0
LWPOLYLINE
  5
3D6
330
80C
100
AcDbEntity
  8
0
  6
Continuous
100
AcDbPolyline
 90
        3
 70
     0
 43
0.0
 10
2.859698999999999
 20
6.438087
 10
2.859698999999999
 20
6.465205999999999
 10
3.024554
 20
6.465205999999999
  0
LINE
  5
2FE
330
80C
100
AcDbEntity
  8
0
  6
Continuous
100
AcDbLine
 10
2.737864
 20
6.332927999999999
 30
0.0
 11
2.859698999999999
 21
6.332927999999999
 31
0.0
  0
LINE
  5
2FB
330
80C
100
AcDbEntity
  8
0
  6
Continuous
100
AcDbLine
 10
2.636331
 20
6.438087
 30
0.0
 11
2.859698999999999
 21
6.438087
 31
0.0
  0
LINE
  5
2F7
330
80C
100
AcDbEntity
  8
0
  6
Continuous
100
AcDbLine
 10
2.737864
 20
6.332927999999999
 30
0.0
 11
2.737864
 21
6.147992999999999
 31
0.0
  0
LWPOLYLINE
  5
3D9
330
80C
100
AcDbEntity
  8
0
  6
Continuous
100
AcDbPolyline
 90
        2
 70
     0
 43
0.0
 10
2.859698999999999
 20
6.308450999999998
 10
2.859698999999999
 20
6.332927999999999
  0
LINE
  5
2E6
330
80C
100
AcDbEntity
  8
0
  6
Continuous
100
AcDbLine
 10
3.242328999999999
 20
6.308450999999998
 30
0.0
 11
3.090943
 21
6.308450999999998
 31
0.0
  0
LINE
  5
3DA
330
80C
100
AcDbEntity
  8
0
  6
Continuous
100
AcDbLine
 10
3.024554
 20
6.308450999999998
 30
0.0
 11
2.859698999999999
 21
6.308450999999998
 31
0.0
  0
LINE
  5
2E5
330
80C
100
AcDbEntity
  8
0
  6
Continuous
100
AcDbLine
 10
2.859698999999999
 20
6.283068
 30
0.0
 11
3.024554
 21
6.283068
 31
0.0
  0
LINE
  5
3DB
330
80C
100
AcDbEntity
  8
0
  6
Continuous
100
AcDbLine
 10
3.090943
 20
6.283068
 30
0.0
 11
3.242328999999999
 21
6.283068
 31
0.0
  0
LINE
  5
3C8
330
80C
100
AcDbEntity
  8
0
  6
Continuous
100
AcDbLine
 10
3.024554
 20
6.308450999999998
 30
0.0
 11
3.024554
 21
6.283068
 31
0.0
  0
LINE
  5
3CB
330
80C
100
AcDbEntity
  8
0
  6
Continuous
100
AcDbLine
 10
3.090943
 20
6.308450999999998
 30
0.0
 11
3.090943
 21
6.283068
 31
0.0
  0
LINE
  5
3E3
330
80C
100
AcDbEntity
  8
0
  6
Continuous
100
AcDbLine
 10
2.631797999999998
 20
5.939549999999998
 30
0.0
 11
2.631797999999998
 21
5.841483
 31
0.0
  0
LINE
  5
2E7
330
80C
100
AcDbEntity
  8
0
  6
Continuous
100
AcDbLine
 10
2.631797999999998
 20
6.114967
 30
0.0
 11
2.631797999999998
 21
6.002978999999998
 31
0.0
  0
LINE
  5
3E8
330
80C
100
AcDbEntity
  8
0
  6
Continuous
100
AcDbLine
 10
2.313600999999998
 20
6.147992999999999
 30
0.0
 11
2.737864
 21
6.147992999999999
 31
0.0
  0
LINE
  5
3E9
330
80C
100
AcDbEntity
  8
0
  6
Continuous
100
AcDbLine
 10
2.237594
 20
6.114967
 30
0.0
 11
2.237594
 21
6.002978999999998
 31
0.0
  0
LINE
  5
3EC
330
80C
100
AcDbEntity
  8
0
  6
Continuous
100
AcDbLine
 10
2.237594
 20
5.939549999999998
 30
0.0
 11
2.237594
 21
5.841483
 31
0.0
  0
LINE
  5
3EF
330
80C
100
AcDbEntity
  8
0
  6
Continuous
100
AcDbLine
 10
2.210849
 20
6.002978999999998
 30
0.0
 11
2.237594
 21
6.002978999999998
 31
0.0
  0
LINE
  5
3F1
330
80C
100
AcDbEntity
  8
0
  6
Continuous
100
AcDbLine
 10
2.237594
 20
5.939549999999998
 30
0.0
 11
2.210849
 21
5.939549999999998
 31
0.0
  0
LINE
  5
3EE
330
80C
100
AcDbEntity
  8
0
  6
Continuous
100
AcDbLine
 10
2.631797999999998
 20
6.002978999999998
 30
0.0
 11
2.859698999999999
 21
6.002978999999998
 31
0.0
  0
LWPOLYLINE
  5
3EA
330
80C
100
AcDbEntity
  8
0
  6
Continuous
100
AcDbPolyline
 90
        2
 70
     0
 43
0.0
 10
2.237594
 20
6.114967
 10
2.631797999999998
 20
6.114967
  0
LWPOLYLINE
  5
3F3
330
80C
100
AcDbEntity
  8
0
  6
Continuous
100
AcDbPolyline
 90
        2
 70
     0
 43
0.0
 10
2.859698999999999
 20
6.002978999999998
 10
2.859698999999999
 20
6.283068
  0
LINE
  5
3F6
330
80C
100
AcDbEntity
  8
0
  6
Continuous
100
AcDbLine
 10
2.720638999999998
 20
5.939549999999998
 30
0.0
 11
2.631797999999998
 21
5.939549999999998
 31
0.0
  0
LINE
  5
3B6
330
80C
100
AcDbEntity
  8
0
  6
Continuous
100
AcDbLine
 10
2.859698999999999
 20
5.939549999999998
 30
0.0
 11
2.789536999999998
 21
5.939549999999998
 31
0.0
  0
LINE
  5
3F8
330
80C
100
AcDbEntity
  8
0
  6
Continuous
100
AcDbLine
 10
2.789536999999998
 20
5.807481
 30
0.0
 11
2.789536999999998
 21
5.939549999999998
 31
0.0
  0
LINE
  5
2E9
330
80C
100
AcDbEntity
  8
0
  6
Continuous
100
AcDbLine
 10
2.720638999999998
 20
5.939549999999998
 30
0.0
 11
2.720638999999998
 21
5.807481
 31
0.0
  0
LWPOLYLINE
  5
3F7
330
80C
100
AcDbEntity
  8
0
  6
Continuous
100
AcDbPolyline
 90
        4
 70
     0
 43
0.0
 10
2.789536999999998
 20
5.807481
 10
2.829689
 20
5.807481
 10
2.829689
 20
5.472367
 10
2.789536999999998
 20
5.472367
  0
LWPOLYLINE
  5
3FC
330
80C
100
AcDbEntity
  8
0
  6
Continuous
100
AcDbPolyline
 90
        4
 70
     0
 43
0.0
 10
2.720638999999998
 20
5.472367
 10
2.367030999999999
 20
5.472367
 10
2.367030999999999
 20
5.807481
 10
2.720638999999998
 20
5.807481
  0
LWPOLYLINE
  5
3CE
330
80C
100
AcDbEntity
  8
0
  6
Continuous
100
AcDbPolyline
 90
        2
 70
     0
 43
0.0
 10
3.242328999999999
 20
6.336553999999999
 10
3.242328999999999
 20
6.308450999999998
  0
LWPOLYLINE
  5
3FE
330
80C
100
AcDbEntity
  8
0
  6
Continuous
100
AcDbPolyline
 90
        2
 70
     0
 43
0.0
 10
3.242328999999999
 20
6.283068
 10
3.242328999999999
 20
6.002978999999998
  0
LINE
  5
401
330
80C
100
AcDbEntity
  8
0
  6
Continuous
100
AcDbLine
 10
1.925183
 20
6.027503
 30
0.0
 11
2.012646999999999
 21
6.114967
 31
0.0
  0
LINE
  5
402
330
80C
100
AcDbEntity
  8
0
  6
Continuous
100
AcDbLine
 10
2.152429999999998
 20
5.841483
 30
0.0
 11
2.210849
 21
5.899901999999999
 31
0.0
  0
LINE
  5
403
330
80C
100
AcDbEntity
  8
0
  6
Continuous
100
AcDbLine
 10
1.925183
 20
5.918417999999999
 30
0.0
 11
2.002116999999998
 21
5.841483
 31
0.0
  0
LINE
  5
404
330
80C
100
AcDbEntity
  8
0
  6
Continuous
100
AcDbLine
 10
2.131067999999999
 20
6.114967
 30
0.0
 11
2.210849
 21
6.035186999999999
 31
0.0
  0
LINE
  5
407
330
80C
100
AcDbEntity
  8
0
  6
Continuous
100
AcDbLine
 10
1.165754999999998
 20
6.719113
 30
0.0
 11
1.165754999999998
 21
6.630874999999999
 31
0.0
  0
LWPOLYLINE
  5
411
330
80C
100
AcDbEntity
  8
0
  6
Continuous
100
AcDbPolyline
 90
        2
 70
     0
 43
0.0
 10
1.868973999999999
 20
6.761185
 10
1.922299
 20
6.761185
  0
LWPOLYLINE
  5
415
330
80C
100
AcDbEntity
  8
0
  6
Continuous
100
AcDbPolyline
 90
        2
 70
     0
 43
0.0
 10
1.922299
 20
6.597127
 10
1.868973999999999
 20
6.597127
  0
LINE
  5
416
330
80C
100
AcDbEntity
  8
0
  6
Continuous
100
AcDbLine
 10
1.83398
 20
6.841110999999998
 30
0.0
 11
1.868973999999999
 21
6.761185
 31
0.0
  0
LINE
  5
417
330
80C
100
AcDbEntity
  8
0
  6
Continuous
100
AcDbLine
 10
1.868973999999999
 20
6.761185
 30
0.0
 11
1.922299
 21
6.761185
 31
0.0
  0
LINE
  5
418
330
80C
100
AcDbEntity
  8
0
  6
Continuous
100
AcDbLine
 10
1.922299
 20
6.761185
 30
0.0
 11
1.957292999999999
 21
6.841110999999998
 31
0.0
  0
LINE
  5
419
330
80C
100
AcDbEntity
  8
0
  6
Continuous
100
AcDbLine
 10
1.957292999999999
 20
6.521406999999999
 30
0.0
 11
1.922299
 21
6.597127
 31
0.0
  0
LINE
  5
41A
330
80C
100
AcDbEntity
  8
0
  6
Continuous
100
AcDbLine
 10
1.868973999999999
 20
6.597127
 30
0.0
 11
1.83398
 21
6.521406999999999
 31
0.0
  0
LWPOLYLINE
  5
41B
330
80C
100
AcDbEntity
  8
0
  6
Continuous
100
AcDbPolyline
 90
        2
 70
     0
 43
0.0
 10
2.235615999999998
 20
6.761185
 10
2.28894
 20
6.761185
  0
LWPOLYLINE
  5
41C
330
80C
100
AcDbEntity
  8
0
  6
Continuous
100
AcDbPolyline
 90
        2
 70
     0
 43
0.0
 10
2.28894
 20
6.597127
 10
2.235615999999998
 20
6.597127
  0
LINE
  5
41D
330
80C
100
AcDbEntity
  8
0
  6
Continuous
100
AcDbLine
 10
2.200620999999999
 20
6.841110999999998
 30
0.0
 11
2.235615999999998
 21
6.761185
 31
0.0
  0
LINE
  5
41E
330
80C
100
AcDbEntity
  8
0
  6
Continuous
100
AcDbLine
 10
2.235615999999998
 20
6.761185
 30
0.0
 11
2.28894
 21
6.761185
 31
0.0
  0
LINE
  5
41F
330
80C
100
AcDbEntity
  8
0
  6
Continuous
100
AcDbLine
 10
2.28894
 20
6.761185
 30
0.0
 11
2.323934999999999
 21
6.841110999999998
 31
0.0
  0
LINE
  5
420
330
80C
100
AcDbEntity
  8
0
  6
Continuous
100
AcDbLine
 10
2.323934999999999
 20
6.521406999999999
 30
0.0
 11
2.28894
 21
6.597127
 31
0.0
  0
LINE
  5
421
330
80C
100
AcDbEntity
  8
0
  6
Continuous
100
AcDbLine
 10
2.235615999999998
 20
6.597127
 30
0.0
 11
2.200620999999999
 21
6.521406999999999
 31
0.0
  0
LINE
  5
426
330
80C
100
AcDbEntity
  8
0
  6
Continuous
100
AcDbLine
 10
1.546932999999999
 20
6.761185
 30
0.0
 11
1.581927
 21
6.841110999999998
 31
0.0
  0
LINE
  5
427
330
80C
100
AcDbEntity
  8
0
  6
Continuous
100
AcDbLine
 10
1.581927
 20
6.521406999999999
 30
0.0
 11
1.546932999999999
 21
6.597127
 31
0.0
  0
LINE
  5
42B
330
80C
100
AcDbEntity
  8
0
  6
Continuous
100
AcDbLine
 10
2.569261999999998
 20
6.841110999999998
 30
0.0
 11
2.604255999999999
 21
6.761185
 31
0.0
  0
LINE
  5
42F
330
80C
100
AcDbEntity
  8
0
  6
Continuous
100
AcDbLine
 10
2.604255999999999
 20
6.597127
 30
0.0
 11
2.569261999999998
 21
6.521406999999999
 31
0.0
  0
LWPOLYLINE
  5
431
330
80C
100
AcDbEntity
  8
0
  6
Continuous
100
AcDbPolyline
 90
        3
 70
     0
 43
0.0
 10
2.604255999999999
 20
6.761185
 10
2.642733
 20
6.761185
 10
2.642733
 20
6.716421999999999
  0
LWPOLYLINE
  5
3D3
330
80C
100
AcDbEntity
  8
0
  6
Continuous
100
AcDbPolyline
 90
        3
 70
     0
 43
0.0
 10
2.642733
 20
6.645997999999999
 10
2.642733
 20
6.597127
 10
2.604255999999999
 20
6.597127
  0
LWPOLYLINE
  5
412
330
80C
100
AcDbEntity
  8
0
  6
Continuous
100
AcDbPolyline
 90
        2
 70
     0
 43
0.0
 10
1.83398
 20
6.521406999999999
 10
1.581927
 20
6.521406999999999
  0
LWPOLYLINE
  5
433
330
80C
100
AcDbEntity
  8
0
  6
Continuous
100
AcDbPolyline
 90
        2
 70
     0
 43
0.0
 10
1.581927
 20
6.841110999999998
 10
1.83398
 20
6.841110999999998
  0
LWPOLYLINE
  5
434
330
80C
100
AcDbEntity
  8
0
  6
Continuous
100
AcDbPolyline
 90
        2
 70
     0
 43
0.0
 10
2.050577999999998
 20
6.521406999999999
 10
1.957292999999999
 20
6.521406999999999
  0
LWPOLYLINE
  5
438
330
80C
100
AcDbEntity
  8
0
  6
Continuous
100
AcDbPolyline
 90
        2
 70
     0
 43
0.0
 10
2.323934999999999
 20
6.841110999999998
 10
2.569261999999998
 20
6.841110999999998
  0
LWPOLYLINE
  5
430
330
80C
100
AcDbEntity
  8
0
  6
Continuous
100
AcDbPolyline
 90
        2
 70
     0
 43
0.0
 10
2.569261999999998
 20
6.521406999999999
 10
2.323934999999999
 20
6.521406999999999
  0
LWPOLYLINE
  5
439
330
80C
100
AcDbEntity
  8
0
  6
Continuous
100
AcDbPolyline
 90
        2
 70
     0
 43
0.0
 10
2.200620999999999
 20
6.521406999999999
 10
2.108791999999998
 20
6.521406999999999
  0
LINE
  5
2D5
330
80C
100
AcDbEntity
  8
0
  6
Continuous
100
AcDbLine
 10
1.356290999999999
 20
6.002978999999998
 30
0.0
 11
1.470920999999998
 21
6.002978999999998
 31
0.0
  0
LINE
  5
43C
330
80C
100
AcDbEntity
  8
0
  6
Continuous
100
AcDbLine
 10
1.905634999999999
 20
6.002978999999998
 30
0.0
 11
1.925183
 21
6.002978999999998
 31
0.0
  0
LINE
  5
3F0
330
80C
100
AcDbEntity
  8
0
  6
Continuous
100
AcDbLine
 10
1.925183
 20
5.939549999999998
 30
0.0
 11
1.905634999999999
 21
5.939549999999998
 31
0.0
  0
LINE
  5
43D
330
80C
100
AcDbEntity
  8
0
  6
Continuous
100
AcDbLine
 10
1.470920999999998
 20
5.939549999999998
 30
0.0
 11
1.356290999999999
 21
5.939549999999998
 31
0.0
  0
LINE
  5
406
330
80C
100
AcDbEntity
  8
0
  6
Continuous
100
AcDbLine
 10
1.905634999999999
 20
6.114967
 30
0.0
 11
1.905634999999999
 21
6.002978999999998
 31
0.0
  0
LINE
  5
43E
330
80C
100
AcDbEntity
  8
0
  6
Continuous
100
AcDbLine
 10
1.905634999999999
 20
5.939549999999998
 30
0.0
 11
1.905634999999999
 21
5.841483
 31
0.0
  0
LINE
  5
2F6
330
80C
100
AcDbEntity
  8
0
  6
Continuous
100
AcDbLine
 10
1.925183
 20
6.147992999999999
 30
0.0
 11
2.050577999999998
 21
6.147992999999999
 31
0.0
  0
LINE
  5
440
330
80C
100
AcDbEntity
  8
0
  6
Continuous
100
AcDbLine
 10
2.108791999999998
 20
6.147992999999999
 30
0.0
 11
2.210849
 21
6.147992999999999
 31
0.0
  0
LWPOLYLINE
  5
441
330
80C
100
AcDbEntity
  8
0
  6
Continuous
100
AcDbPolyline
 90
        3
 70
     0
 43
0.0
 10
1.925183
 20
6.147992999999999
 10
1.925183
 20
6.485793
 10
2.050577999999998
 20
6.485793
  0
LWPOLYLINE
  5
3EB
330
80C
100
AcDbEntity
  8
0
  6
Continuous
100
AcDbPolyline
 90
        2
 70
     0
 43
0.0
 10
2.210849
 20
5.939549999999998
 10
2.210849
 20
5.899901999999999
  0
LWPOLYLINE
  5
435
330
80C
100
AcDbEntity
  8
0
  6
Continuous
100
AcDbPolyline
 90
        3
 70
     0
 43
0.0
 10
2.108791999999998
 20
6.485793
 10
2.210849
 20
6.485793
 10
2.210849
 20
6.147992999999999
  0
LWPOLYLINE
  5
444
330
80C
100
AcDbEntity
  8
0
  6
Continuous
100
AcDbPolyline
 90
        2
 70
     0
 43
0.0
 10
2.210849
 20
6.035186999999999
 10
2.210849
 20
6.002978999999998
  0
LWPOLYLINE
  5
445
330
80C
100
AcDbEntity
  8
0
  6
Continuous
100
AcDbPolyline
 90
        2
 70
     0
 43
0.0
 10
2.108791999999998
 20
6.114967
 10
2.131067999999999
 20
6.114967
  0
LWPOLYLINE
  5
43B
330
80C
100
AcDbEntity
  8
0
  6
Continuous
100
AcDbPolyline
 90
        3
 70
     0
 43
0.0
 10
1.470920999999998
 20
6.002978999999998
 10
1.470920999999998
 20
6.114967
 10
1.905634999999999
 20
6.114967
  0
LWPOLYLINE
  5
446
330
80C
100
AcDbEntity
  8
0
  6
Continuous
100
AcDbPolyline
 90
        2
 70
     0
 43
0.0
 10
2.012646999999999
 20
6.114967
 10
2.050577999999998
 20
6.114967
  0
LWPOLYLINE
  5
447
330
80C
100
AcDbEntity
  8
0
  6
Continuous
100
AcDbPolyline
 90
        3
 70
     0
 43
0.0
 10
1.905634999999999
 20
5.841483
 10
1.470920999999998
 20
5.841483
 10
1.470920999999998
 20
5.939549999999998
  0
LWPOLYLINE
  5
448
330
80C
100
AcDbEntity
  8
0
  6
Continuous
100
AcDbPolyline
 90
        2
 70
     0
 43
0.0
 10
2.050577999999998
 20
5.841483
 10
2.002116999999998
 20
5.841483
  0
LWPOLYLINE
  5
3F4
330
80C
100
AcDbEntity
  8
0
  6
Continuous
100
AcDbPolyline
 90
        2
 70
     0
 43
0.0
 10
2.631797999999998
 20
5.841483
 10
2.237594
 20
5.841483
  0
LWPOLYLINE
  5
449
330
80C
100
AcDbEntity
  8
0
  6
Continuous
100
AcDbPolyline
 90
        2
 70
     0
 43
0.0
 10
2.152429999999998
 20
5.841483
 10
2.108791999999998
 20
5.841483
  0
LWPOLYLINE
  5
442
330
80C
100
AcDbEntity
  8
0
  6
Continuous
100
AcDbPolyline
 90
        2
 70
     0
 43
0.0
 10
1.925183
 20
5.918417999999999
 10
1.925183
 20
5.939549999999998
  0
LWPOLYLINE
  5
44A
330
80C
100
AcDbEntity
  8
0
  6
Continuous
100
AcDbPolyline
 90
        2
 70
     0
 43
0.0
 10
1.925183
 20
6.002978999999998
 10
1.925183
 20
6.027503
  0
LINE
  5
2F4
330
80C
100
AcDbEntity
  8
0
  6
Continuous
100
AcDbLine
 10
2.210849
 20
5.807481
 30
0.0
 11
2.108791999999998
 21
5.807481
 31
0.0
  0
LINE
  5
44B
330
80C
100
AcDbEntity
  8
0
  6
Continuous
100
AcDbLine
 10
2.050577999999998
 20
5.807481
 30
0.0
 11
1.925183
 21
5.807481
 31
0.0
  0
LINE
  5
436
330
80C
100
AcDbEntity
  8
0
  6
Continuous
100
AcDbLine
 10
2.050577999999998
 20
6.147992999999999
 30
0.0
 11
2.050577999999998
 21
6.114967
 31
0.0
  0
LINE
  5
437
330
80C
100
AcDbEntity
  8
0
  6
Continuous
100
AcDbLine
 10
2.108791999999998
 20
6.147992999999999
 30
0.0
 11
2.108791999999998
 21
6.114967
 31
0.0
  0
LINE
  5
44C
330
80C
100
AcDbEntity
  8
0
  6
Continuous
100
AcDbLine
 10
2.050577999999998
 20
5.841483
 30
0.0
 11
2.050577999999998
 21
5.807481
 31
0.0
  0
LINE
  5
44E
330
80C
100
AcDbEntity
  8
0
  6
Continuous
100
AcDbLine
 10
2.050577999999998
 20
5.472367
 30
0.0
 11
2.050577999999998
 21
5.456914
 31
0.0
  0
LINE
  5
44D
330
80C
100
AcDbEntity
  8
0
  6
Continuous
100
AcDbLine
 10
2.108791999999998
 20
5.841483
 30
0.0
 11
2.108791999999998
 21
5.807481
 31
0.0
  0
LINE
  5
44F
330
80C
100
AcDbEntity
  8
0
  6
Continuous
100
AcDbLine
 10
2.108791999999998
 20
5.472367
 30
0.0
 11
2.108791999999998
 21
5.456914
 31
0.0
  0
LWPOLYLINE
  5
43A
330
80C
100
AcDbEntity
  8
0
  6
Continuous
100
AcDbPolyline
 90
        3
 70
     0
 43
0.0
 10
1.356290999999999
 20
5.939549999999998
 10
1.356290999999999
 20
5.524290999999999
 10
1.214617
 20
5.524290999999999
  0
LINE
  5
253
330
80C
100
AcDbEntity
  8
0
  6
Continuous
100
AcDbLine
 10
1.453427
 20
5.496596
 30
0.0
 11
1.214617
 21
5.496596
 31
0.0
  0
LINE
  5
451
330
80C
100
AcDbEntity
  8
0
  6
Continuous
100
AcDbLine
 10
1.146230999999998
 20
5.496596
 30
0.0
 11
0.8973459999999999
 21
5.496596
 31
0.0
  0
LINE
  5
30D
330
80C
100
AcDbEntity
  8
0
  6
Continuous
100
AcDbLine
 10
1.214617
 20
5.496596
 30
0.0
 11
1.214617
 21
5.524290999999999
 31
0.0
  0
LINE
  5
452
330
80C
100
AcDbEntity
  8
0
  6
Continuous
100
AcDbLine
 10
1.214617
 20
6.41633
 30
0.0
 11
1.214617
 21
6.560417
 31
0.0
  0
LINE
  5
30C
330
80C
100
AcDbEntity
  8
0
  6
Continuous
100
AcDbLine
 10
1.146230999999998
 20
6.529222999999999
 30
0.0
 11
1.146230999999998
 21
6.41633
 31
0.0
  0
LINE
  5
453
330
80C
100
AcDbEntity
  8
0
  6
Continuous
100
AcDbLine
 10
1.146230999999998
 20
5.524290999999999
 30
0.0
 11
1.146230999999998
 21
5.496596
 31
0.0
  0
LINE
  5
454
330
80C
100
AcDbEntity
  8
0
  6
Continuous
100
AcDbLine
 10
2.050577999999998
 20
5.472367
 30
0.0
 11
1.925183
 21
5.472367
 31
0.0
  0
LWPOLYLINE
  5
276
330
80C
100
AcDbEntity
  8
0
  6
Continuous
100
AcDbPolyline
 90
        3
 70
     0
 43
0.0
 10
1.947722
 20
5.235732999999998
 10
1.947722
 20
5.456914
 10
2.050577999999998
 20
5.456914
  0
LWPOLYLINE
  5
443
330
80C
100
AcDbEntity
  8
0
  6
Continuous
100
AcDbPolyline
 90
        2
 70
     0
 43
0.0
 10
2.210849
 20
5.807481
 10
2.210849
 20
5.472367
  0
LWPOLYLINE
  5
458
330
80C
100
AcDbEntity
  8
0
  6
Continuous
100
AcDbPolyline
 90
        2
 70
     0
 43
0.0
 10
2.210849
 20
5.456914
 10
2.210849
 20
5.235732999999998
  0
LWPOLYLINE
  5
457
330
80C
100
AcDbEntity
  8
0
  6
Continuous
100
AcDbPolyline
 90
        2
 70
     0
 43
0.0
 10
2.210849
 20
5.456914
 10
2.108791999999998
 20
5.456914
  0
LINE
  5
2F5
330
80C
100
AcDbEntity
  8
0
  6
Continuous
100
AcDbLine
 10
2.210849
 20
5.472367
 30
0.0
 11
2.108791999999998
 21
5.472367
 31
0.0
  0
LWPOLYLINE
  5
456
330
80C
100
AcDbEntity
  8
0
  6
Continuous
100
AcDbPolyline
 90
        2
 70
     0
 43
0.0
 10
1.925183
 20
5.472367
 10
1.925183
 20
5.807481
  0
LINE
  5
2B2
330
80C
100
AcDbEntity
  8
0
  6
Continuous
100
AcDbLine
 10
0.6511700000000002
 20
7.526559999999999
 30
0.0
 11
0.6511700000000002
 21
7.303872
 31
0.0
  0
LINE
  5
45F
330
80C
100
AcDbEntity
  8
0
  6
Continuous
100
AcDbLine
 10
0.6511700000000002
 20
7.259110999999998
 30
0.0
 11
0.6511700000000002
 21
7.035306
 31
0.0
  0
LINE
  5
460
330
80C
100
AcDbEntity
  8
0
  6
Continuous
100
AcDbLine
 10
1.934619999999998
 20
7.572438
 30
0.0
 11
1.934619999999998
 21
7.781322
 31
0.0
  0
LWPOLYLINE
  5
45E
330
80C
100
AcDbEntity
  8
0
  6
Continuous
100
AcDbPolyline
 90
        3
 70
     0
 43
0.0
 10
0.6511700000000002
 20
7.572438
 10
0.6511700000000002
 20
7.781322
 10
1.139782999999999
 20
7.781322
  0
LWPOLYLINE
  5
461
330
80C
100
AcDbEntity
  8
0
  6
Continuous
100
AcDbPolyline
 90
        2
 70
     0
 43
0.0
 10
1.175678999999999
 20
7.781322
 10
1.415836999999998
 20
7.781322
  0
LWPOLYLINE
  5
462
330
80C
100
AcDbEntity
  8
0
  6
Continuous
100
AcDbPolyline
 90
        2
 70
     0
 43
0.0
 10
1.450026
 20
7.781322
 10
1.934619999999998
 20
7.781322
  0
LINE
  5
2CC
330
80C
100
AcDbEntity
  8
0
  6
Continuous
100
AcDbLine
 10
1.139782999999999
 20
7.781322
 30
0.0
 11
1.139782999999999
 21
7.705807
 31
0.0
  0
LINE
  5
465
330
80C
100
AcDbEntity
  8
0
  6
Continuous
100
AcDbLine
 10
1.175678999999999
 20
7.705807
 30
0.0
 11
1.175678999999999
 21
7.781322
 31
0.0
  0
LINE
  5
466
330
80C
100
AcDbEntity
  8
0
  6
Continuous
100
AcDbLine
 10
1.415836999999998
 20
7.705807
 30
0.0
 11
1.415836999999998
 21
7.781322
 31
0.0
  0
LINE
  5
467
330
80C
100
AcDbEntity
  8
0
  6
Continuous
100
AcDbLine
 10
1.450026
 20
7.705807
 30
0.0
 11
1.450026
 21
7.781322
 31
0.0
  0
LINE
  5
2CB
330
80C
100
AcDbEntity
  8
0
  6
Continuous
100
AcDbLine
 10
1.139782999999999
 20
7.641708
 30
0.0
 11
1.175678999999999
 21
7.641708
 31
0.0
  0
LINE
  5
468
330
80C
100
AcDbEntity
  8
0
  6
Continuous
100
AcDbLine
 10
1.415836999999998
 20
7.641708
 30
0.0
 11
1.450026
 21
7.641708
 31
0.0
  0
LINE
  5
2CA
330
80C
100
AcDbEntity
  8
0
  6
Continuous
100
AcDbLine
 10
1.450026
 20
7.705807
 30
0.0
 11
1.415836999999998
 21
7.705807
 31
0.0
  0
LINE
  5
469
330
80C
100
AcDbEntity
  8
0
  6
Continuous
100
AcDbLine
 10
1.175678999999999
 20
7.705807
 30
0.0
 11
1.139782999999999
 21
7.705807
 31
0.0
  0
LINE
  5
464
330
80C
100
AcDbEntity
  8
0
  6
Continuous
100
AcDbLine
 10
1.139782999999999
 20
7.641708
 30
0.0
 11
1.139782999999999
 21
7.572438
 31
0.0
  0
LINE
  5
470
330
80C
100
AcDbEntity
  8
0
  6
Continuous
100
AcDbLine
 10
1.450026
 20
7.572438
 30
0.0
 11
1.450026
 21
7.641708
 31
0.0
  0
LWPOLYLINE
  5
45D
330
80C
100
AcDbEntity
  8
0
  6
Continuous
100
AcDbPolyline
 90
        2
 70
     0
 43
0.0
 10
1.934619999999998
 20
7.572438
 10
1.852572
 20
7.572438
  0
LWPOLYLINE
  5
472
330
80C
100
AcDbEntity
  8
0
  6
Continuous
100
AcDbPolyline
 90
        2
 70
     0
 43
0.0
 10
1.798727999999999
 20
7.572438
 10
1.450026
 20
7.572438
  0
LINE
  5
471
330
80C
100
AcDbEntity
  8
0
  6
Continuous
100
AcDbLine
 10
1.450026
 20
7.526559999999999
 30
0.0
 11
1.798727999999999
 21
7.526559999999999
 31
0.0
  0
LINE
  5
473
330
80C
100
AcDbEntity
  8
0
  6
Continuous
100
AcDbLine
 10
1.852572
 20
7.526559999999999
 30
0.0
 11
1.934619999999998
 21
7.526559999999999
 31
0.0
  0
LINE
  5
2CF
330
80C
100
AcDbEntity
  8
0
  6
Continuous
100
AcDbLine
 10
1.798727999999999
 20
7.572438
 30
0.0
 11
1.798727999999999
 21
7.526559999999999
 31
0.0
  0
LINE
  5
474
330
80C
100
AcDbEntity
  8
0
  6
Continuous
100
AcDbLine
 10
1.798727999999999
 20
7.303872
 30
0.0
 11
1.798727999999999
 21
7.259110999999998
 31
0.0
  0
LINE
  5
2D0
330
80C
100
AcDbEntity
  8
0
  6
Continuous
100
AcDbLine
 10
1.852572
 20
7.259110999999998
 30
0.0
 11
1.852572
 21
7.303872
 31
0.0
  0
LINE
  5
475
330
80C
100
AcDbEntity
  8
0
  6
Continuous
100
AcDbLine
 10
1.852572
 20
7.526559999999999
 30
0.0
 11
1.852572
 21
7.572438
 31
0.0
  0
LINE
  5
476
330
80C
100
AcDbEntity
  8
0
  6
Continuous
100
AcDbLine
 10
1.450026
 20
7.303872
 30
0.0
 11
1.450026
 21
7.526559999999999
 31
0.0
  0
LINE
  5
2C6
330
80C
100
AcDbEntity
  8
0
  6
Continuous
100
AcDbLine
 10
1.415836999999998
 20
7.035306
 30
0.0
 11
1.415836999999998
 21
7.118654
 31
0.0
  0
LINE
  5
477
330
80C
100
AcDbEntity
  8
0
  6
Continuous
100
AcDbLine
 10
1.415836999999998
 20
7.169933
 30
0.0
 11
1.415836999999998
 21
7.641708
 31
0.0
  0
LINE
  5
2C4
330
80C
100
AcDbEntity
  8
0
  6
Continuous
100
AcDbLine
 10
1.175678999999999
 20
7.035306
 30
0.0
 11
1.175678999999999
 21
7.118654
 31
0.0
  0
LINE
  5
47C
330
80C
100
AcDbEntity
  8
0
  6
Continuous
100
AcDbLine
 10
1.175678999999999
 20
7.169933
 30
0.0
 11
1.175678999999999
 21
7.641708
 31
0.0
  0
LINE
  5
46C
330
80C
100
AcDbEntity
  8
0
  6
Continuous
100
AcDbLine
 10
1.139782999999999
 20
7.526559999999999
 30
0.0
 11
1.139782999999999
 21
7.303872
 31
0.0
  0
LINE
  5
2B3
330
80C
100
AcDbEntity
  8
0
  6
Continuous
100
AcDbLine
 10
0.6511700000000002
 20
7.035306
 30
0.0
 11
1.139782999999999
 21
7.035306
 31
0.0
  0
LWPOLYLINE
  5
46A
330
80C
100
AcDbEntity
  8
0
  6
Continuous
100
AcDbPolyline
 90
        2
 70
     0
 43
0.0
 10
1.139782999999999
 20
7.572438
 10
0.788516
 20
7.572438
  0
LWPOLYLINE
  5
47F
330
80C
100
AcDbEntity
  8
0
  6
Continuous
100
AcDbPolyline
 90
        2
 70
     0
 43
0.0
 10
0.729544
 20
7.572438
 10
0.6511700000000002
 20
7.572438
  0
LINE
  5
459
330
80C
100
AcDbEntity
  8
0
  6
Continuous
100
AcDbLine
 10
0.6511700000000002
 20
7.526559999999999
 30
0.0
 11
0.729544
 21
7.526559999999999
 31
0.0
  0
LINE
  5
480
330
80C
100
AcDbEntity
  8
0
  6
Continuous
100
AcDbLine
 10
0.788516
 20
7.526559999999999
 30
0.0
 11
1.139782999999999
 21
7.526559999999999
 31
0.0
  0
LINE
  5
2B6
330
80C
100
AcDbEntity
  8
0
  6
Continuous
100
AcDbLine
 10
0.6511700000000002
 20
7.303872
 30
0.0
 11
0.729544
 21
7.303872
 31
0.0
  0
LINE
  5
481
330
80C
100
AcDbEntity
  8
0
  6
Continuous
100
AcDbLine
 10
0.788516
 20
7.303872
 30
0.0
 11
1.139782999999999
 21
7.303872
 31
0.0
  0
LINE
  5
47B
330
80C
100
AcDbEntity
  8
0
  6
Continuous
100
AcDbLine
 10
1.139782999999999
 20
7.259110999999998
 30
0.0
 11
0.788516
 21
7.259110999999998
 31
0.0
  0
LINE
  5
482
330
80C
100
AcDbEntity
  8
0
  6
Continuous
100
AcDbLine
 10
0.729544
 20
7.259110999999998
 30
0.0
 11
0.6511700000000002
 21
7.259110999999998
 31
0.0
  0
LINE
  5
2C8
330
80C
100
AcDbEntity
  8
0
  6
Continuous
100
AcDbLine
 10
0.729544
 20
7.572438
 30
0.0
 11
0.729544
 21
7.526559999999999
 31
0.0
  0
LINE
  5
483
330
80C
100
AcDbEntity
  8
0
  6
Continuous
100
AcDbLine
 10
0.729544
 20
7.303872
 30
0.0
 11
0.729544
 21
7.259110999999998
 31
0.0
  0
LINE
  5
2C9
330
80C
100
AcDbEntity
  8
0
  6
Continuous
100
AcDbLine
 10
0.788516
 20
7.259110999999998
 30
0.0
 11
0.788516
 21
7.303872
 31
0.0
  0
LINE
  5
484
330
80C
100
AcDbEntity
  8
0
  6
Continuous
100
AcDbLine
 10
0.788516
 20
7.526559999999999
 30
0.0
 11
0.788516
 21
7.572438
 31
0.0
  0
LINE
  5
2CD
330
80C
100
AcDbEntity
  8
0
  6
Continuous
100
AcDbLine
 10
1.139782999999999
 20
7.169933
 30
0.0
 11
1.175678999999999
 21
7.169933
 31
0.0
  0
LINE
  5
486
330
80C
100
AcDbEntity
  8
0
  6
Continuous
100
AcDbLine
 10
1.175678999999999
 20
7.118654
 30
0.0
 11
1.139782999999999
 21
7.118654
 31
0.0
  0
LINE
  5
47D
330
80C
100
AcDbEntity
  8
0
  6
Continuous
100
AcDbLine
 10
1.139782999999999
 20
7.259110999999998
 30
0.0
 11
1.139782999999999
 21
7.169933
 31
0.0
  0
LINE
  5
487
330
80C
100
AcDbEntity
  8
0
  6
Continuous
100
AcDbLine
 10
1.139782999999999
 20
7.118654
 30
0.0
 11
1.139782999999999
 21
7.035306
 31
0.0
  0
LINE
  5
479
330
80C
100
AcDbEntity
  8
0
  6
Continuous
100
AcDbLine
 10
1.450026
 20
7.303872
 30
0.0
 11
1.798727999999999
 21
7.303872
 31
0.0
  0
LINE
  5
488
330
80C
100
AcDbEntity
  8
0
  6
Continuous
100
AcDbLine
 10
1.852572
 20
7.303872
 30
0.0
 11
1.934619999999998
 21
7.303872
 31
0.0
  0
LINE
  5
489
330
80C
100
AcDbEntity
  8
0
  6
Continuous
100
AcDbLine
 10
1.798727999999999
 20
7.259110999999998
 30
0.0
 11
1.450026
 21
7.259110999999998
 31
0.0
  0
LINE
  5
2B5
330
80C
100
AcDbEntity
  8
0
  6
Continuous
100
AcDbLine
 10
2.180502999999998
 20
7.259110999999998
 30
0.0
 11
1.978208
 21
7.259110999999998
 31
0.0
  0
LINE
  5
48A
330
80C
100
AcDbEntity
  8
0
  6
Continuous
100
AcDbLine
 10
1.934619999999998
 20
7.259110999999998
 30
0.0
 11
1.852572
 21
7.259110999999998
 31
0.0
  0
LINE
  5
2B8
330
80C
100
AcDbEntity
  8
0
  6
Continuous
100
AcDbLine
 10
1.978208
 20
7.259110999999998
 30
0.0
 11
1.978208
 21
7.169933
 31
0.0
  0
LINE
  5
48B
330
80C
100
AcDbEntity
  8
0
  6
Continuous
100
AcDbLine
 10
1.978208
 20
7.118654
 30
0.0
 11
1.978208
 21
7.035306
 31
0.0
  0
LINE
  5
2B7
330
80C
100
AcDbEntity
  8
0
  6
Continuous
100
AcDbLine
 10
1.934619999999998
 20
7.035306
 30
0.0
 11
1.934619999999998
 21
7.118654
 31
0.0
  0
LINE
  5
485
330
80C
100
AcDbEntity
  8
0
  6
Continuous
100
AcDbLine
 10
1.415836999999998
 20
7.169933
 30
0.0
 11
1.450026
 21
7.169933
 31
0.0
  0
LINE
  5
48D
330
80C
100
AcDbEntity
  8
0
  6
Continuous
100
AcDbLine
 10
1.934619999999998
 20
7.169933
 30
0.0
 11
1.978208
 21
7.169933
 31
0.0
  0
LINE
  5
2CE
330
80C
100
AcDbEntity
  8
0
  6
Continuous
100
AcDbLine
 10
1.978208
 20
7.118654
 30
0.0
 11
1.934619999999998
 21
7.118654
 31
0.0
  0
LINE
  5
48E
330
80C
100
AcDbEntity
  8
0
  6
Continuous
100
AcDbLine
 10
1.450026
 20
7.118654
 30
0.0
 11
1.415836999999998
 21
7.118654
 31
0.0
  0
LINE
  5
2C7
330
80C
100
AcDbEntity
  8
0
  6
Continuous
100
AcDbLine
 10
1.450026
 20
7.035306
 30
0.0
 11
1.450026
 21
7.118654
 31
0.0
  0
LINE
  5
48F
330
80C
100
AcDbEntity
  8
0
  6
Continuous
100
AcDbLine
 10
1.450026
 20
7.169933
 30
0.0
 11
1.450026
 21
7.259110999999998
 31
0.0
  0
LINE
  5
48C
330
80C
100
AcDbEntity
  8
0
  6
Continuous
100
AcDbLine
 10
1.934619999999998
 20
7.169933
 30
0.0
 11
1.934619999999998
 21
7.259110999999998
 31
0.0
  0
LINE
  5
490
330
80C
100
AcDbEntity
  8
0
  6
Continuous
100
AcDbLine
 10
1.934619999999998
 20
7.303872
 30
0.0
 11
1.934619999999998
 21
7.526559999999999
 31
0.0
  0
LINE
  5
491
330
80C
100
AcDbEntity
  8
0
  6
Continuous
100
AcDbLine
 10
1.450026
 20
7.035306
 30
0.0
 11
1.934619999999998
 21
7.035306
 31
0.0
  0
LINE
  5
2B9
330
80C
100
AcDbEntity
  8
0
  6
Continuous
100
AcDbLine
 10
1.447461999999998
 20
7.01353
 30
0.0
 11
1.685913
 21
7.01353
 31
0.0
  0
LINE
  5
494
330
80C
100
AcDbEntity
  8
0
  6
Continuous
100
AcDbLine
 10
1.708988999999999
 20
7.01353
 30
0.0
 11
1.950004
 21
7.01353
 31
0.0
  0
LINE
  5
2C0
330
80C
100
AcDbEntity
  8
0
  6
Continuous
100
AcDbLine
 10
1.685913
 20
6.869945999999999
 30
0.0
 11
1.685913
 21
6.921225999999998
 31
0.0
  0
LINE
  5
496
330
80C
100
AcDbEntity
  8
0
  6
Continuous
100
AcDbLine
 10
1.685913
 20
6.967378
 30
0.0
 11
1.685913
 21
7.01353
 31
0.0
  0
LINE
  5
2C1
330
80C
100
AcDbEntity
  8
0
  6
Continuous
100
AcDbLine
 10
1.708988999999999
 20
6.869945999999999
 30
0.0
 11
1.708988999999999
 21
6.921225999999998
 31
0.0
  0
LINE
  5
497
330
80C
100
AcDbEntity
  8
0
  6
Continuous
100
AcDbLine
 10
1.708988999999999
 20
6.967378
 30
0.0
 11
1.708988999999999
 21
7.01353
 31
0.0
  0
LINE
  5
2C2
330
80C
100
AcDbEntity
  8
0
  6
Continuous
100
AcDbLine
 10
1.950004
 20
6.869945999999999
 30
0.0
 11
1.950004
 21
6.921225999999998
 31
0.0
  0
LINE
  5
498
330
80C
100
AcDbEntity
  8
0
  6
Continuous
100
AcDbLine
 10
1.950004
 20
6.967378
 30
0.0
 11
1.950004
 21
7.01353
 31
0.0
  0
LINE
  5
2C3
330
80C
100
AcDbEntity
  8
0
  6
Continuous
100
AcDbLine
 10
1.978208
 20
6.869945999999999
 30
0.0
 11
1.978208
 21
6.921225999999998
 31
0.0
  0
LINE
  5
499
330
80C
100
AcDbEntity
  8
0
  6
Continuous
100
AcDbLine
 10
1.978208
 20
6.967378
 30
0.0
 11
1.978208
 21
7.01353
 31
0.0
  0
LINE
  5
49A
330
80C
100
AcDbEntity
  8
0
  6
Continuous
100
AcDbLine
 10
1.950004
 20
6.869945999999999
 30
0.0
 11
1.708988999999999
 21
6.869945999999999
 31
0.0
  0
LINE
  5
49B
330
80C
100
AcDbEntity
  8
0
  6
Continuous
100
AcDbLine
 10
1.685913
 20
6.869945999999999
 30
0.0
 11
1.447461999999998
 21
6.869945999999999
 31
0.0
  0
LINE
  5
2BF
330
80C
100
AcDbEntity
  8
0
  6
Continuous
100
AcDbLine
 10
1.978208
 20
6.921225999999998
 30
0.0
 11
1.950004
 21
6.921225999999998
 31
0.0
  0
LINE
  5
2BE
330
80C
100
AcDbEntity
  8
0
  6
Continuous
100
AcDbLine
 10
1.978208
 20
6.967378
 30
0.0
 11
1.950004
 21
6.967378
 31
0.0
  0
LINE
  5
49D
330
80C
100
AcDbEntity
  8
0
  6
Continuous
100
AcDbLine
 10
1.708988999999999
 20
6.967378
 30
0.0
 11
1.685913
 21
6.967378
 31
0.0
  0
LINE
  5
49E
330
80C
100
AcDbEntity
  8
0
  6
Continuous
100
AcDbLine
 10
1.447461999999998
 20
6.967378
 30
0.0
 11
1.359099999999999
 21
6.967378
 31
0.0
  0
LINE
  5
49C
330
80C
100
AcDbEntity
  8
0
  6
Continuous
100
AcDbLine
 10
1.708988999999999
 20
6.921225999999998
 30
0.0
 11
1.685913
 21
6.921225999999998
 31
0.0
  0
LINE
  5
49F
330
80C
100
AcDbEntity
  8
0
  6
Continuous
100
AcDbLine
 10
1.447461999999998
 20
6.921225999999998
 30
0.0
 11
1.359099999999999
 21
6.921225999999998
 31
0.0
  0
LINE
  5
492
330
80C
100
AcDbEntity
  8
0
  6
Continuous
100
AcDbLine
 10
1.978208
 20
7.035306
 30
0.0
 11
2.050577999999998
 21
7.035306
 31
0.0
  0
LINE
  5
4A0
330
80C
100
AcDbEntity
  8
0
  6
Continuous
100
AcDbLine
 10
2.108791999999998
 20
7.035306
 30
0.0
 11
2.180502999999998
 21
7.035306
 31
0.0
  0
LINE
  5
493
330
80C
100
AcDbEntity
  8
0
  6
Continuous
100
AcDbLine
 10
1.978208
 20
7.01353
 30
0.0
 11
2.050577999999998
 21
7.01353
 31
0.0
  0
LINE
  5
4A1
330
80C
100
AcDbEntity
  8
0
  6
Continuous
100
AcDbLine
 10
2.108791999999998
 20
7.01353
 30
0.0
 11
2.178199
 21
7.01353
 31
0.0
  0
LINE
  5
3FF
330
80C
100
AcDbEntity
  8
0
  6
Continuous
100
AcDbLine
 10
2.050577999999998
 20
7.035306
 30
0.0
 11
2.050577999999998
 21
7.01353
 31
0.0
  0
LINE
  5
400
330
80C
100
AcDbEntity
  8
0
  6
Continuous
100
AcDbLine
 10
2.108791999999998
 20
7.035306
 30
0.0
 11
2.108791999999998
 21
7.01353
 31
0.0
  0
LINE
  5
2BB
330
80C
100
AcDbEntity
  8
0
  6
Continuous
100
AcDbLine
 10
2.178199
 20
6.869945999999999
 30
0.0
 11
2.108791999999998
 21
6.869945999999999
 31
0.0
  0
LINE
  5
4A4
330
80C
100
AcDbEntity
  8
0
  6
Continuous
100
AcDbLine
 10
2.050577999999998
 20
6.869945999999999
 30
0.0
 11
1.978208
 21
6.869945999999999
 31
0.0
  0
LWPOLYLINE
  5
410
330
80C
100
AcDbEntity
  8
0
  6
Continuous
100
AcDbPolyline
 90
        2
 70
     0
 43
0.0
 10
1.957292999999999
 20
6.841110999999998
 10
2.050577999999998
 20
6.841110999999998
  0
LWPOLYLINE
  5
4A5
330
80C
100
AcDbEntity
  8
0
  6
Continuous
100
AcDbPolyline
 90
        2
 70
     0
 43
0.0
 10
2.108791999999998
 20
6.841110999999998
 10
2.200620999999999
 20
6.841110999999998
  0
LINE
  5
2AF
330
80C
100
AcDbEntity
  8
0
  6
Continuous
100
AcDbLine
 10
1.42334
 20
6.716421999999999
 30
0.0
 11
1.506941
 21
6.716421999999999
 31
0.0
  0
LINE
  5
4A2
330
80C
100
AcDbEntity
  8
0
  6
Continuous
100
AcDbLine
 10
2.050577999999998
 20
6.869945999999999
 30
0.0
 11
2.050577999999998
 21
6.841110999999998
 31
0.0
  0
LINE
  5
4A7
330
80C
100
AcDbEntity
  8
0
  6
Continuous
100
AcDbLine
 10
2.050577999999998
 20
6.521406999999999
 30
0.0
 11
2.050577999999998
 21
6.485793
 31
0.0
  0
LINE
  5
4A3
330
80C
100
AcDbEntity
  8
0
  6
Continuous
100
AcDbLine
 10
2.108791999999998
 20
6.869945999999999
 30
0.0
 11
2.108791999999998
 21
6.841110999999998
 31
0.0
  0
LINE
  5
4A8
330
80C
100
AcDbEntity
  8
0
  6
Continuous
100
AcDbLine
 10
2.108791999999998
 20
6.521406999999999
 30
0.0
 11
2.108791999999998
 21
6.485793
 31
0.0
  0
LINE
  5
2BD
330
80C
100
AcDbEntity
  8
0
  6
Continuous
100
AcDbLine
 10
1.447461999999998
 20
6.869945999999999
 30
0.0
 11
1.447461999999998
 21
6.921225999999998
 31
0.0
  0
LINE
  5
4B1
330
80C
100
AcDbEntity
  8
0
  6
Continuous
100
AcDbLine
 10
1.447461999999998
 20
6.967378
 30
0.0
 11
1.447461999999998
 21
7.01353
 31
0.0
  0
LWPOLYLINE
  5
4B2
330
80C
100
AcDbEntity
  8
0
  6
Continuous
100
AcDbPolyline
 90
        3
 70
     0
 43
0.0
 10
1.335906999999999
 20
7.000079999999999
 10
1.359099999999999
 20
7.000079999999999
 10
1.359099999999999
 20
6.967378
  0
LINE
  5
47E
330
80C
100
AcDbEntity
  8
0
  6
Continuous
100
AcDbLine
 10
1.175678999999999
 20
7.035306
 30
0.0
 11
1.266327999999999
 21
7.035306
 31
0.0
  0
LINE
  5
4B3
330
80C
100
AcDbEntity
  8
0
  6
Continuous
100
AcDbLine
 10
1.335906999999999
 20
7.035306
 30
0.0
 11
1.415836999999998
 21
7.035306
 31
0.0
  0
LWPOLYLINE
  5
4B0
330
80C
100
AcDbEntity
  8
0
  6
Continuous
100
AcDbPolyline
 90
        3
 70
     0
 43
0.0
 10
1.359099999999999
 20
6.921225999999998
 10
1.359099999999999
 20
6.884114999999999
 10
1.335906999999999
 20
6.884114999999999
  0
LWPOLYLINE
  5
4B4
330
80C
100
AcDbEntity
  8
0
  6
Continuous
100
AcDbPolyline
 90
        4
 70
     0
 43
0.0
 10
1.266327999999999
 20
6.884114999999999
 10
1.229219
 20
6.884114999999999
 10
1.229219
 20
7.000079999999999
 10
1.266327999999999
 20
7.000079999999999
  0
LINE
  5
45A
330
80C
100
AcDbEntity
  8
0
  6
Continuous
100
AcDbLine
 10
1.266327999999999
 20
7.035306
 30
0.0
 11
1.266327999999999
 21
7.000079999999999
 31
0.0
  0
LINE
  5
4B5
330
80C
100
AcDbEntity
  8
0
  6
Continuous
100
AcDbLine
 10
1.266327999999999
 20
6.884114999999999
 30
0.0
 11
1.266327999999999
 21
6.819685999999999
 31
0.0
  0
LINE
  5
45B
330
80C
100
AcDbEntity
  8
0
  6
Continuous
100
AcDbLine
 10
1.335906999999999
 20
7.035306
 30
0.0
 11
1.335906999999999
 21
7.000079999999999
 31
0.0
  0
LINE
  5
4B6
330
80C
100
AcDbEntity
  8
0
  6
Continuous
100
AcDbLine
 10
1.335906999999999
 20
6.884114999999999
 30
0.0
 11
1.335906999999999
 21
6.803855
 31
0.0
  0
LINE
  5
4B7
330
80C
100
AcDbEntity
  8
0
  6
Continuous
100
AcDbLine
 10
1.212377
 20
6.786131
 30
0.0
 11
1.222574999999999
 21
6.775933
 31
0.0
  0
LINE
  5
4B8
330
80C
100
AcDbEntity
  8
0
  6
Continuous
100
AcDbLine
 10
1.176703
 20
6.750456999999999
 30
0.0
 11
1.186900999999999
 21
6.740259
 31
0.0
  0
LINE
  5
4B9
330
80C
100
AcDbEntity
  8
0
  6
Continuous
100
AcDbLine
 10
1.211170999999999
 20
6.563863999999998
 30
0.0
 11
1.221967999999999
 21
6.574660999999998
 31
0.0
  0
LINE
  5
4BA
330
80C
100
AcDbEntity
  8
0
  6
Continuous
100
AcDbLine
 10
1.176217
 20
6.598816999999999
 30
0.0
 11
1.187014999999999
 21
6.609614999999998
 31
0.0
  0
LWPOLYLINE
  5
413
330
80C
100
AcDbEntity
  8
0
  6
Continuous
100
AcDbPolyline
 90
        3
 70
     0
 43
0.0
 10
1.546932999999999
 20
6.597127
 10
1.506941
 20
6.597127
 10
1.506941
 20
6.645997999999999
  0
LWPOLYLINE
  5
4BB
330
80C
100
AcDbEntity
  8
0
  6
Continuous
100
AcDbPolyline
 90
        3
 70
     0
 43
0.0
 10
1.506941
 20
6.716421999999999
 10
1.506941
 20
6.761185
 10
1.546932999999999
 20
6.761185
  0
LINE
  5
312
330
80C
100
AcDbEntity
  8
0
  6
Continuous
100
AcDbLine
 10
1.159427999999999
 20
6.615605999999998
 30
0.0
 11
1.176217
 21
6.598816999999999
 31
0.0
  0
LINE
  5
4BC
330
80C
100
AcDbEntity
  8
0
  6
Continuous
100
AcDbLine
 10
1.211170999999999
 20
6.563863999999998
 30
0.0
 11
1.214617
 21
6.560417
 31
0.0
  0
LINE
  5
311
330
80C
100
AcDbEntity
  8
0
  6
Continuous
100
AcDbLine
 10
1.165754999999998
 20
6.630874999999999
 30
0.0
 11
1.187014999999999
 21
6.609614999999998
 31
0.0
  0
LINE
  5
4BD
330
80C
100
AcDbEntity
  8
0
  6
Continuous
100
AcDbLine
 10
1.221967999999999
 20
6.574660999999998
 30
0.0
 11
1.232613999999998
 21
6.564015999999999
 31
0.0
  0
LINE
  5
30F
330
80C
100
AcDbEntity
  8
0
  6
Continuous
100
AcDbLine
 10
1.266327999999999
 20
6.819685999999999
 30
0.0
 11
1.222574999999999
 21
6.775933
 31
0.0
  0
LINE
  5
4BE
330
80C
100
AcDbEntity
  8
0
  6
Continuous
100
AcDbLine
 10
1.186900999999999
 20
6.740259
 30
0.0
 11
1.165754999999998
 21
6.719113
 31
0.0
  0
LINE
  5
310
330
80C
100
AcDbEntity
  8
0
  6
Continuous
100
AcDbLine
 10
1.229014999999999
 20
6.802768999999999
 30
0.0
 11
1.212377
 21
6.786131
 31
0.0
  0
LINE
  5
4BF
330
80C
100
AcDbEntity
  8
0
  6
Continuous
100
AcDbLine
 10
1.176703
 20
6.750456999999999
 30
0.0
 11
1.159427999999999
 21
6.733183
 31
0.0
  0
LINE
  5
314
330
80C
100
AcDbEntity
  8
0
  6
Continuous
100
AcDbLine
 10
1.106638999999999
 20
6.821964999999999
 30
0.0
 11
1.106638999999999
 21
6.807567999999998
 31
0.0
  0
LINE
  5
4C0
330
80C
100
AcDbEntity
  8
0
  6
Continuous
100
AcDbLine
 10
1.106638999999999
 20
6.761976999999999
 30
0.0
 11
1.106638999999999
 21
6.733183
 31
0.0
  0
LINE
  5
308
330
80C
100
AcDbEntity
  8
0
  6
Continuous
100
AcDbLine
 10
0.8774840000000001
 20
6.683991999999999
 30
0.0
 11
0.954269
 21
6.683991999999999
 31
0.0
  0
LINE
  5
4C2
330
80C
100
AcDbEntity
  8
0
  6
Continuous
100
AcDbLine
 10
1.003459
 20
6.683991999999999
 30
0.0
 11
1.071845999999998
 21
6.683991999999999
 31
0.0
  0
LINE
  5
309
330
80C
100
AcDbEntity
  8
0
  6
Continuous
100
AcDbLine
 10
1.071845999999998
 20
6.663596
 30
0.0
 11
1.003459
 21
6.663596
 31
0.0
  0
LINE
  5
4C3
330
80C
100
AcDbEntity
  8
0
  6
Continuous
100
AcDbLine
 10
0.954269
 20
6.663596
 30
0.0
 11
0.8774840000000001
 21
6.663596
 31
0.0
  0
LWPOLYLINE
  5
4C4
330
80C
100
AcDbEntity
  8
0
  6
Continuous
100
AcDbPolyline
 90
        4
 70
     0
 43
0.0
 10
0.8774840000000001
 20
6.683991999999999
 10
0.8774840000000001
 20
6.831563
 10
1.071845999999998
 20
6.831563
 10
1.071845999999998
 20
6.807567999999998
  0
LWPOLYLINE
  5
4C1
330
80C
100
AcDbEntity
  8
0
  6
Continuous
100
AcDbPolyline
 90
        2
 70
     0
 43
0.0
 10
1.071845999999998
 20
6.761976999999999
 10
1.071845999999998
 20
6.683991999999999
  0
LWPOLYLINE
  5
4C5
330
80C
100
AcDbEntity
  8
0
  6
Continuous
100
AcDbPolyline
 90
        2
 70
     0
 43
0.0
 10
1.071845999999998
 20
6.663596
 10
1.071845999999998
 20
6.579613
  0
LWPOLYLINE
  5
4C6
330
80C
100
AcDbEntity
  8
0
  6
Continuous
100
AcDbPolyline
 90
        4
 70
     0
 43
0.0
 10
1.071845999999998
 20
6.529222999999999
 10
1.071845999999998
 20
6.432042
 10
0.8774840000000001
 20
6.432042
 10
0.8774840000000001
 20
6.663596
  0
LINE
  5
31B
330
80C
100
AcDbEntity
  8
0
  6
Continuous
100
AcDbLine
 10
1.071845999999998
 20
6.579613
 30
0.0
 11
1.113837
 21
6.579613
 31
0.0
  0
LINE
  5
31E
330
80C
100
AcDbEntity
  8
0
  6
Continuous
100
AcDbLine
 10
1.113837
 20
6.615605999999998
 30
0.0
 11
1.113837
 21
6.579613
 31
0.0
  0
LWPOLYLINE
  5
450
330
80C
100
AcDbEntity
  8
0
  6
Continuous
100
AcDbPolyline
 90
        4
 70
     0
 43
0.0
 10
1.146230999999998
 20
5.524290999999999
 10
0.9827949999999999
 20
5.524290999999999
 10
0.9827949999999999
 20
6.41633
 10
1.146230999999998
 20
6.41633
  0
LWPOLYLINE
  5
4C9
330
80C
100
AcDbEntity
  8
0
  6
Continuous
100
AcDbPolyline
 90
        3
 70
     0
 43
0.0
 10
1.214617
 20
6.41633
 10
1.356290999999999
 20
6.41633
 10
1.356290999999999
 20
6.002978999999998
  0
LINE
  5
4CA
330
80C
100
AcDbEntity
  8
0
  6
Continuous
100
AcDbLine
 10
2.699643999999998
 20
5.44413
 30
0.0
 11
2.720638999999998
 21
5.44413
 31
0.0
  0
LWPOLYLINE
  5
279
330
80C
100
AcDbEntity
  8
0
  6
Continuous
100
AcDbPolyline
 90
        4
 70
     0
 43
0.0
 10
2.248133999999998
 20
5.235732999999998
 10
2.248133999999998
 20
5.44413
 10
2.552807
 20
5.44413
 10
2.552807
 20
5.340262999999999
  0
LWPOLYLINE
  5
4CB
330
80C
100
AcDbEntity
  8
0
  6
Continuous
100
AcDbPolyline
 90
        4
 70
     0
 43
0.0
 10
2.552807
 20
5.273177999999998
 10
2.552807
 20
4.973271999999998
 10
2.248133999999998
 20
4.973271999999998
 10
2.248133999999998
 20
5.177674999999998
  0
LINE
  5
286
330
80C
100
AcDbEntity
  8
0
  6
Continuous
100
AcDbLine
 10
2.699643999999998
 20
5.155382999999999
 30
0.0
 11
2.699643999999998
 21
5.273177999999998
 31
0.0
  0
LINE
  5
4CC
330
80C
100
AcDbEntity
  8
0
  6
Continuous
100
AcDbLine
 10
2.699643999999998
 20
5.340262999999999
 30
0.0
 11
2.699643999999998
 21
5.44413
 31
0.0
  0
LINE
  5
3FA
330
80C
100
AcDbEntity
  8
0
  6
Continuous
100
AcDbLine
 10
2.720638999999998
 20
5.472367
 30
0.0
 11
2.720638999999998
 21
5.44413
 31
0.0
  0
LINE
  5
4CD
330
80C
100
AcDbEntity
  8
0
  6
Continuous
100
AcDbLine
 10
2.720638999999998
 20
5.155382999999999
 30
0.0
 11
2.720638999999998
 21
5.133570999999998
 31
0.0
  0
LINE
  5
2EA
330
80C
100
AcDbEntity
  8
0
  6
Continuous
100
AcDbLine
 10
2.789536999999998
 20
5.133570999999998
 30
0.0
 11
2.789536999999998
 21
5.155382999999999
 31
0.0
  0
LINE
  5
4CE
330
80C
100
AcDbEntity
  8
0
  6
Continuous
100
AcDbLine
 10
2.789536999999998
 20
5.44413
 30
0.0
 11
2.789536999999998
 21
5.472367
 31
0.0
  0
LINE
  5
2EE
330
80C
100
AcDbEntity
  8
0
  6
Continuous
100
AcDbLine
 10
2.581478999999999
 20
5.133570999999998
 30
0.0
 11
2.720638999999998
 21
5.133570999999998
 31
0.0
  0
LINE
  5
4CF
330
80C
100
AcDbEntity
  8
0
  6
Continuous
100
AcDbLine
 10
2.699643999999998
 20
5.155382999999999
 30
0.0
 11
2.720638999999998
 21
5.155382999999999
 31
0.0
  0
LWPOLYLINE
  5
4D2
330
80C
100
AcDbEntity
  8
0
  6
Continuous
100
AcDbPolyline
 90
        2
 70
     0
 43
0.0
 10
2.859698999999999
 20
5.675683999999999
 10
2.859698999999999
 20
5.939549999999998
  0
LWPOLYLINE
  5
3B5
330
80C
100
AcDbEntity
  8
0
  6
Continuous
100
AcDbPolyline
 90
        2
 70
     0
 43
0.0
 10
3.242328999999999
 20
5.939549999999998
 10
3.242328999999999
 20
5.675683999999999
  0
LINE
  5
4D4
330
80C
100
AcDbEntity
  8
0
  6
Continuous
100
AcDbLine
 10
2.927222
 20
5.654929
 30
0.0
 11
2.927222
 21
5.675683999999999
 31
0.0
  0
LINE
  5
4D5
330
80C
100
AcDbEntity
  8
0
  6
Continuous
100
AcDbLine
 10
3.177306999999998
 20
5.654929
 30
0.0
 11
3.177306999999998
 21
5.675683999999999
 31
0.0
  0
LINE
  5
4D6
330
80C
100
AcDbEntity
  8
0
  6
Continuous
100
AcDbLine
 10
3.177306999999998
 20
5.44413
 30
0.0
 11
3.177306999999998
 21
5.472367
 31
0.0
  0
LINE
  5
4D7
330
80C
100
AcDbEntity
  8
0
  6
Continuous
100
AcDbLine
 10
2.927222
 20
5.44413
 30
0.0
 11
2.927222
 21
5.472367
 31
0.0
  0
LINE
  5
2EB
330
80C
100
AcDbEntity
  8
0
  6
Continuous
100
AcDbLine
 10
2.859698999999999
 20
5.675683999999999
 30
0.0
 11
2.927222
 21
5.675683999999999
 31
0.0
  0
LINE
  5
28B
330
80C
100
AcDbEntity
  8
0
  6
Continuous
100
AcDbLine
 10
2.859698999999999
 20
5.654929
 30
0.0
 11
2.927222
 21
5.654929
 31
0.0
  0
LINE
  5
4DC
330
80C
100
AcDbEntity
  8
0
  6
Continuous
100
AcDbLine
 10
3.177306999999998
 20
5.675683999999999
 30
0.0
 11
3.242328999999999
 21
5.675683999999999
 31
0.0
  0
LINE
  5
4DD
330
80C
100
AcDbEntity
  8
0
  6
Continuous
100
AcDbLine
 10
3.177306999999998
 20
5.654929
 30
0.0
 11
3.242328999999999
 21
5.654929
 31
0.0
  0
LWPOLYLINE
  5
4D3
330
80C
100
AcDbEntity
  8
0
  6
Continuous
100
AcDbPolyline
 90
        3
 70
     0
 43
0.0
 10
3.242328999999999
 20
5.654929
 10
3.242328999999999
 20
5.472367
 10
3.177306999999998
 20
5.472367
  0
LINE
  5
4DF
330
80C
100
AcDbEntity
  8
0
  6
Continuous
100
AcDbLine
 10
3.177306999999998
 20
5.44413
 30
0.0
 11
3.404884999999998
 21
5.44413
 31
0.0
  0
LWPOLYLINE
  5
4E0
330
80C
100
AcDbEntity
  8
0
  6
Continuous
100
AcDbPolyline
 90
        3
 70
     0
 43
0.0
 10
2.927222
 20
5.472367
 10
2.859698999999999
 20
5.472367
 10
2.859698999999999
 20
5.654929
  0
LINE
  5
3FD
330
80C
100
AcDbEntity
  8
0
  6
Continuous
100
AcDbLine
 10
2.789536999999998
 20
5.44413
 30
0.0
 11
2.927222
 21
5.44413
 31
0.0
  0
LINE
  5
4E6
330
80C
100
AcDbEntity
  8
0
  6
Continuous
100
AcDbLine
 10
2.938502
 20
4.818522999999999
 30
0.0
 11
2.938502
 21
4.789642999999998
 31
0.0
  0
LINE
  5
4E7
330
80C
100
AcDbEntity
  8
0
  6
Continuous
100
AcDbLine
 10
3.167405
 20
4.818522999999999
 30
0.0
 11
3.167405
 21
4.789642999999998
 31
0.0
  0
LINE
  5
283
330
80C
100
AcDbEntity
  8
0
  6
Continuous
100
AcDbLine
 10
2.581478999999999
 20
4.909673999999998
 30
0.0
 11
2.907386999999999
 21
4.909673999999998
 31
0.0
  0
LINE
  5
4EB
330
80C
100
AcDbEntity
  8
0
  6
Continuous
100
AcDbLine
 10
2.927222
 20
4.909673999999998
 30
0.0
 11
2.977863999999998
 21
4.909673999999998
 31
0.0
  0
LINE
  5
4EC
330
80C
100
AcDbEntity
  8
0
  6
Continuous
100
AcDbLine
 10
3.126770999999998
 20
4.909673999999998
 30
0.0
 11
3.177306999999998
 21
4.909673999999998
 31
0.0
  0
LINE
  5
4ED
330
80C
100
AcDbEntity
  8
0
  6
Continuous
100
AcDbLine
 10
3.195667999999999
 20
4.909673999999998
 30
0.0
 11
3.521799999999998
 21
4.909673999999998
 31
0.0
  0
LINE
  5
4EE
330
80C
100
AcDbEntity
  8
0
  6
Continuous
100
AcDbLine
 10
3.195667999999999
 20
5.133570999999998
 30
0.0
 11
3.521799999999998
 21
5.133570999999998
 31
0.0
  0
LINE
  5
4D0
330
80C
100
AcDbEntity
  8
0
  6
Continuous
100
AcDbLine
 10
2.789536999999998
 20
5.133570999999998
 30
0.0
 11
2.907386999999999
 21
5.133570999999998
 31
0.0
  0
LINE
  5
289
330
80C
100
AcDbEntity
  8
0
  6
Continuous
100
AcDbLine
 10
3.177306999999998
 20
4.909673999999998
 30
0.0
 11
3.177306999999998
 21
5.133570999999998
 31
0.0
  0
LINE
  5
288
330
80C
100
AcDbEntity
  8
0
  6
Continuous
100
AcDbLine
 10
2.927222
 20
4.909673999999998
 30
0.0
 11
2.927222
 21
5.133570999999998
 31
0.0
  0
LINE
  5
4D1
330
80C
100
AcDbEntity
  8
0
  6
Continuous
100
AcDbLine
 10
2.789536999999998
 20
5.155382999999999
 30
0.0
 11
2.977863999999998
 21
5.155382999999999
 31
0.0
  0
LINE
  5
4F4
330
80C
100
AcDbEntity
  8
0
  6
Continuous
100
AcDbLine
 10
3.126770999999998
 20
5.155382999999999
 30
0.0
 11
3.404884999999998
 21
5.155382999999999
 31
0.0
  0
LINE
  5
4EF
330
80C
100
AcDbEntity
  8
0
  6
Continuous
100
AcDbLine
 10
2.927222
 20
5.133570999999998
 30
0.0
 11
2.977863999999998
 21
5.133570999999998
 31
0.0
  0
LINE
  5
4F5
330
80C
100
AcDbEntity
  8
0
  6
Continuous
100
AcDbLine
 10
3.126770999999998
 20
5.133570999999998
 30
0.0
 11
3.177306999999998
 21
5.133570999999998
 31
0.0
  0
LINE
  5
2F1
330
80C
100
AcDbEntity
  8
0
  6
Continuous
100
AcDbLine
 10
2.977863999999998
 20
5.155382999999999
 30
0.0
 11
2.977863999999998
 21
5.133570999999998
 31
0.0
  0
LINE
  5
4F6
330
80C
100
AcDbEntity
  8
0
  6
Continuous
100
AcDbLine
 10
2.977863999999998
 20
4.909673999999998
 30
0.0
 11
2.977863999999998
 21
4.883771
 31
0.0
  0
LINE
  5
2F2
330
80C
100
AcDbEntity
  8
0
  6
Continuous
100
AcDbLine
 10
3.126770999999998
 20
4.883771
 30
0.0
 11
3.126770999999998
 21
4.909673999999998
 31
0.0
  0
LINE
  5
4F7
330
80C
100
AcDbEntity
  8
0
  6
Continuous
100
AcDbLine
 10
3.126770999999998
 20
5.133570999999998
 30
0.0
 11
3.126770999999998
 21
5.155382999999999
 31
0.0
  0
LWPOLYLINE
  5
4F8
330
80C
100
AcDbEntity
  8
0
  6
Continuous
100
AcDbPolyline
 90
        4
 70
     0
 43
0.0
 10
3.126770999999998
 20
4.883771
 10
3.318223
 20
4.883771
 10
3.318223
 20
4.818522999999999
 10
3.167405
 20
4.818522999999999
  0
LWPOLYLINE
  5
4F9
330
80C
100
AcDbEntity
  8
0
  6
Continuous
100
AcDbPolyline
 90
        2
 70
     0
 43
0.0
 10
3.107829999999998
 20
4.818522999999999
 10
3.090943
 20
4.818522999999999
  0
LWPOLYLINE
  5
4FA
330
80C
100
AcDbEntity
  8
0
  6
Continuous
100
AcDbPolyline
 90
        2
 70
     0
 43
0.0
 10
3.024554
 20
4.818522999999999
 10
3.007271999999999
 20
4.818522999999999
  0
LWPOLYLINE
  5
4FB
330
80C
100
AcDbEntity
  8
0
  6
Continuous
100
AcDbPolyline
 90
        4
 70
     0
 43
0.0
 10
2.938502
 20
4.818522999999999
 10
2.774847999999999
 20
4.818522999999999
 10
2.774847999999999
 20
4.883771
 10
2.977863999999998
 20
4.883771
  0
LINE
  5
4E8
330
80C
100
AcDbEntity
  8
0
  6
Continuous
100
AcDbLine
 10
2.938502
 20
4.789642999999998
 30
0.0
 11
3.007271999999999
 21
4.789642999999998
 31
0.0
  0
LINE
  5
4FC
330
80C
100
AcDbEntity
  8
0
  6
Continuous
100
AcDbLine
 10
3.024554
 20
4.789642999999998
 30
0.0
 11
3.090943
 21
4.789642999999998
 31
0.0
  0
LINE
  5
4FD
330
80C
100
AcDbEntity
  8
0
  6
Continuous
100
AcDbLine
 10
3.107829999999998
 20
4.789642999999998
 30
0.0
 11
3.167405
 21
4.789642999999998
 31
0.0
  0
LINE
  5
4FE
330
80C
100
AcDbEntity
  8
0
  6
Continuous
100
AcDbLine
 10
3.007271999999999
 20
4.818522999999999
 30
0.0
 11
3.007271999999999
 21
4.789642999999998
 31
0.0
  0
LINE
  5
4FF
330
80C
100
AcDbEntity
  8
0
  6
Continuous
100
AcDbLine
 10
3.024554
 20
4.818522999999999
 30
0.0
 11
3.024554
 21
4.789642999999998
 31
0.0
  0
LINE
  5
500
330
80C
100
AcDbEntity
  8
0
  6
Continuous
100
AcDbLine
 10
3.090943
 20
4.818522999999999
 30
0.0
 11
3.090943
 21
4.789642999999998
 31
0.0
  0
LINE
  5
501
330
80C
100
AcDbEntity
  8
0
  6
Continuous
100
AcDbLine
 10
3.107829999999998
 20
4.818522999999999
 30
0.0
 11
3.107829999999998
 21
4.789642999999998
 31
0.0
  0
POINT
  5
820
330
80C
100
AcDbEntity
  8
isovist_points
 62
     7
100
AcDbPoint
 10
1.165496706496853
 20
5.970175728696474
 30
0.0
  0
ENDSEC
  0
SECTION
  2
OBJECTS
  0
DICTIONARY
  5
7A9
330
0
100
AcDbDictionary
281
     1
  3
ACAD_CIP_PREVIOUS_PRODUCT_INFO
350
81C
  3
ACAD_COLOR
350
7FF
  3
ACAD_DETAILVIEWSTYLE
350
806
  3
ACAD_GROUP
350
7AA
  3
ACAD_LAYOUT
350
7FE
  3
ACAD_MATERIAL
350
7AD
  3
ACAD_MLEADERSTYLE
350
802
  3
ACAD_MLINESTYLE
350
7FB
  3
ACAD_PLOTSETTINGS
350
7FD
  3
ACAD_PLOTSTYLENAME
350
7AB
  3
ACAD_SCALELIST
350
7DF
  3
ACAD_SECTIONVIEWSTYLE
350
804
  3
ACAD_TABLESTYLE
350
800
  3
ACAD_VISUALSTYLE
350
7C6
  3
ACDB_RECOMPOSE_DATA
350
833
  3
AcDbVariableDictionary
350
827
  0
DICTIONARY
  5
821
330
7F1
100
AcDbDictionary
280
     1
281
     1
  3
ADSK_XREC_LAYER_RECONCILED
360
822
  0
DICTIONARY
  5
823
330
811
100
AcDbDictionary
280
     1
281
     1
  3
ADSK_XREC_LAYER_RECONCILED
360
824
  0
DICTIONARY
  5
825
330
81D
100
AcDbDictionary
280
     1
281
     1
  3
ADSK_XREC_LAYER_RECONCILED
360
826
  0
XRECORD
  5
81C
102
{ACAD_REACTORS
330
7A9
102
}
330
7A9
100
AcDbXrecord
280
     1
300
ACD
300
2023
300

  0
DICTIONARY
  5
7FF
102
{ACAD_REACTORS
330
7A9
102
}
330
7A9
100
AcDbDictionary
281
     1
  0
DICTIONARY
  5
806
102
{ACAD_REACTORS
330
7A9
102
}
330
7A9
100
AcDbDictionary
281
     1
  3
Imperial24
350
807
  0
DICTIONARY
  5
7AA
102
{ACAD_REACTORS
330
7A9
102
}
330
7A9
100
AcDbDictionary
281
     1
  0
DICTIONARY
  5
7FE
102
{ACAD_REACTORS
330
7A9
102
}
330
7A9
100
AcDbDictionary
281
     1
  3
Layout1
350
80B
  3
Model
350
80F
  0
DICTIONARY
  5
7AD
102
{ACAD_REACTORS
330
7A9
102
}
330
7A9
100
AcDbDictionary
281
     1
  3
ByBlock
350
7B6
  3
ByLayer
350
7AE
  3
Global
350
7BE
  0
DICTIONARY
  5
802
102
{ACAD_REACTORS
330
7A9
102
}
330
7A9
100
AcDbDictionary
281
     1
  3
Standard
350
803
  0
DICTIONARY
  5
7FB
102
{ACAD_REACTORS
330
7A9
102
}
330
7A9
100
AcDbDictionary
281
     1
  3
Standard
350
7FC
  0
DICTIONARY
  5
7FD
102
{ACAD_REACTORS
330
7A9
102
}
330
7A9
100
AcDbDictionary
281
     1
  0
ACDBDICTIONARYWDFLT
  5
7AB
102
{ACAD_REACTORS
330
7A9
102
}
330
7A9
100
AcDbDictionary
281
     1
  3
Normal
350
7AC
100
AcDbDictionaryWithDefault
340
7AC
  0
DICTIONARY
  5
7DF
102
{ACAD_REACTORS
330
7A9
102
}
330
7A9
100
AcDbDictionary
281
     1
  3
A0
350
7E0
  3
A1
350
7E1
  3
A2
350
7E2
  3
A3
350
7E3
  3
A4
350
7E4
  3
A5
350
7E5
  3
A6
350
7E6
  3
A7
350
7E7
  3
A8
350
7E8
  3
A9
350
7E9
  3
B0
350
7EA
  3
B1
350
7EB
  3
B2
350
7EC
  3
B3
350
7ED
  3
B4
350
7EE
  3
B5
350
7EF
  3
B6
350
7F0
  0
DICTIONARY
  5
804
102
{ACAD_REACTORS
330
7A9
102
}
330
7A9
100
AcDbDictionary
281
     1
  3
Imperial24
350
805
  0
DICTIONARY
  5
800
102
{ACAD_REACTORS
330
7A9
102
}
330
7A9
100
AcDbDictionary
281
     1
  3
Standard
350
801
  0
DICTIONARY
  5
7C6
102
{ACAD_REACTORS
330
7A9
102
}
330
7A9
100
AcDbDictionary
281
     1
  3
2dWireframe
350
7CC
  3
Basic
350
7CB
  3
Brighten
350
7D2
  3
ColorChange
350
7D6
  3
Conceptual
350
7CF
  3
Dim
350
7D1
  3
EdgeColorOff
350
7DE
  3
Facepattern
350
7D5
  3
Flat
350
7C7
  3
FlatWithEdges
350
7C8
  3
Gouraud
350
7C9
  3
GouraudWithEdges
350
7CA
  3
Hidden
350
7CE
  3
JitterOff
350
7DC
  3
Linepattern
350
7D4
  3
OverhangOff
350
7DD
  3
Realistic
350
7D0
  3
Shaded
350
7DB
  3
Shaded with edges
350
7DA
  3
Shades of Gray
350
7D7
  3
Sketchy
350
7D8
  3
Thicken
350
7D3
  3
Wireframe
350
7CD
  3
X-Ray
350
7D9
  0
XRECORD
  5
833
102
{ACAD_REACTORS
330
7A9
102
}
330
7A9
100
AcDbXrecord
280
     1
 90
        1
330
801
  0
DICTIONARY
  5
827
102
{ACAD_REACTORS
330
7A9
102
}
330
7A9
100
AcDbDictionary
281
     1
  3
CANNOSCALE
350
82D
  3
CMLEADERSTYLE
350
829
  3
CTABLESTYLE
350
828
  3
CVIEWDETAILSTYLE
350
82A
  3
CVIEWSECTIONSTYLE
350
82B
  3
LAYEREVAL
350
82F
  3
LAYERNOTIFY
350
830
  3
LIGHTINGUNITS
350
82E
  3
MSLTSCALE
350
82C
  0
XRECORD
  5
822
102
{ACAD_REACTORS
330
821
102
}
330
821
100
AcDbXrecord
280
     1
290
     1
  0
XRECORD
  5
824
102
{ACAD_REACTORS
330
823
102
}
330
823
100
AcDbXrecord
280
     1
290
     1
  0
XRECORD
  5
826
102
{ACAD_REACTORS
330
825
102
}
330
825
100
AcDbXrecord
280
     1
290
     1
  0
ACDBDETAILVIEWSTYLE
  5
807
102
{ACAD_REACTORS
330
806
102
}
330
806
100
AcDbModelDocViewStyle
 70
     0
  3
Imperial24
290
     0
300
Imperial24
 90
        0
100
AcDbDetailViewStyle
 70
     0
 71
     0
 90
        3
 71
     1
340
7F2
 62
   256
 40
0.24
340
0
 62
   256
 40
0.24
300

 40
0.36
280
     3
 71
     2
340
7F9
 90
       25
 62
   256
 71
     3
340
7F2
 62
   256
 40
0.24
 90
        1
 40
0.75
 90
        1
300
%<\AcVar ViewType \f "%tc1">% %<\AcVar ViewDetailId>%\PSCALE %<\AcVar ViewScale \f "%sn">%
 71
     4
340
7F9
 90
       25
 62
   256
340
7F9
 90
       25
 62
   256
280
     0
  0
LAYOUT
  5
80B
102
{ACAD_REACTORS
330
7FE
102
}
330
7FE
100
AcDbPlotSettings
  1

  2
Adobe PDF
  4

  6

 40
0.0
 41
0.0
 42
0.0
 43
0.0
 44
0.0
 45
0.0
 46
0.0
 47
0.0
 48
0.0
 49
0.0
140
0.0
141
0.0
142
1.0
143
1.0
 70
   688
 72
     0
 73
     0
 74
     5
  7

 75
    16
147
1.0
 76
     0
 77
     2
 78
   300
148
0.0
149
0.0
100
AcDbLayout
  1
Layout1
 70
     1
 71
     1
 10
0.0
 20
0.0
 11
12.0
 21
9.0
 12
0.0
 22
0.0
 32
0.0
 14
1.000000000000000E+20
 24
1.000000000000000E+20
 34
1.000000000000000E+20
 15
-1.000000000000000E+20
 25
-1.000000000000000E+20
 35
-1.000000000000000E+20
146
0.0
 13
0.0
 23
0.0
 33
0.0
 16
1.0
 26
0.0
 36
0.0
 17
0.0
 27
1.0
 37
0.0
 76
     0
330
808
  0
LAYOUT
  5
80F
102
{ACAD_REACTORS
330
7FE
102
}
330
7FE
100
AcDbPlotSettings
  1

  2
Adobe PDF
  4

  6

 40
0.0
 41
0.0
 42
0.0
 43
0.0
 44
0.0
 45
0.0
 46
0.0
 47
0.0
 48
0.0
 49
0.0
140
0.0
141
0.0
142
1.0
143
1.0
 70
  1712
 72
     0
 73
     0
 74
     0
  7

 75
     0
147
1.0
 76
     0
 77
     2
 78
   300
148
0.0
149
0.0
100
AcDbLayout
  1
Model
 70
     1
 71
     0
 10
0.0
 20
0.0
 11
12.0
 21
9.0
 12
0.0
 22
0.0
 32
0.0
 14
0.0
 24
0.0
 34
0.0
 15
0.0
 25
0.0
 35
0.0
146
0.0
 13
0.0
 23
0.0
 33
0.0
 16
1.0
 26
0.0
 36
0.0
 17
0.0
 27
1.0
 37
0.0
 76
     0
330
80C
331
810
  0
MATERIAL
  5
7B6
102
{ACAD_XDICTIONARY
360
7B7
102
}
102
{ACAD_REACTORS
330
7AD
102
}
330
7AD
100
AcDbMaterial
  1
ByBlock
 72
     0
 43
0.0208333333333333
 43
0.0
 43
0.0
 43
0.0
 43
0.0
 43
0.0208333333333333
 43
0.0
 43
0.0
 43
0.0
 43
0.0
 43
1.0
 43
0.0
 43
0.0
 43
0.0
 43
0.0
 43
1.0
 77
     0
 47
0.0208333333333333
 47
0.0
 47
0.0
 47
0.0
 47
0.0
 47
0.0208333333333333
 47
0.0
 47
0.0
 47
0.0
 47
0.0
 47
1.0
 47
0.0
 47
0.0
 47
0.0
 47
0.0
 47
1.0
171
     0
 49
0.0208333333333333
 49
0.0
 49
0.0
 49
0.0
 49
0.0
 49
0.0208333333333333
 49
0.0
 49
0.0
 49
0.0
 49
0.0
 49
1.0
 49
0.0
 49
0.0
 49
0.0
 49
0.0
 49
1.0
175
     0
142
0.0208333333333333
142
0.0
142
0.0
142
0.0
142
0.0
142
0.0208333333333333
142
0.0
142
0.0
142
0.0
142
0.0
142
1.0
142
0.0
142
0.0
142
0.0
142
0.0
142
1.0
179
     0
144
0.0208333333333333
144
0.0
144
0.0
144
0.0
144
0.0
144
0.0208333333333333
144
0.0
144
0.0
144
0.0
144
0.0
144
1.0
144
0.0
144
0.0
144
0.0
144
0.0
144
1.0
147
0.0208333333333333
147
0.0
147
0.0
147
0.0
147
0.0
147
0.0208333333333333
147
0.0
147
0.0
147
0.0
147
0.0
147
1.0
147
0.0
147
0.0
147
0.0
147
0.0
147
1.0
  0
MATERIAL
  5
7AE
102
{ACAD_XDICTIONARY
360
7AF
102
}
102
{ACAD_REACTORS
330
7AD
102
}
330
7AD
100
AcDbMaterial
  1
ByLayer
 72
     0
 43
0.0208333333333333
 43
0.0
 43
0.0
 43
0.0
 43
0.0
 43
0.0208333333333333
 43
0.0
 43
0.0
 43
0.0
 43
0.0
 43
1.0
 43
0.0
 43
0.0
 43
0.0
 43
0.0
 43
1.0
 77
     0
 47
0.0208333333333333
 47
0.0
 47
0.0
 47
0.0
 47
0.0
 47
0.0208333333333333
 47
0.0
 47
0.0
 47
0.0
 47
0.0
 47
1.0
 47
0.0
 47
0.0
 47
0.0
 47
0.0
 47
1.0
171
     0
 49
0.0208333333333333
 49
0.0
 49
0.0
 49
0.0
 49
0.0
 49
0.0208333333333333
 49
0.0
 49
0.0
 49
0.0
 49
0.0
 49
1.0
 49
0.0
 49
0.0
 49
0.0
 49
0.0
 49
1.0
175
     0
142
0.0208333333333333
142
0.0
142
0.0
142
0.0
142
0.0
142
0.0208333333333333
142
0.0
142
0.0
142
0.0
142
0.0
142
1.0
142
0.0
142
0.0
142
0.0
142
0.0
142
1.0
179
     0
144
0.0208333333333333
144
0.0
144
0.0
144
0.0
144
0.0
144
0.0208333333333333
144
0.0
144
0.0
144
0.0
144
0.0
144
1.0
144
0.0
144
0.0
144
0.0
144
0.0
144
1.0
147
0.0208333333333333
147
0.0
147
0.0
147
0.0
147
0.0
147
0.0208333333333333
147
0.0
147
0.0
147
0.0
147
0.0
147
1.0
147
0.0
147
0.0
147
0.0
147
0.0
147
1.0
  0
MATERIAL
  5
7BE
102
{ACAD_XDICTIONARY
360
7BF
102
}
102
{ACAD_REACTORS
330
7AD
102
}
330
7AD
100
AcDbMaterial
  1
Global
 72
     0
 43
0.0208333333333333
 43
0.0
 43
0.0
 43
0.0
 43
0.0
 43
0.0208333333333333
 43
0.0
 43
0.0
 43
0.0
 43
0.0
 43
1.0
 43
0.0
 43
0.0
 43
0.0
 43
0.0
 43
1.0
 77
     0
 47
0.0208333333333333
 47
0.0
 47
0.0
 47
0.0
 47
0.0
 47
0.0208333333333333
 47
0.0
 47
0.0
 47
0.0
 47
0.0
 47
1.0
 47
0.0
 47
0.0
 47
0.0
 47
0.0
 47
1.0
171
     0
 49
0.0208333333333333
 49
0.0
 49
0.0
 49
0.0
 49
0.0
 49
0.0208333333333333
 49
0.0
 49
0.0
 49
0.0
 49
0.0
 49
1.0
 49
0.0
 49
0.0
 49
0.0
 49
0.0
 49
1.0
175
     0
142
0.0208333333333333
142
0.0
142
0.0
142
0.0
142
0.0
142
0.0208333333333333
142
0.0
142
0.0
142
0.0
142
0.0
142
1.0
142
0.0
142
0.0
142
0.0
142
0.0
142
1.0
179
     0
144
0.0208333333333333
144
0.0
144
0.0
144
0.0
144
0.0
144
0.0208333333333333
144
0.0
144
0.0
144
0.0
144
0.0
144
1.0
144
0.0
144
0.0
144
0.0
144
0.0
144
1.0
147
0.0208333333333333
147
0.0
147
0.0
147
0.0
147
0.0
147
0.0208333333333333
147
0.0
147
0.0
147
0.0
147
0.0
147
1.0
147
0.0
147
0.0
147
0.0
147
0.0
147
1.0
  0
MLEADERSTYLE
  5
803
102
{ACAD_REACTORS
330
802
102
}
330
802
100
AcDbMLeaderStyle
179
     2
170
     2
171
     1
172
     0
 90
        2
 40
0.0
 41
0.0
173
     1
 91
-1056964608
340
7F7
 92
       -2
290
     1
 42
0.09
291
     1
 43
0.36
  3
Standard
 44
0.18
300

342
7F2
174
     1
178
     6
175
     1
176
     0
 93
-1056964608
 45
0.18
292
     0
297
     0
 46
0.18
 94
-1056964608
 47
1.0
 49
1.0
140
1.0
293
     1
141
0.0
294
     1
177
     0
142
1.0
295
     0
296
     0
143
0.125
271
     0
272
     9
273
     9
298
     0
  0
MLINESTYLE
  5
7FC
102
{ACAD_REACTORS
330
7FB
102
}
330
7FB
100
AcDbMlineStyle
  2
STANDARD
 70
     0
  3

 62
   256
 51
90.0
 52
90.0
 71
     2
 49
0.5
 62
   256
  6
BYLAYER
 49
-0.5
 62
   256
  6
BYLAYER
  0
ACDBPLACEHOLDER
  5
7AC
102
{ACAD_REACTORS
330
7AB
102
}
330
7AB
  0
SCALE
  5
7E0
102
{ACAD_REACTORS
330
7DF
102
}
330
7DF
100
AcDbScale
 70
     0
300
1:1
140
1.0
141
1.0
290
     1
  0
SCALE
  5
7E1
102
{ACAD_REACTORS
330
7DF
102
}
330
7DF
100
AcDbScale
 70
     0
300
1/128" = 1'-0"
140
0.0078125
141
12.0
290
     0
  0
SCALE
  5
7E2
102
{ACAD_REACTORS
330
7DF
102
}
330
7DF
100
AcDbScale
 70
     0
300
1/64" = 1'-0"
140
0.015625
141
12.0
290
     0
  0
SCALE
  5
7E3
102
{ACAD_REACTORS
330
7DF
102
}
330
7DF
100
AcDbScale
 70
     0
300
1/32" = 1'-0"
140
0.03125
141
12.0
290
     0
  0
SCALE
  5
7E4
102
{ACAD_REACTORS
330
7DF
102
}
330
7DF
100
AcDbScale
 70
     0
300
1/16" = 1'-0"
140
0.0625
141
12.0
290
     0
  0
SCALE
  5
7E5
102
{ACAD_REACTORS
330
7DF
102
}
330
7DF
100
AcDbScale
 70
     0
300
3/32" = 1'-0"
140
0.09375
141
12.0
290
     0
  0
SCALE
  5
7E6
102
{ACAD_REACTORS
330
7DF
102
}
330
7DF
100
AcDbScale
 70
     0
300
1/8" = 1'-0"
140
0.125
141
12.0
290
     0
  0
SCALE
  5
7E7
102
{ACAD_REACTORS
330
7DF
102
}
330
7DF
100
AcDbScale
 70
     0
300
3/16" = 1'-0"
140
0.1875
141
12.0
290
     0
  0
SCALE
  5
7E8
102
{ACAD_REACTORS
330
7DF
102
}
330
7DF
100
AcDbScale
 70
     0
300
1/4" = 1'-0"
140
0.25
141
12.0
290
     0
  0
SCALE
  5
7E9
102
{ACAD_REACTORS
330
7DF
102
}
330
7DF
100
AcDbScale
 70
     0
300
3/8" = 1'-0"
140
0.375
141
12.0
290
     0
  0
SCALE
  5
7EA
102
{ACAD_REACTORS
330
7DF
102
}
330
7DF
100
AcDbScale
 70
     0
300
1/2" = 1'-0"
140
0.5
141
12.0
290
     0
  0
SCALE
  5
7EB
102
{ACAD_REACTORS
330
7DF
102
}
330
7DF
100
AcDbScale
 70
     0
300
3/4" = 1'-0"
140
0.75
141
12.0
290
     0
  0
SCALE
  5
7EC
102
{ACAD_REACTORS
330
7DF
102
}
330
7DF
100
AcDbScale
 70
     0
300
1" = 1'-0"
140
1.0
141
12.0
290
     0
  0
SCALE
  5
7ED
102
{ACAD_REACTORS
330
7DF
102
}
330
7DF
100
AcDbScale
 70
     0
300
1-1/2" = 1'-0"
140
1.5
141
12.0
290
     0
  0
SCALE
  5
7EE
102
{ACAD_REACTORS
330
7DF
102
}
330
7DF
100
AcDbScale
 70
     0
300
3" = 1'-0"
140
3.0
141
12.0
290
     0
  0
SCALE
  5
7EF
102
{ACAD_REACTORS
330
7DF
102
}
330
7DF
100
AcDbScale
 70
     0
300
6" = 1'-0"
140
6.0
141
12.0
290
     0
  0
SCALE
  5
7F0
102
{ACAD_REACTORS
330
7DF
102
}
330
7DF
100
AcDbScale
 70
     0
300
1'-0" = 1'-0"
140
12.0
141
12.0
290
     0
  0
ACDBSECTIONVIEWSTYLE
  5
805
102
{ACAD_REACTORS
330
804
102
}
330
804
100
AcDbModelDocViewStyle
 70
     0
  3
Imperial24
290
     0
300
Imperial24
 90
        0
100
AcDbSectionViewStyle
 70
     0
 71
     0
 90
       78
 71
     1
340
7F2
 62
   256
 40
0.24
340
0
340
0
 62
   256
 40
0.24
300
I, O, Q, S, X, Z
 40
0.48
 90
        3
 40
0.18
 90
        1
 71
     2
340
7F9
 90
       25
 62
   256
340
7F9
 90
       50
 62
   256
 40
0.24
 40
0.0
 40
0.24
 71
     3
340
7F2
 62
   256
 40
0.24
 90
        1
 40
0.75
 90
        1
300
%<\AcVar ViewType \f "%tc1">% %<\AcVar ViewSectionStartId>%-%<\AcVar ViewSectionEndId>%\PSCALE %<\AcVar ViewScale \f "%sn">%
 71
     4
 62
   256
 62
   257
300
ANSI31
 40
1.0
 90
        0
290
     0
290
     0
 90
        6
 40
0.0
 40
1.570796326794896
 40
0.2617993877991494
 40
1.308996938995747
 40
-0.2617993877991494
 40
1.832595714594046
  0
TABLESTYLE
  5
801
102
{ACAD_XDICTIONARY
360
831
102
}
102
{ACAD_REACTORS
330
800
102
}
330
800
100
AcDbTableStyle
280
     0
  3
Standard
 70
     0
 71
     0
 40
0.06
 41
0.06
280
     0
281
     0
  7
STANDARD
140
0.18
170
     2
 62
     0
 63
     7
283
     0
 90
      512
 91
        0
  1

274
    -2
284
     1
 64
     0
275
    -2
285
     1
 65
     0
276
    -2
286
     1
 66
     0
277
    -2
287
     1
 67
     0
278
    -2
288
     1
 68
     0
279
    -2
289
     1
 69
     0
  7
STANDARD
140
0.25
170
     5
 62
     0
 63
     7
283
     0
 90
      512
 91
        0
  1

274
    -2
284
     1
 64
     0
275
    -2
285
     1
 65
     0
276
    -2
286
     1
 66
     0
277
    -2
287
     1
 67
     0
278
    -2
288
     1
 68
     0
279
    -2
289
     1
 69
     0
  7
STANDARD
140
0.18
170
     5
 62
     0
 63
     7
283
     0
 90
      512
 91
        0
  1

274
    -2
284
     1
 64
     0
275
    -2
285
     1
 65
     0
276
    -2
286
     1
 66
     0
277
    -2
287
     1
 67
     0
278
    -2
288
     1
 68
     0
279
    -2
289
     1
 69
     0
  0
VISUALSTYLE
  5
7CC
102
{ACAD_REACTORS
330
7C6
102
}
330
7C6
100
AcDbVisualStyle
  2
2dWireframe
 70
     4
177
     3
291
     0
 70
    58
 90
        0
176
     1
 90
        2
176
     1
 90
        0
176
     1
 90
        0
176
     1
 40
0.6
176
     1
 40
30.0
176
     1
 62
     7
420
 16777215
176
     1
 90
        1
176
     1
 90
        4
176
     1
 62
     7
176
     1
 62
   257
176
     1
 90
        1
176
     1
 90
        1
176
     1
 40
1.0
176
     1
 90
        0
176
     1
 62
   257
176
     1
 40
1.0
176
     1
 90
        1
176
     1
 90
        6
176
     1
 90
        2
176
     1
 62
     7
176
     1
 90
        5
176
     1
 90
        0
176
     1
 90
        0
176
     1
290
     0
176
     1
 90
        1
176
     1
 40
0.0
176
     1
 90
        0
176
     1
290
     1
176
     1
290
     1
176
     1
290
     0
176
     1
290
     0
176
     1
290
     0
176
     1
290
     0
176
     1
290
     0
176
     1
290
     0
176
     1
290
     0
176
     1
 90
       50
176
     1
 40
0.0
176
     1
 40
1.0
176
     1
 90
        0
176
     1
 62
    18
420
        0
176
     1
 90
       50
176
     1
 90
        3
176
     1
 62
     5
420
      255
176
     1
290
     0
176
     1
 90
       50
176
     1
 90
       50
176
     1
 90
       50
176
     1
290
     0
176
     1
 90
       50
176
     1
 62
   256
176
     0
 40
1.0
176
     0
 90
        2
176
     1
  1
strokes_ogs.tif
176
     1
290
     0
176
     1
 40
1.0
176
     1
 40
1.0
176
     1
  0
VISUALSTYLE
  5
7CB
102
{ACAD_REACTORS
330
7C6
102
}
330
7C6
100
AcDbVisualStyle
  2
Basic
 70
     7
177
     3
291
     1
 70
    58
 90
        1
176
     1
 90
        0
176
     1
 90
        1
176
     1
 90
        0
176
     1
 40
0.6
176
     1
 40
30.0
176
     1
 62
     7
420
 16777215
176
     1
 90
        0
176
     1
 90
        4
176
     1
 62
     7
176
     1
 62
   257
176
     1
 90
        1
176
     1
 90
        1
176
     1
 40
1.0
176
     1
 90
        8
176
     1
 62
     7
176
     1
 40
1.0
176
     1
 90
        1
176
     1
 90
        6
176
     1
 90
        2
176
     1
 62
     7
176
     1
 90
        5
176
     1
 90
        0
176
     1
 90
        0
176
     1
290
     0
176
     1
 90
        1
176
     1
 40
0.0
176
     1
 90
        0
176
     1
290
     0
176
     1
290
     1
176
     1
290
     1
176
     1
290
     0
176
     1
290
     0
176
     1
290
     0
176
     1
290
     0
176
     1
290
     0
176
     1
290
     0
176
     1
 90
       50
176
     1
 40
0.0
176
     1
 40
1.0
176
     1
 90
        0
176
     1
 62
    18
420
        0
176
     1
 90
       50
176
     1
 90
        3
176
     1
 62
     5
420
      255
176
     1
290
     0
176
     1
 90
       50
176
     1
 90
       50
176
     1
 90
       50
176
     1
290
     0
176
     1
 90
       50
176
     1
 62
   256
176
     0
 40
1.0
176
     0
 90
        2
176
     1
  1
strokes_ogs.tif
176
     1
290
     0
176
     1
 40
1.0
176
     1
 40
1.0
176
     1
  0
VISUALSTYLE
  5
7D2
102
{ACAD_REACTORS
330
7C6
102
}
330
7C6
100
AcDbVisualStyle
  2
Brighten
 70
    12
177
     3
291
     1
 70
    58
 90
        2
176
     1
 90
        2
176
     1
 90
        0
176
     1
 90
        0
176
     1
 40
0.6
176
     1
 40
30.0
176
     1
 62
     7
420
 16777215
176
     1
 90
        1
176
     1
 90
        4
176
     1
 62
     7
176
     1
 62
   257
176
     1
 90
        1
176
     1
 90
        1
176
     1
 40
1.0
176
     1
 90
        8
176
     1
 62
     7
176
     1
 40
1.0
176
     1
 90
        1
176
     1
 90
        6
176
     1
 90
        2
176
     1
 62
     7
176
     1
 90
        5
176
     1
 90
        0
176
     1
 90
        0
176
     1
290
     0
176
     1
 90
        1
176
     1
 40
50.0
176
     1
 90
        0
176
     1
290
     0
176
     1
290
     1
176
     1
290
     1
176
     1
290
     0
176
     1
290
     0
176
     1
290
     0
176
     1
290
     0
176
     1
290
     0
176
     1
290
     0
176
     1
 90
       50
176
     1
 40
0.0
176
     1
 40
1.0
176
     1
 90
        0
176
     1
 62
    18
420
        0
176
     1
 90
       50
176
     1
 90
        3
176
     1
 62
     5
420
      255
176
     1
290
     0
176
     1
 90
       50
176
     1
 90
       50
176
     1
 90
       50
176
     1
290
     0
176
     1
 90
       50
176
     1
 62
   256
176
     0
 40
1.0
176
     0
 90
        2
176
     1
  1
strokes_ogs.tif
176
     1
290
     0
176
     1
 40
1.0
176
     1
 40
1.0
176
     1
  0
VISUALSTYLE
  5
7D6
102
{ACAD_REACTORS
330
7C6
102
}
330
7C6
100
AcDbVisualStyle
  2
ColorChange
 70
    16
177
     3
291
     1
 70
    58
 90
        2
176
     1
 90
        2
176
     1
 90
        3
176
     1
 90
        0
176
     1
 40
0.6
176
     1
 40
30.0
176
     1
 62
     8
420
  8421504
176
     1
 90
        1
176
     1
 90
        4
176
     1
 62
     7
176
     1
 62
   257
176
     1
 90
        1
176
     1
 90
        1
176
     1
 40
1.0
176
     1
 90
        8
176
     1
 62
     8
420
  8421504
176
     1
 40
1.0
176
     1
 90
        1
176
     1
 90
        6
176
     1
 90
        2
176
     1
 62
     7
176
     1
 90
        5
176
     1
 90
        0
176
     1
 90
        0
176
     1
290
     0
176
     1
 90
        1
176
     1
 40
0.0
176
     1
 90
        0
176
     1
290
     0
176
     1
290
     1
176
     1
290
     1
176
     1
290
     0
176
     1
290
     0
176
     1
290
     0
176
     1
290
     0
176
     1
290
     0
176
     1
290
     0
176
     1
 90
       50
176
     1
 40
0.0
176
     1
 40
1.0
176
     1
 90
        0
176
     1
 62
    18
420
        0
176
     1
 90
       50
176
     1
 90
        3
176
     1
 62
     5
420
      255
176
     1
290
     0
176
     1
 90
       50
176
     1
 90
       50
176
     1
 90
       50
176
     1
290
     0
176
     1
 90
       50
176
     1
 62
   256
176
     0
 40
1.0
176
     0
 90
        2
176
     1
  1
strokes_ogs.tif
176
     1
290
     0
176
     1
 40
1.0
176
     1
 40
1.0
176
     1
  0
VISUALSTYLE
  5
7CF
102
{ACAD_REACTORS
330
7C6
102
}
330
7C6
100
AcDbVisualStyle
  2
Conceptual
 70
     9
177
     3
291
     0
 70
    58
 90
        3
176
     1
 90
        2
176
     1
 90
        0
176
     1
 90
        0
176
     1
 40
0.6
176
     1
 40
30.0
176
     1
 62
     7
420
 16777215
176
     1
 90
        2
176
     1
 90
        2
176
     1
 62
     7
176
     1
 62
   257
176
     1
 90
        1
176
     1
 90
        1
176
     1
 40
179.0
176
     1
 90
        8
176
     1
 62
     7
176
     1
 40
1.0
176
     1
 90
        1
176
     1
 90
        6
176
     1
 90
        2
176
     1
 62
     7
176
     1
 90
        3
176
     1
 90
        0
176
     1
 90
        0
176
     1
290
     0
176
     1
 90
        1
176
     1
 40
0.0
176
     1
 90
        0
176
     1
290
     0
176
     1
290
     1
176
     1
290
     1
176
     1
290
     0
176
     1
290
     0
176
     1
290
     0
176
     1
290
     0
176
     1
290
     0
176
     1
290
     0
176
     1
 90
       50
176
     1
 40
0.0
176
     1
 40
1.0
176
     1
 90
        0
176
     1
 62
    18
420
        0
176
     1
 90
       50
176
     1
 90
        3
176
     1
 62
     5
420
      255
176
     1
290
     0
176
     1
 90
       50
176
     1
 90
       50
176
     1
 90
       50
176
     1
290
     0
176
     1
 90
       50
176
     1
 62
   256
176
     0
 40
1.0
176
     0
 90
        2
176
     1
  1
strokes_ogs.tif
176
     1
290
     0
176
     1
 40
1.0
176
     1
 40
1.0
176
     1
  0
VISUALSTYLE
  5
7D1
102
{ACAD_REACTORS
330
7C6
102
}
330
7C6
100
AcDbVisualStyle
  2
Dim
 70
    11
177
     3
291
     1
 70
    58
 90
        2
176
     1
 90
        2
176
     1
 90
        0
176
     1
 90
        0
176
     1
 40
0.6
176
     1
 40
30.0
176
     1
 62
     7
420
 16777215
176
     1
 90
        1
176
     1
 90
        4
176
     1
 62
     7
176
     1
 62
   257
176
     1
 90
        1
176
     1
 90
        1
176
     1
 40
1.0
176
     1
 90
        8
176
     1
 62
     7
176
     1
 40
1.0
176
     1
 90
        1
176
     1
 90
        6
176
     1
 90
        2
176
     1
 62
     7
176
     1
 90
        5
176
     1
 90
        0
176
     1
 90
        0
176
     1
290
     0
176
     1
 90
        1
176
     1
 40
-50.0
176
     1
 90
        0
176
     1
290
     0
176
     1
290
     1
176
     1
290
     1
176
     1
290
     0
176
     1
290
     0
176
     1
290
     0
176
     1
290
     0
176
     1
290
     0
176
     1
290
     0
176
     1
 90
       50
176
     1
 40
0.0
176
     1
 40
1.0
176
     1
 90
        0
176
     1
 62
    18
420
        0
176
     1
 90
       50
176
     1
 90
        3
176
     1
 62
     5
420
      255
176
     1
290
     0
176
     1
 90
       50
176
     1
 90
       50
176
     1
 90
       50
176
     1
290
     0
176
     1
 90
       50
176
     1
 62
   256
176
     0
 40
1.0
176
     0
 90
        2
176
     1
  1
strokes_ogs.tif
176
     1
290
     0
176
     1
 40
1.0
176
     1
 40
1.0
176
     1
  0
VISUALSTYLE
  5
7DE
102
{ACAD_REACTORS
330
7C6
102
}
330
7C6
100
AcDbVisualStyle
  2
EdgeColorOff
 70
    22
177
     3
291
     1
 70
    58
 90
        2
176
     0
 90
        2
176
     0
 90
        0
176
     0
 90
        0
176
     0
 40
0.6
176
     0
 40
30.0
176
     0
 62
     7
420
 16777215
176
     0
 90
        1
176
     0
 90
        4
176
     0
 62
     7
176
     0
 62
   257
176
     0
 90
        1
176
     0
 90
        1
176
     0
 40
1.0
176
     0
 90
        8
176
     2
 62
     7
176
     0
 40
1.0
176
     0
 90
        1
176
     0
 90
        6
176
     0
 90
        2
176
     0
 62
     7
176
     0
 90
        5
176
     0
 90
        0
176
     0
 90
        0
176
     0
290
     0
176
     0
 90
        1
176
     0
 40
0.0
176
     0
 90
        0
176
     0
290
     0
176
     1
290
     1
176
     1
290
     1
176
     1
290
     0
176
     1
290
     0
176
     1
290
     0
176
     1
290
     0
176
     1
290
     0
176
     1
290
     0
176
     1
 90
       50
176
     0
 40
0.0
176
     0
 40
1.0
176
     0
 90
        0
176
     0
 62
    18
420
        0
176
     0
 90
       50
176
     0
 90
        3
176
     0
 62
     5
420
      255
176
     0
290
     0
176
     1
 90
       50
176
     0
 90
       50
176
     0
 90
       50
176
     0
290
     0
176
     1
 90
       50
176
     0
 62
   256
176
     0
 40
1.0
176
     0
 90
        2
176
     0
  1
strokes_ogs.tif
176
     0
290
     0
176
     1
 40
1.0
176
     0
 40
1.0
176
     0
  0
VISUALSTYLE
  5
7D5
102
{ACAD_REACTORS
330
7C6
102
}
330
7C6
100
AcDbVisualStyle
  2
Facepattern
 70
    15
177
     3
291
     1
 70
    58
 90
        2
176
     1
 90
        2
176
     1
 90
        0
176
     1
 90
        0
176
     1
 40
0.6
176
     1
 40
30.0
176
     1
 62
     7
420
 16777215
176
     1
 90
        1
176
     1
 90
        4
176
     1
 62
     7
176
     1
 62
   257
176
     1
 90
        1
176
     1
 90
        1
176
     1
 40
1.0
176
     1
 90
        8
176
     1
 62
     7
176
     1
 40
1.0
176
     1
 90
        1
176
     1
 90
        6
176
     1
 90
        2
176
     1
 62
     7
176
     1
 90
        5
176
     1
 90
        0
176
     1
 90
        0
176
     1
290
     0
176
     1
 90
        1
176
     1
 40
0.0
176
     1
 90
        0
176
     1
290
     0
176
     1
290
     1
176
     1
290
     1
176
     1
290
     0
176
     1
290
     0
176
     1
290
     0
176
     1
290
     0
176
     1
290
     0
176
     1
290
     0
176
     1
 90
       50
176
     1
 40
0.0
176
     1
 40
1.0
176
     1
 90
        0
176
     1
 62
    18
420
        0
176
     1
 90
       50
176
     1
 90
        3
176
     1
 62
     5
420
      255
176
     1
290
     0
176
     1
 90
       50
176
     1
 90
       50
176
     1
 90
       50
176
     1
290
     0
176
     1
 90
       50
176
     1
 62
   256
176
     0
 40
1.0
176
     0
 90
        2
176
     1
  1
strokes_ogs.tif
176
     1
290
     0
176
     1
 40
1.0
176
     1
 40
1.0
176
     1
  0
VISUALSTYLE
  5
7C7
102
{ACAD_REACTORS
330
7C6
102
}
330
7C6
100
AcDbVisualStyle
  2
Flat
 70
     0
177
     3
291
     1
 70
    58
 90
        2
176
     1
 90
        1
176
     1
 90
        1
176
     1
 90
        2
176
     1
 40
0.6
176
     1
 40
30.0
176
     1
 62
     7
420
 16777215
176
     1
 90
        0
176
     1
 90
        0
176
     1
 62
     7
176
     1
 62
   257
176
     1
 90
        1
176
     1
 90
        1
176
     1
 40
1.0
176
     1
 90
        8
176
     1
 62
     7
176
     1
 40
1.0
176
     1
 90
        1
176
     1
 90
        6
176
     1
 90
        2
176
     1
 62
     7
176
     1
 90
        5
176
     1
 90
        0
176
     1
 90
        0
176
     1
290
     0
176
     1
 90
       13
176
     1
 40
0.0
176
     1
 90
        0
176
     1
290
     0
176
     1
290
     1
176
     1
290
     1
176
     1
290
     0
176
     1
290
     0
176
     1
290
     0
176
     1
290
     0
176
     1
290
     0
176
     1
290
     0
176
     1
 90
       50
176
     1
 40
0.0
176
     1
 40
1.0
176
     1
 90
        0
176
     1
 62
    18
420
        0
176
     1
 90
       50
176
     1
 90
        3
176
     1
 62
     5
420
      255
176
     1
290
     0
176
     1
 90
       50
176
     1
 90
       50
176
     1
 90
       50
176
     1
290
     0
176
     1
 90
       50
176
     1
 62
   256
176
     0
 40
1.0
176
     0
 90
        2
176
     1
  1
strokes_ogs.tif
176
     1
290
     0
176
     1
 40
1.0
176
     1
 40
1.0
176
     1
  0
VISUALSTYLE
  5
7C8
102
{ACAD_REACTORS
330
7C6
102
}
330
7C6
100
AcDbVisualStyle
  2
FlatWithEdges
 70
     1
177
     3
291
     1
 70
    58
 90
        2
176
     1
 90
        1
176
     1
 90
        1
176
     1
 90
        2
176
     1
 40
0.6
176
     1
 40
30.0
176
     1
 62
     7
420
 16777215
176
     1
 90
        1
176
     1
 90
        0
176
     1
 62
     7
176
     1
 62
   257
176
     1
 90
        1
176
     1
 90
        1
176
     1
 40
1.0
176
     1
 90
        0
176
     1
 62
   257
176
     1
 40
1.0
176
     1
 90
        1
176
     1
 90
        6
176
     1
 90
        2
176
     1
 62
     7
176
     1
 90
        5
176
     1
 90
        0
176
     1
 90
        0
176
     1
290
     0
176
     1
 90
       13
176
     1
 40
0.0
176
     1
 90
        0
176
     1
290
     0
176
     1
290
     1
176
     1
290
     1
176
     1
290
     0
176
     1
290
     0
176
     1
290
     0
176
     1
290
     0
176
     1
290
     0
176
     1
290
     0
176
     1
 90
       50
176
     1
 40
0.0
176
     1
 40
1.0
176
     1
 90
        0
176
     1
 62
    18
420
        0
176
     1
 90
       50
176
     1
 90
        3
176
     1
 62
     5
420
      255
176
     1
290
     0
176
     1
 90
       50
176
     1
 90
       50
176
     1
 90
       50
176
     1
290
     0
176
     1
 90
       50
176
     1
 62
   256
176
     0
 40
1.0
176
     0
 90
        2
176
     1
  1
strokes_ogs.tif
176
     1
290
     0
176
     1
 40
1.0
176
     1
 40
1.0
176
     1
  0
VISUALSTYLE
  5
7C9
102
{ACAD_REACTORS
330
7C6
102
}
330
7C6
100
AcDbVisualStyle
  2
Gouraud
 70
     2
177
     3
291
     1
 70
    58
 90
        2
176
     1
 90
        2
176
     1
 90
        1
176
     1
 90
        2
176
     1
 40
0.6
176
     1
 40
30.0
176
     1
 62
     7
420
 16777215
176
     1
 90
        0
176
     1
 90
        0
176
     1
 62
     7
176
     1
 62
   257
176
     1
 90
        1
176
     1
 90
        1
176
     1
 40
1.0
176
     1
 90
        0
176
     1
 62
     7
176
     1
 40
1.0
176
     1
 90
        1
176
     1
 90
        6
176
     1
 90
        2
176
     1
 62
     7
176
     1
 90
        5
176
     1
 90
        0
176
     1
 90
        0
176
     1
290
     0
176
     1
 90
       13
176
     1
 40
0.0
176
     1
 90
        0
176
     1
290
     0
176
     1
290
     1
176
     1
290
     1
176
     1
290
     0
176
     1
290
     0
176
     1
290
     0
176
     1
290
     0
176
     1
290
     0
176
     1
290
     0
176
     1
 90
       50
176
     1
 40
0.0
176
     1
 40
1.0
176
     1
 90
        0
176
     1
 62
    18
420
        0
176
     1
 90
       50
176
     1
 90
        3
176
     1
 62
     5
420
      255
176
     1
290
     0
176
     1
 90
       50
176
     1
 90
       50
176
     1
 90
       50
176
     1
290
     0
176
     1
 90
       50
176
     1
 62
   256
176
     0
 40
1.0
176
     0
 90
        2
176
     1
  1
strokes_ogs.tif
176
     1
290
     0
176
     1
 40
1.0
176
     1
 40
1.0
176
     1
  0
VISUALSTYLE
  5
7CA
102
{ACAD_REACTORS
330
7C6
102
}
330
7C6
100
AcDbVisualStyle
  2
GouraudWithEdges
 70
     3
177
     3
291
     1
 70
    58
 90
        2
176
     1
 90
        2
176
     1
 90
        1
176
     1
 90
        2
176
     1
 40
0.6
176
     1
 40
30.0
176
     1
 62
     7
420
 16777215
176
     1
 90
        1
176
     1
 90
        0
176
     1
 62
     7
176
     1
 62
   257
176
     1
 90
        1
176
     1
 90
        1
176
     1
 40
1.0
176
     1
 90
        0
176
     1
 62
   257
176
     1
 40
1.0
176
     1
 90
        1
176
     1
 90
        6
176
     1
 90
        2
176
     1
 62
     7
176
     1
 90
        5
176
     1
 90
        0
176
     1
 90
        0
176
     1
290
     0
176
     1
 90
       13
176
     1
 40
0.0
176
     1
 90
        0
176
     1
290
     0
176
     1
290
     1
176
     1
290
     1
176
     1
290
     0
176
     1
290
     0
176
     1
290
     0
176
     1
290
     0
176
     1
290
     0
176
     1
290
     0
176
     1
 90
       50
176
     1
 40
0.0
176
     1
 40
1.0
176
     1
 90
        0
176
     1
 62
    18
420
        0
176
     1
 90
       50
176
     1
 90
        3
176
     1
 62
     5
420
      255
176
     1
290
     0
176
     1
 90
       50
176
     1
 90
       50
176
     1
 90
       50
176
     1
290
     0
176
     1
 90
       50
176
     1
 62
   256
176
     0
 40
1.0
176
     0
 90
        2
176
     1
  1
strokes_ogs.tif
176
     1
290
     0
176
     1
 40
1.0
176
     1
 40
1.0
176
     1
  0
VISUALSTYLE
  5
7CE
102
{ACAD_REACTORS
330
7C6
102
}
330
7C6
100
AcDbVisualStyle
  2
Hidden
 70
     6
177
     3
291
     0
 70
    58
 90
        1
176
     1
 90
        2
176
     1
 90
        2
176
     1
 90
        0
176
     1
 40
0.6
176
     1
 40
30.0
176
     1
 62
     7
420
 16777215
176
     1
 90
        2
176
     1
 90
        2
176
     1
 62
     7
176
     1
 62
   257
176
     1
 90
        2
176
     1
 90
        1
176
     1
 40
40.0
176
     1
 90
        0
176
     1
 62
   257
176
     1
 40
1.0
176
     1
 90
        1
176
     1
 90
        6
176
     1
 90
        2
176
     1
 62
     7
176
     1
 90
        3
176
     1
 90
        0
176
     1
 90
        0
176
     1
290
     0
176
     1
 90
        1
176
     1
 40
0.0
176
     1
 90
        0
176
     1
290
     0
176
     1
290
     1
176
     1
290
     1
176
     1
290
     0
176
     1
290
     0
176
     1
290
     0
176
     1
290
     0
176
     1
290
     0
176
     1
290
     0
176
     1
 90
       50
176
     1
 40
0.0
176
     1
 40
1.0
176
     1
 90
        0
176
     1
 62
    18
420
        0
176
     1
 90
       50
176
     1
 90
        3
176
     1
 62
     5
420
      255
176
     1
290
     0
176
     1
 90
       50
176
     1
 90
       50
176
     1
 90
       50
176
     1
290
     0
176
     1
 90
       50
176
     1
 62
   256
176
     0
 40
1.0
176
     0
 90
        2
176
     1
  1
strokes_ogs.tif
176
     1
290
     0
176
     1
 40
1.0
176
     1
 40
1.0
176
     1
  0
VISUALSTYLE
  5
7DC
102
{ACAD_REACTORS
330
7C6
102
}
330
7C6
100
AcDbVisualStyle
  2
JitterOff
 70
    20
177
     3
291
     1
 70
    58
 90
        2
176
     0
 90
        2
176
     0
 90
        0
176
     0
 90
        0
176
     0
 40
0.6
176
     0
 40
30.0
176
     0
 62
     7
420
 16777215
176
     0
 90
        1
176
     0
 90
        4
176
     0
 62
     7
176
     0
 62
   257
176
     0
 90
        1
176
     0
 90
        1
176
     0
 40
1.0
176
     0
 90
       10
176
     2
 62
     7
176
     0
 40
1.0
176
     0
 90
        1
176
     0
 90
        6
176
     0
 90
        2
176
     0
 62
     7
176
     0
 90
        5
176
     0
 90
        0
176
     0
 90
        0
176
     0
290
     0
176
     0
 90
        1
176
     0
 40
0.0
176
     0
 90
        0
176
     0
290
     0
176
     1
290
     1
176
     1
290
     1
176
     1
290
     0
176
     1
290
     0
176
     1
290
     0
176
     1
290
     0
176
     1
290
     0
176
     1
290
     0
176
     1
 90
       50
176
     0
 40
0.0
176
     0
 40
1.0
176
     0
 90
        0
176
     0
 62
    18
420
        0
176
     0
 90
       50
176
     0
 90
        3
176
     0
 62
     5
420
      255
176
     0
290
     0
176
     1
 90
       50
176
     0
 90
       50
176
     0
 90
       50
176
     0
290
     0
176
     1
 90
       50
176
     0
 62
   256
176
     0
 40
1.0
176
     0
 90
        2
176
     0
  1
strokes_ogs.tif
176
     0
290
     0
176
     1
 40
1.0
176
     0
 40
1.0
176
     0
  0
VISUALSTYLE
  5
7D4
102
{ACAD_REACTORS
330
7C6
102
}
330
7C6
100
AcDbVisualStyle
  2
Linepattern
 70
    14
177
     3
291
     1
 70
    58
 90
        2
176
     1
 90
        2
176
     1
 90
        0
176
     1
 90
        0
176
     1
 40
0.6
176
     1
 40
30.0
176
     1
 62
     7
420
 16777215
176
     1
 90
        1
176
     1
 90
        4
176
     1
 62
     7
176
     1
 62
   257
176
     1
 90
        7
176
     1
 90
        7
176
     1
 40
1.0
176
     1
 90
        8
176
     1
 62
     7
176
     1
 40
1.0
176
     1
 90
        1
176
     1
 90
        6
176
     1
 90
        2
176
     1
 62
     7
176
     1
 90
        5
176
     1
 90
        0
176
     1
 90
        0
176
     1
290
     0
176
     1
 90
        1
176
     1
 40
0.0
176
     1
 90
        0
176
     1
290
     0
176
     1
290
     1
176
     1
290
     1
176
     1
290
     0
176
     1
290
     0
176
     1
290
     0
176
     1
290
     0
176
     1
290
     0
176
     1
290
     0
176
     1
 90
       50
176
     1
 40
0.0
176
     1
 40
1.0
176
     1
 90
        0
176
     1
 62
    18
420
        0
176
     1
 90
       50
176
     1
 90
        3
176
     1
 62
     5
420
      255
176
     1
290
     0
176
     1
 90
       50
176
     1
 90
       50
176
     1
 90
       50
176
     1
290
     0
176
     1
 90
       50
176
     1
 62
   256
176
     0
 40
1.0
176
     0
 90
        2
176
     1
  1
strokes_ogs.tif
176
     1
290
     0
176
     1
 40
1.0
176
     1
 40
1.0
176
     1
  0
VISUALSTYLE
  5
7DD
102
{ACAD_REACTORS
330
7C6
102
}
330
7C6
100
AcDbVisualStyle
  2
OverhangOff
 70
    21
177
     3
291
     1
 70
    58
 90
        2
176
     0
 90
        2
176
     0
 90
        0
176
     0
 90
        0
176
     0
 40
0.6
176
     0
 40
30.0
176
     0
 62
     7
420
 16777215
176
     0
 90
        1
176
     0
 90
        4
176
     0
 62
     7
176
     0
 62
   257
176
     0
 90
        1
176
     0
 90
        1
176
     0
 40
1.0
176
     0
 90
        9
176
     2
 62
     7
176
     0
 40
1.0
176
     0
 90
        1
176
     0
 90
        6
176
     0
 90
        2
176
     0
 62
     7
176
     0
 90
        5
176
     0
 90
        0
176
     0
 90
        0
176
     0
290
     0
176
     0
 90
        1
176
     0
 40
0.0
176
     0
 90
        0
176
     0
290
     0
176
     1
290
     1
176
     1
290
     1
176
     1
290
     0
176
     1
290
     0
176
     1
290
     0
176
     1
290
     0
176
     1
290
     0
176
     1
290
     0
176
     1
 90
       50
176
     0
 40
0.0
176
     0
 40
1.0
176
     0
 90
        0
176
     0
 62
    18
420
        0
176
     0
 90
       50
176
     0
 90
        3
176
     0
 62
     5
420
      255
176
     0
290
     0
176
     1
 90
       50
176
     0
 90
       50
176
     0
 90
       50
176
     0
290
     0
176
     1
 90
       50
176
     0
 62
   256
176
     0
 40
1.0
176
     0
 90
        2
176
     0
  1
strokes_ogs.tif
176
     0
290
     0
176
     1
 40
1.0
176
     0
 40
1.0
176
     0
  0
VISUALSTYLE
  5
7D0
102
{ACAD_REACTORS
330
7C6
102
}
330
7C6
100
AcDbVisualStyle
  2
Realistic
 70
     8
177
     3
291
     0
 70
    58
 90
        2
176
     1
 90
        3
176
     1
 90
        0
176
     1
 90
        2
176
     1
 40
0.6
176
     1
 40
30.0
176
     1
 62
     7
420
 16777215
176
     1
 90
        0
176
     1
 90
        0
176
     1
 62
     7
176
     1
 62
   257
176
     1
 90
        1
176
     1
 90
        1
176
     1
 40
1.0
176
     1
 90
        8
176
     1
 62
   257
176
     1
 40
1.0
176
     1
 90
        1
176
     1
 90
        6
176
     1
 90
        2
176
     1
 62
     7
176
     1
 90
        3
176
     1
 90
        0
176
     1
 90
        0
176
     1
290
     0
176
     1
 90
       13
176
     1
 40
0.0
176
     1
 90
        0
176
     1
290
     0
176
     1
290
     1
176
     1
290
     1
176
     1
290
     0
176
     1
290
     0
176
     1
290
     0
176
     1
290
     0
176
     1
290
     0
176
     1
290
     0
176
     1
 90
       50
176
     1
 40
0.0
176
     1
 40
1.0
176
     1
 90
        0
176
     1
 62
    18
420
        0
176
     1
 90
       50
176
     1
 90
        3
176
     1
 62
     5
420
      255
176
     1
290
     0
176
     1
 90
       50
176
     1
 90
       50
176
     1
 90
       50
176
     1
290
     0
176
     1
 90
       50
176
     1
 62
   256
176
     0
 40
1.0
176
     0
 90
        2
176
     1
  1
strokes_ogs.tif
176
     1
290
     0
176
     1
 40
1.0
176
     1
 40
1.0
176
     1
  0
VISUALSTYLE
  5
7DB
102
{ACAD_REACTORS
330
7C6
102
}
330
7C6
100
AcDbVisualStyle
  2
Shaded
 70
    27
177
     3
291
     0
 70
    58
 90
        2
176
     1
 90
        2
176
     1
 90
        1
176
     1
 90
        2
176
     1
 40
0.6
176
     1
 40
30.0
176
     1
 62
     7
420
 16777215
176
     1
 90
        0
176
     1
 90
        4
176
     1
 62
     7
176
     1
 62
   257
176
     1
 90
        1
176
     1
 90
        1
176
     1
 40
1.0
176
     1
 90
        8
176
     1
 62
   257
176
     1
 40
1.0
176
     1
 90
        1
176
     1
 90
        6
176
     1
 90
        2
176
     1
 62
     8
420
  7895160
176
     1
 90
        3
176
     1
 90
        0
176
     1
 90
        0
176
     1
290
     0
176
     1
 90
        5
176
     1
 40
0.0
176
     1
 90
        0
176
     1
290
     0
176
     1
290
     1
176
     1
290
     1
176
     1
290
     0
176
     1
290
     0
176
     1
290
     0
176
     1
290
     0
176
     1
290
     0
176
     1
290
     0
176
     1
 90
       50
176
     1
 40
0.0
176
     1
 40
1.0
176
     1
 90
        0
176
     1
 62
    18
420
        0
176
     1
 90
       50
176
     1
 90
        3
176
     1
 62
     5
420
      255
176
     1
290
     0
176
     1
 90
       50
176
     1
 90
       50
176
     1
 90
       50
176
     1
290
     0
176
     1
 90
       50
176
     1
 62
   256
176
     0
 40
1.0
176
     0
 90
        2
176
     1
  1
strokes_ogs.tif
176
     1
290
     0
176
     1
 40
1.0
176
     1
 40
1.0
176
     1
  0
VISUALSTYLE
  5
7DA
102
{ACAD_REACTORS
330
7C6
102
}
330
7C6
100
AcDbVisualStyle
  2
Shaded with edges
 70
    26
177
     3
291
     0
 70
    58
 90
        2
176
     1
 90
        2
176
     1
 90
        1
176
     1
 90
        2
176
     1
 40
0.6
176
     1
 40
30.0
176
     1
 62
     7
420
 16777215
176
     1
 90
        1
176
     1
 90
        2
176
     1
 62
     7
176
     1
 62
   257
176
     1
 90
        2
176
     1
 90
        1
176
     1
 40
1.0
176
     1
 90
        8
176
     1
 62
   257
176
     1
 40
1.0
176
     1
 90
        1
176
     1
 90
        6
176
     1
 90
        2
176
     1
 62
     7
176
     1
 90
        3
176
     1
 90
        0
176
     1
 90
        0
176
     1
290
     0
176
     1
 90
        5
176
     1
 40
0.0
176
     1
 90
        0
176
     1
290
     0
176
     1
290
     1
176
     1
290
     1
176
     1
290
     0
176
     1
290
     0
176
     1
290
     0
176
     1
290
     0
176
     1
290
     0
176
     1
290
     0
176
     1
 90
       50
176
     1
 40
0.0
176
     1
 40
1.0
176
     1
 90
        0
176
     1
 62
    18
420
        0
176
     1
 90
       50
176
     1
 90
        3
176
     1
 62
     5
420
      255
176
     1
290
     0
176
     1
 90
       50
176
     1
 90
       50
176
     1
 90
       50
176
     1
290
     0
176
     1
 90
       50
176
     1
 62
   256
176
     0
 40
1.0
176
     0
 90
        2
176
     1
  1
strokes_ogs.tif
176
     1
290
     0
176
     1
 40
1.0
176
     1
 40
1.0
176
     1
  0
VISUALSTYLE
  5
7D7
102
{ACAD_REACTORS
330
7C6
102
}
330
7C6
100
AcDbVisualStyle
  2
Shades of Gray
 70
    23
177
     3
291
     0
 70
    58
 90
        2
176
     1
 90
        2
176
     1
 90
        3
176
     1
 90
        0
176
     1
 40
0.6
176
     1
 40
30.0
176
     1
 62
     7
420
 16777215
176
     1
 90
        2
176
     1
 90
        2
176
     1
 62
     7
176
     1
 62
     7
176
     1
 90
        1
176
     1
 90
        1
176
     1
 40
40.0
176
     1
 90
        8
176
     1
 62
     7
176
     1
 40
1.0
176
     1
 90
        1
176
     1
 90
        6
176
     1
 90
        2
176
     1
 62
     7
176
     1
 90
        3
176
     1
 90
        0
176
     1
 90
        0
176
     1
290
     0
176
     1
 90
        1
176
     1
 40
0.0
176
     1
 90
        0
176
     1
290
     0
176
     1
290
     1
176
     1
290
     1
176
     1
290
     0
176
     1
290
     0
176
     1
290
     0
176
     1
290
     0
176
     1
290
     0
176
     1
290
     0
176
     1
 90
       50
176
     1
 40
0.0
176
     1
 40
1.0
176
     1
 90
        0
176
     1
 62
    18
420
        0
176
     1
 90
       50
176
     1
 90
        3
176
     1
 62
     5
420
      255
176
     1
290
     0
176
     1
 90
       50
176
     1
 90
       50
176
     1
 90
       50
176
     1
290
     0
176
     1
 90
       50
176
     1
 62
   256
176
     0
 40
1.0
176
     0
 90
        2
176
     1
  1
strokes_ogs.tif
176
     1
290
     0
176
     1
 40
1.0
176
     1
 40
1.0
176
     1
  0
VISUALSTYLE
  5
7D8
102
{ACAD_REACTORS
330
7C6
102
}
330
7C6
100
AcDbVisualStyle
  2
Sketchy
 70
    24
177
     3
291
     0
 70
    58
 90
        1
176
     1
 90
        2
176
     1
 90
        2
176
     1
 90
        0
176
     1
 40
0.6
176
     1
 40
30.0
176
     1
 62
     7
420
 16777215
176
     1
 90
        2
176
     1
 90
        2
176
     1
 62
     7
176
     1
 62
     7
176
     1
 90
        1
176
     1
 90
        1
176
     1
 40
40.0
176
     1
 90
       11
176
     1
 62
     7
176
     1
 40
1.0
176
     1
 90
        1
176
     1
 90
        6
176
     1
 90
        2
176
     1
 62
     7
176
     1
 90
        6
176
     1
 90
        0
176
     1
 90
        0
176
     1
290
     0
176
     1
 90
        1
176
     1
 40
0.0
176
     1
 90
        0
176
     1
290
     0
176
     1
290
     1
176
     1
290
     1
176
     1
290
     0
176
     1
290
     0
176
     1
290
     0
176
     1
290
     0
176
     1
290
     0
176
     1
290
     0
176
     1
 90
       50
176
     1
 40
0.0
176
     1
 40
1.0
176
     1
 90
        0
176
     1
 62
    18
420
        0
176
     1
 90
       50
176
     1
 90
        3
176
     1
 62
     5
420
      255
176
     1
290
     0
176
     1
 90
       50
176
     1
 90
       50
176
     1
 90
       50
176
     1
290
     0
176
     1
 90
       50
176
     1
 62
   256
176
     0
 40
1.0
176
     0
 90
        2
176
     1
  1
strokes_ogs.tif
176
     1
290
     0
176
     1
 40
1.0
176
     1
 40
1.0
176
     1
  0
VISUALSTYLE
  5
7D3
102
{ACAD_REACTORS
330
7C6
102
}
330
7C6
100
AcDbVisualStyle
  2
Thicken
 70
    13
177
     3
291
     1
 70
    58
 90
        2
176
     1
 90
        2
176
     1
 90
        0
176
     1
 90
        0
176
     1
 40
0.6
176
     1
 40
30.0
176
     1
 62
     7
420
 16777215
176
     1
 90
        1
176
     1
 90
        4
176
     1
 62
     7
176
     1
 62
   257
176
     1
 90
        1
176
     1
 90
        1
176
     1
 40
1.0
176
     1
 90
       12
176
     1
 62
     7
176
     1
 40
1.0
176
     1
 90
        1
176
     1
 90
        6
176
     1
 90
        2
176
     1
 62
     7
176
     1
 90
        5
176
     1
 90
        0
176
     1
 90
        0
176
     1
290
     0
176
     1
 90
        1
176
     1
 40
0.0
176
     1
 90
        0
176
     1
290
     0
176
     1
290
     1
176
     1
290
     1
176
     1
290
     0
176
     1
290
     0
176
     1
290
     0
176
     1
290
     0
176
     1
290
     0
176
     1
290
     0
176
     1
 90
       50
176
     1
 40
0.0
176
     1
 40
1.0
176
     1
 90
        0
176
     1
 62
    18
420
        0
176
     1
 90
       50
176
     1
 90
        3
176
     1
 62
     5
420
      255
176
     1
290
     0
176
     1
 90
       50
176
     1
 90
       50
176
     1
 90
       50
176
     1
290
     0
176
     1
 90
       50
176
     1
 62
   256
176
     0
 40
1.0
176
     0
 90
        2
176
     1
  1
strokes_ogs.tif
176
     1
290
     0
176
     1
 40
1.0
176
     1
 40
1.0
176
     1
  0
VISUALSTYLE
  5
7CD
102
{ACAD_REACTORS
330
7C6
102
}
330
7C6
100
AcDbVisualStyle
  2
Wireframe
 70
     5
177
     3
291
     0
 70
    58
 90
        0
176
     1
 90
        2
176
     1
 90
        0
176
     1
 90
        0
176
     1
 40
0.6
176
     1
 40
30.0
176
     1
 62
     7
420
 16777215
176
     1
 90
        1
176
     1
 90
        4
176
     1
 62
     7
176
     1
 62
   257
176
     1
 90
        1
176
     1
 90
        1
176
     1
 40
1.0
176
     1
 90
        0
176
     1
 62
   257
176
     1
 40
1.0
176
     1
 90
        1
176
     1
 90
        6
176
     1
 90
        2
176
     1
 62
     7
176
     1
 90
        3
176
     1
 90
        0
176
     1
 90
        0
176
     1
290
     0
176
     1
 90
        1
176
     1
 40
0.0
176
     1
 90
        0
176
     1
290
     0
176
     1
290
     1
176
     1
290
     1
176
     1
290
     0
176
     1
290
     0
176
     1
290
     0
176
     1
290
     0
176
     1
290
     0
176
     1
290
     0
176
     1
 90
       50
176
     1
 40
0.0
176
     1
 40
1.0
176
     1
 90
        0
176
     1
 62
    18
420
        0
176
     1
 90
       50
176
     1
 90
        3
176
     1
 62
     5
420
      255
176
     1
290
     0
176
     1
 90
       50
176
     1
 90
       50
176
     1
 90
       50
176
     1
290
     0
176
     1
 90
       50
176
     1
 62
   256
176
     0
 40
1.0
176
     0
 90
        2
176
     1
  1
strokes_ogs.tif
176
     1
290
     0
176
     1
 40
1.0
176
     1
 40
1.0
176
     1
  0
VISUALSTYLE
  5
7D9
102
{ACAD_REACTORS
330
7C6
102
}
330
7C6
100
AcDbVisualStyle
  2
X-Ray
 70
    25
177
     3
291
     0
 70
    58
 90
        2
176
     1
 90
        2
176
     1
 90
        1
176
     1
 90
        1
176
     1
 40
0.5
176
     1
 40
30.0
176
     1
 62
     7
420
 16777215
176
     1
 90
        1
176
     1
 90
        0
176
     1
 62
     7
176
     1
 62
   257
176
     1
 90
        1
176
     1
 90
        1
176
     1
 40
1.0
176
     1
 90
        8
176
     1
 62
     7
176
     1
 40
1.0
176
     1
 90
        1
176
     1
 90
        6
176
     1
 90
        2
176
     1
 62
     7
176
     1
 90
        3
176
     1
 90
        0
176
     1
 90
        0
176
     1
290
     0
176
     1
 90
       13
176
     1
 40
0.0
176
     1
 90
        0
176
     1
290
     0
176
     1
290
     1
176
     1
290
     1
176
     1
290
     0
176
     1
290
     0
176
     1
290
     0
176
     1
290
     0
176
     1
290
     0
176
     1
290
     0
176
     1
 90
       50
176
     1
 40
0.0
176
     1
 40
1.0
176
     1
 90
        0
176
     1
 62
    18
420
        0
176
     1
 90
       50
176
     1
 90
        3
176
     1
 62
     5
420
      255
176
     1
290
     0
176
     1
 90
       50
176
     1
 90
       50
176
     1
 90
       50
176
     1
290
     0
176
     1
 90
       50
176
     1
 62
   256
176
     0
 40
1.0
176
     0
 90
        2
176
     1
  1
strokes_ogs.tif
176
     1
290
     0
176
     1
 40
1.0
176
     1
 40
1.0
176
     1
  0
DICTIONARYVAR
  5
82D
102
{ACAD_REACTORS
330
827
102
}
330
827
100
DictionaryVariables
280
     0
  1
1:1
  0
DICTIONARYVAR
  5
829
102
{ACAD_REACTORS
330
827
102
}
330
827
100
DictionaryVariables
280
     0
  1
STANDARD
  0
DICTIONARYVAR
  5
828
102
{ACAD_REACTORS
330
827
102
}
330
827
100
DictionaryVariables
280
     0
  1
STANDARD
  0
DICTIONARYVAR
  5
82A
102
{ACAD_REACTORS
330
827
102
}
330
827
100
DictionaryVariables
280
     0
  1
Imperial24
  0
DICTIONARYVAR
  5
82B
102
{ACAD_REACTORS
330
827
102
}
330
827
100
DictionaryVariables
280
     0
  1
Imperial24
  0
DICTIONARYVAR
  5
82F
102
{ACAD_REACTORS
330
827
102
}
330
827
100
DictionaryVariables
280
     0
  1
1
  0
DICTIONARYVAR
  5
830
102
{ACAD_REACTORS
330
827
102
}
330
827
100
DictionaryVariables
280
     0
  1
15
  0
DICTIONARYVAR
  5
82E
102
{ACAD_REACTORS
330
827
102
}
330
827
100
DictionaryVariables
280
     0
  1
0
  0
DICTIONARYVAR
  5
82C
102
{ACAD_REACTORS
330
827
102
}
330
827
100
DictionaryVariables
280
     0
  1
0
  0
DICTIONARY
  5
7B7
330
7B6
100
AcDbDictionary
280
     1
281
     1
  3
BUMPTILE
360
7B9
  3
DIFFUSETILE
360
7B8
  3
OPACITYTILE
360
7BC
  3
REFLECTIONTILE
360
7BB
  3
REFRACTIONTILE
360
7BD
  3
SPECULARTILE
360
7BA
  0
DICTIONARY
  5
7AF
330
7AE
100
AcDbDictionary
280
     1
281
     1
  3
BUMPTILE
360
7B1
  3
DIFFUSETILE
360
7B0
  3
OPACITYTILE
360
7B4
  3
REFLECTIONTILE
360
7B3
  3
REFRACTIONTILE
360
7B5
  3
SPECULARTILE
360
7B2
  0
DICTIONARY
  5
7BF
330
7BE
100
AcDbDictionary
280
     1
281
     1
  3
BUMPTILE
360
7C1
  3
DIFFUSETILE
360
7C0
  3
OPACITYTILE
360
7C4
  3
REFLECTIONTILE
360
7C3
  3
REFRACTIONTILE
360
7C5
  3
SPECULARTILE
360
7C2
  0
DICTIONARY
  5
831
330
801
100
AcDbDictionary
280
     1
281
     1
  3
ACAD_ROUNDTRIP_2008_TABLESTYLE_CELLSTYLEMAP
360
832
  0
XRECORD
  5
7B9
102
{ACAD_REACTORS
330
7B7
102
}
330
7B7
100
AcDbXrecord
280
     1
270
     1
271
     1
  0
XRECORD
  5
7B8
102
{ACAD_REACTORS
330
7B7
102
}
330
7B7
100
AcDbXrecord
280
     1
270
     1
271
     1
  0
XRECORD
  5
7BC
102
{ACAD_REACTORS
330
7B7
102
}
330
7B7
100
AcDbXrecord
280
     1
270
     1
271
     1
  0
XRECORD
  5
7BB
102
{ACAD_REACTORS
330
7B7
102
}
330
7B7
100
AcDbXrecord
280
     1
270
     1
271
     1
  0
XRECORD
  5
7BD
102
{ACAD_REACTORS
330
7B7
102
}
330
7B7
100
AcDbXrecord
280
     1
270
     1
271
     1
  0
XRECORD
  5
7BA
102
{ACAD_REACTORS
330
7B7
102
}
330
7B7
100
AcDbXrecord
280
     1
270
     1
271
     1
  0
XRECORD
  5
7B1
102
{ACAD_REACTORS
330
7AF
102
}
330
7AF
100
AcDbXrecord
280
     1
270
     1
271
     1
  0
XRECORD
  5
7B0
102
{ACAD_REACTORS
330
7AF
102
}
330
7AF
100
AcDbXrecord
280
     1
270
     1
271
     1
  0
XRECORD
  5
7B4
102
{ACAD_REACTORS
330
7AF
102
}
330
7AF
100
AcDbXrecord
280
     1
270
     1
271
     1
  0
XRECORD
  5
7B3
102
{ACAD_REACTORS
330
7AF
102
}
330
7AF
100
AcDbXrecord
280
     1
270
     1
271
     1
  0
XRECORD
  5
7B5
102
{ACAD_REACTORS
330
7AF
102
}
330
7AF
100
AcDbXrecord
280
     1
270
     1
271
     1
  0
XRECORD
  5
7B2
102
{ACAD_REACTORS
330
7AF
102
}
330
7AF
100
AcDbXrecord
280
     1
270
     1
271
     1
  0
XRECORD
  5
7C1
102
{ACAD_REACTORS
330
7BF
102
}
330
7BF
100
AcDbXrecord
280
     1
270
     1
271
     1
  0
XRECORD
  5
7C0
102
{ACAD_REACTORS
330
7BF
102
}
330
7BF
100
AcDbXrecord
280
     1
270
     1
271
     1
  0
XRECORD
  5
7C4
102
{ACAD_REACTORS
330
7BF
102
}
330
7BF
100
AcDbXrecord
280
     1
270
     1
271
     1
  0
XRECORD
  5
7C3
102
{ACAD_REACTORS
330
7BF
102
}
330
7BF
100
AcDbXrecord
280
     1
270
     1
271
     1
  0
XRECORD
  5
7C5
102
{ACAD_REACTORS
330
7BF
102
}
330
7BF
100
AcDbXrecord
280
     1
270
     1
271
     1
  0
XRECORD
  5
7C2
102
{ACAD_REACTORS
330
7BF
102
}
330
7BF
100
AcDbXrecord
280
     1
270
     1
271
     1
  0
CELLSTYLEMAP
  5
832
102
{ACAD_REACTORS
330
831
102
}
330
831
100
AcDbCellStyleMap
 90
        3
300
CELLSTYLE
  1
TABLEFORMAT_BEGIN
 90
        5
170
     1
 91
        0
 92
    32768
 62
   257
 93
        1
300
CONTENTFORMAT
  1
CONTENTFORMAT_BEGIN
 90
        0
 91
        0
 92
      512
 93
        0
300

 40
0.0
140
1.0
 94
        5
 62
     0
340
7F2
144
0.25
309
CONTENTFORMAT_END
171
     0
 94
        0
309
TABLEFORMAT_END
  1
CELLSTYLE_BEGIN
 90
        1
 91
        1
300
_TITLE
309
CELLSTYLE_END
300
CELLSTYLE
  1
TABLEFORMAT_BEGIN
 90
        5
170
     1
 91
        0
 92
        0
 62
   257
 93
        1
300
CONTENTFORMAT
  1
CONTENTFORMAT_BEGIN
 90
        0
 91
        0
 92
      512
 93
        0
300

 40
0.0
140
1.0
 94
        5
 62
     0
340
7F2
144
0.18
309
CONTENTFORMAT_END
171
     0
 94
        0
309
TABLEFORMAT_END
  1
CELLSTYLE_BEGIN
 90
        2
 91
        1
300
_HEADER
309
CELLSTYLE_END
300
CELLSTYLE
  1
TABLEFORMAT_BEGIN
 90
        5
170
     1
 91
        0
 92
        0
 62
   257
 93
        1
300
CONTENTFORMAT
  1
CONTENTFORMAT_BEGIN
 90
        0
 91
        0
 92
      512
 93
        0
300

 40
0.0
140
1.0
 94
        2
 62
     0
340
7F2
144
0.18
309
CONTENTFORMAT_END
171
     0
 94
        0
309
TABLEFORMAT_END
  1
CELLSTYLE_BEGIN
 90
        3
 91
        2
300
_DATA
309
CELLSTYLE_END
  0
ENDSEC
  0
EOF
